# This file uses centimeters as units for non-parametric coordinates.

g default
v -0.043945 2.826660 0.016602
v -1.245850 2.826660 2.098145
v 0.155273 2.826660 0.119385
v -1.046631 2.826660 2.200928
v 0.155273 -0.001044 0.119385
v -1.046631 -0.001044 2.200928
v -0.043945 0.281727 0.016602
v -1.245850 0.281727 2.098145
v -1.046631 0.281727 2.200928
v 0.155273 0.281727 0.119385
v -0.196045 -0.001044 -0.071289
v -1.398193 -0.001044 2.010254
v -1.398193 0.281727 2.010254
v -0.196045 0.281727 -0.071289
v -0.927490 2.826660 -1.689819
v -0.044189 2.826660 -0.159180
v -0.726318 2.826660 -1.806030
v 0.157471 2.826660 -0.275391
v -0.726318 -0.001044 -1.806030
v 0.157471 -0.001044 -0.275391
v -0.927490 0.281727 -1.689819
v -0.044189 0.281727 -0.159180
v 0.157471 0.281727 -0.275391
v -0.726318 0.281727 -1.806030
v -1.080078 -0.001044 -1.601929
v -1.080078 0.281727 -1.601929
vt 0.827523 0.468388
vt 0.629293 0.471629
vt 0.625088 0.262471
vt 0.826361 0.257089
vt 0.625046 0.244105
vt 0.821477 0.238986
vt 0.619468 0.033779
vt 0.818041 0.028720
vt 0.841192 0.506155
vt 0.629879 0.509548
vt 0.629506 0.486170
vt 0.841644 0.482779
vt 0.618875 0.010407
vt 0.817627 0.005343
vt 0.987945 0.471021
vt 0.841941 0.468275
vt 0.842727 0.257277
vt 0.991431 0.260966
vt 0.849868 0.238425
vt 0.992958 0.242047
vt 0.850748 0.028829
vt 0.997095 0.030489
vt 0.987245 0.508953
vt 0.987689 0.485577
vt 0.850877 0.005461
vt 0.997343 0.007100
vt 0.828181 0.506284
vt 0.827785 0.482909
vt 0.834847 0.480896
vn -0.866003 0.000000 -0.500039
vn -0.866003 0.000000 -0.500039
vn -0.866003 0.000000 -0.500039
vn -0.866003 0.000000 -0.500039
vn 0.000000 1.000000 0.000000
vn 0.000000 1.000000 0.000000
vn 0.000000 1.000000 0.000000
vn 0.000000 1.000000 0.000000
vn 0.866003 0.000000 0.500039
vn 0.866003 0.000000 0.500039
vn 0.866003 0.000000 0.500039
vn 0.866003 0.000000 0.500039
vn -0.865959 0.000000 -0.500115
vn -0.865959 0.000000 -0.500115
vn -0.735604 0.527640 -0.424832
vn -0.735407 0.528007 -0.424718
vn 0.866003 0.000000 0.500039
vn 0.866003 0.000000 0.500039
vn 0.000000 1.000000 0.000000
vn 0.000000 1.000000 0.000000
vn -0.866127 0.000000 0.499824
vn -0.866127 0.000000 0.499824
vn -0.866127 0.000000 0.499824
vn -0.866127 0.000000 0.499824
vn 0.000000 1.000000 0.000000
vn 0.000000 1.000000 0.000000
vn 0.000000 1.000000 0.000000
vn 0.000000 1.000000 0.000000
vn 0.866007 0.000000 -0.500031
vn 0.866007 0.000000 -0.500031
vn 0.866007 0.000000 -0.500031
vn 0.866007 0.000000 -0.500031
vn -0.865948 0.000000 0.500135
vn -0.865947 0.000000 0.500135
vn -0.735223 0.528330 0.424634
vn -0.735922 0.527031 0.425038
vn 0.866007 0.000000 -0.500031
vn 0.866007 0.000000 -0.500031
vn 0.000000 1.000000 0.000000
vn 0.000000 1.000000 0.000000
vn -0.999999 0.000000 0.001389
vn -0.999999 0.000000 0.001389
vn -0.999999 0.000000 0.001389
vn -0.999999 0.000000 0.001389
vn 0.999985 0.000000 0.005566
vn 0.999985 0.000000 0.005566
vn 0.999985 0.000000 0.005566
vn 0.999985 0.000000 0.005566
vn 0.999985 0.000000 0.005566
vn 0.999985 0.000000 0.005566
vn 0.999985 0.000000 0.005566
vn 0.999985 0.000000 0.005566
vn 0.000000 1.000000 0.000000
vn 0.000000 1.000000 0.000000
vn 0.000000 1.000000 0.000000
vn 0.000000 1.000000 0.000000
vn 0.000000 1.000000 0.000000
vn 0.000000 1.000000 0.000000
vn 0.000000 1.000000 0.000000
s 1
g Corner_45_deg_R1 Walls30
f 7/1/1 8/2/2 1/4/3
f 1/4/3 8/2/2 2/3/4
s 2
f 2/3/5 4/5/6 1/4/7
f 1/4/7 4/5/6 3/6/8
s 3
f 3/6/9 4/5/10 10/8/11
f 10/8/11 4/5/10 9/7/12
s 4
f 11/27/13 12/10/14 14/28/15
f 14/28/15 12/10/14 13/11/16
s 3
f 10/8/11 9/7/12 5/14/17
f 5/14/17 9/7/12 6/13/18
s 4
f 8/2/19 7/1/20 13/11/16
f 13/11/16 7/1/20 14/28/15
s 5
f 21/15/21 22/16/22 15/18/23
f 15/18/23 22/16/22 16/17/24
s 6
f 15/18/25 16/17/26 17/20/27
f 17/20/27 16/17/26 18/19/28
s 7
f 17/20/29 18/19/30 24/22/31
f 24/22/31 18/19/30 23/21/32
s 8
f 25/23/33 11/9/34 26/24/35
f 26/24/35 11/9/34 14/12/36
s 7
f 24/22/31 23/21/32 19/26/37
f 19/26/37 23/21/32 20/25/38
s 8
f 22/16/39 21/15/40 14/12/36
f 14/12/36 21/15/40 26/24/35
s 9
f 7/1/41 1/4/42 22/16/43
f 22/16/43 1/4/42 16/17/44
s 10
f 3/6/45 10/8/46 18/19/47
f 18/19/47 10/8/46 23/21/48
s 11
f 10/8/49 5/14/50 23/21/51
f 23/21/51 5/14/50 20/25/52
s 12
f 1/4/53 3/6/54 16/17/55
f 16/17/55 3/6/54 18/19/56
s off
f 14/29/57 7/1/58 22/16/59
g default
v -0.620300 2.829071 1.233521
v -0.623764 2.829071 -0.542847
v -0.863953 2.829071 1.233521
v -0.867424 2.829071 -0.542847
v -0.863953 0.001369 1.233521
v -0.863953 0.001369 -0.499023
v -0.620300 0.284138 1.233521
v -0.623764 0.284138 -0.542847
v -0.863953 0.284138 -0.499023
v -0.863953 0.284138 1.233521
v -0.444366 0.001369 1.233521
v -0.478874 0.001369 -0.403809
v -0.463806 0.284138 -0.397217
v -0.444366 0.284138 1.233521
v 1.118530 2.829071 -0.542847
v -0.867424 2.829071 -0.783630
v 1.118530 2.829071 -0.783630
v -0.867424 0.001369 -0.783630
v 1.118530 0.001369 -0.783630
v 1.118530 0.284138 -0.542847
v 1.118530 0.284138 -0.783630
v -0.867424 0.284138 -0.783630
v 1.118530 0.001369 -0.367065
v 1.118530 0.284138 -0.367065
v -0.623764 0.001369 -0.783630
v -0.623878 0.284138 -0.783630
v -0.623764 2.829071 -0.783630
vt 0.610258 0.495381
vt 0.455996 0.494264
vt 0.457596 0.273260
vt 0.611858 0.274377
vt 0.718866 0.797783
vt 0.611970 0.253217
vt 0.740422 0.558618
vt 0.613571 0.032212
vt 0.609755 0.535213
vt 0.467553 0.532799
vt 0.442014 0.506810
vt 0.610177 0.510660
vt 0.740132 0.534371
vt 0.613749 0.007656
vt 0.304694 0.493169
vt 0.306294 0.272164
vt 0.697726 0.777386
vt 0.306445 0.251254
vt 0.695131 0.559159
vt 0.308045 0.030250
vt 0.304873 0.532989
vt 0.304583 0.508434
vt 0.459525 0.006789
vt 0.308223 0.005694
vt 0.716015 0.558910
vt 0.715725 0.534662
vt 0.718619 0.777136
vt 0.443624 0.531356
vt 0.468570 0.508222
vt 0.715725 0.534662
vt 0.457748 0.252350
vt 0.459358 0.031345
vt 0.694831 0.534912
vt 0.463115 0.031122
vt 0.463293 0.006566
vt 0.457708 0.252100
vt 0.697972 0.798033
vt 0.739266 0.776890
vn 0.999998 0.000000 -0.001950
vn 0.999998 0.000000 -0.001950
vn 0.999998 0.000000 -0.001950
vn 0.999998 0.000000 -0.001950
vn 0.000000 1.000000 0.000000
vn 0.000000 1.000000 -0.000000
vn 0.000000 1.000000 -0.000000
vn 0.000000 1.000000 -0.000000
vn -0.999997 -0.001330 0.001954
vn -1.000000 -0.000472 0.000693
vn -0.999999 -0.000832 0.001222
vn -1.000000 0.000000 0.000000
vn 0.721361 -0.054534 0.690409
vn 0.452622 0.769531 0.450506
vn 0.999900 -0.005798 -0.012925
vn 0.850825 0.525351 -0.010143
vn -1.000000 0.000000 0.000000
vn -1.000000 0.000000 0.000000
vn 0.000000 1.000000 0.000000
vn 0.000000 1.000000 0.000000
vn 0.000000 0.000000 1.000000
vn 0.000000 0.000000 1.000000
vn 0.000000 0.000000 1.000000
vn 0.000000 0.000000 1.000000
vn 0.000000 1.000000 0.000000
vn 0.000000 1.000000 0.000000
vn 0.000000 1.000000 0.000000
vn 0.000000 1.000000 0.000000
vn 0.000000 0.000000 -1.000000
vn 0.000000 0.000000 -1.000000
vn 0.000000 0.000000 -1.000000
vn 0.000000 0.000000 -1.000000
vn -0.019499 -0.002507 0.999807
vn -0.016235 0.523235 0.852033
vn 0.000000 0.000000 -1.000000
vn 0.000000 0.000000 -1.000000
vn 0.000000 1.000000 0.000000
vn 0.000000 0.000000 -1.000000
vn 0.000000 0.000000 -1.000000
vn 0.000000 0.000000 -1.000000
vn 0.000000 1.000000 0.000000
vn 0.000000 1.000000 0.000000
vn -0.999925 -0.001154 0.012196
vn -1.000000 -0.000095 0.001000
vn -0.999933 -0.001095 0.011571
vn -1.000000 0.000000 0.000000
vn -0.999926 0.000000 0.012196
vn -0.999926 0.000000 0.012196
vn -0.999926 0.000000 0.012196
vn -0.999926 0.000000 0.012196
s 1
g Walls30 Wall_Inner_Corner
f 33/30/60 34/31/61 27/33/62
f 27/33/62 34/31/61 28/32/63
s 2
f 27/33/64 28/32/65 29/35/66
f 29/35/66 28/32/65 30/65/67
s 3
f 30/65/68 35/63/69 29/35/70
f 29/35/70 35/63/69 36/37/71
s 4
f 38/39/72 39/58/73 37/38/74
f 37/38/74 39/58/73 40/41/75
s 3
f 36/37/71 35/63/69 31/43/76
f 31/43/76 35/63/69 32/64/77
s 4
f 34/31/78 33/30/79 39/58/73
f 39/58/73 33/30/79 40/41/75
s 5
f 28/32/80 34/31/81 41/45/82
f 41/45/82 34/31/81 46/44/83
s 6
f 53/60/84 28/32/85 43/47/86
f 43/47/86 28/32/85 41/45/87
s 7
f 52/61/88 53/60/89 47/49/90
f 47/49/90 53/60/89 43/47/91
s 4
f 38/57/72 49/50/92 39/40/73
f 39/40/73 49/50/92 50/51/93
s 7
f 51/52/94 52/61/88 45/53/95
f 45/53/95 52/61/88 47/49/90
s 4
f 34/31/78 39/40/73 46/44/96
f 46/44/96 39/40/73 50/51/93
s 7
f 48/54/97 52/48/88 44/55/98
f 44/55/98 52/48/88 51/62/94
f 42/56/99 53/46/89 48/54/97
f 48/54/97 53/46/89 52/48/88
s 6
f 30/34/100 28/66/85 42/56/101
f 42/56/101 28/66/85 53/46/84
s 9
f 35/36/102 30/67/103 48/54/104
f 48/54/104 30/67/103 42/56/105
s 10
f 32/42/106 35/36/107 44/59/108
f 44/59/108 35/36/107 48/54/109
g default
v -0.088379 2.826660 -0.216309
v 1.113525 2.826660 1.865234
v 0.100098 2.826660 -0.337646
v 1.302002 2.826660 1.743896
v 0.100098 -0.001044 -0.337646
v 1.302002 -0.001044 1.743896
v -0.088379 0.281727 -0.216309
v 1.113525 0.281727 1.865234
v 1.302002 0.281727 1.743896
v 0.100098 0.281727 -0.337646
v -0.240479 -0.001044 -0.128418
v 0.961182 -0.001044 1.953125
v 0.961182 0.281727 1.953125
v -0.240479 0.281727 -0.128418
v -2.008057 2.826660 -0.304199
v -0.240479 2.826660 -0.304199
v -2.008057 2.826660 -0.543701
v -0.240479 2.826660 -0.543701
v -2.008057 -0.001044 -0.543701
v -0.240479 -0.001044 -0.543701
v -2.008057 0.281727 -0.304199
v -0.240479 0.281727 -0.304199
v -0.240479 0.281727 -0.543701
v -2.008057 0.281727 -0.543701
v -2.007813 -0.001044 -0.128418
v -2.007813 0.281727 -0.128418
vt 0.065967 0.778564
vt 0.065714 0.560656
vt 0.295650 0.559535
vt 0.298300 0.780882
vt 0.315828 0.559813
vt 0.318357 0.775836
vt 0.547092 0.556853
vt 0.549642 0.775195
vt 0.024188 0.792939
vt 0.024025 0.560676
vt 0.049727 0.560658
vt 0.049874 0.793836
vt 0.572792 0.556555
vt 0.575345 0.775093
vt 0.060264 0.954860
vt 0.065842 0.794397
vt 0.297730 0.798865
vt 0.291069 0.962346
vt 0.318824 0.807301
vt 0.312473 0.964434
vt 0.549048 0.811450
vt 0.544976 0.972330
vt 0.018611 0.953401
vt 0.044297 0.954290
vt 0.574731 0.811947
vt 0.570682 0.972960
vt 0.052071 0.786361
vt 0.050001 0.778600
vt 0.024301 0.778646
vn -0.866003 0.000000 0.500039
vn -0.866003 0.000000 0.500039
vn -0.866003 0.000000 0.500039
vn -0.866003 0.000000 0.500039
vn 0.000000 1.000000 0.000000
vn 0.000000 1.000000 0.000000
vn 0.000000 1.000000 0.000000
vn 0.000000 1.000000 0.000000
vn 0.866003 0.000000 -0.500039
vn 0.866003 0.000000 -0.500039
vn 0.866003 0.000000 -0.500039
vn 0.866003 0.000000 -0.500039
vn -0.866047 0.000000 0.499963
vn -0.866047 0.000000 0.499963
vn -0.735593 0.527799 0.424653
vn -0.735367 0.528220 0.424522
vn 0.866003 0.000000 -0.500039
vn 0.866003 0.000000 -0.500039
vn 0.000000 1.000000 -0.000000
vn 0.000000 1.000000 -0.000000
vn 0.000000 0.000000 1.000000
vn 0.000000 0.000000 1.000000
vn 0.000000 0.000000 1.000000
vn 0.000000 0.000000 1.000000
vn 0.000000 1.000000 0.000000
vn 0.000000 1.000000 0.000000
vn 0.000000 1.000000 0.000000
vn 0.000000 1.000000 0.000000
vn 0.000000 0.000000 -1.000000
vn 0.000000 0.000000 -1.000000
vn 0.000000 0.000000 -1.000000
vn 0.000000 0.000000 -1.000000
vn 0.000000 0.000000 1.000000
vn 0.000000 0.000000 1.000000
vn 0.000000 0.528282 0.849069
vn 0.000000 0.527994 0.849248
vn 0.000000 0.000000 -1.000000
vn 0.000000 0.000000 -1.000000
vn 0.000000 1.000000 0.000000
vn 0.000000 1.000000 0.000000
vn -0.500324 0.000000 0.865838
vn -0.500324 0.000000 0.865838
vn -0.500324 0.000000 0.865838
vn -0.500324 0.000000 0.865838
vn 0.517649 0.000000 -0.855593
vn 0.517649 0.000000 -0.855593
vn 0.517649 0.000000 -0.855593
vn 0.517649 0.000000 -0.855593
vn 0.517649 0.000000 -0.855593
vn 0.517649 0.000000 -0.855593
vn 0.517649 0.000000 -0.855593
vn 0.517649 0.000000 -0.855593
vn 0.000000 1.000000 0.000000
vn 0.000000 1.000000 0.000000
vn 0.000000 1.000000 0.000000
vn 0.000000 1.000000 0.000000
vn 0.000000 1.000000 0.000000
vn 0.000000 1.000000 0.000000
vn 0.000000 1.000000 0.000000
s 1
g Walls30 Corner_45_deg_R
f 60/68/110 61/69/111 54/71/112
f 54/71/112 61/69/111 55/70/113
s 2
f 55/70/114 57/72/115 54/71/116
f 54/71/116 57/72/115 56/73/117
s 3
f 56/73/118 57/72/119 63/75/120
f 63/75/120 57/72/119 62/74/121
s 4
f 64/96/122 65/77/123 67/95/124
f 67/95/124 65/77/123 66/78/125
s 3
f 63/75/120 62/74/121 58/81/126
f 58/81/126 62/74/121 59/80/127
s 4
f 61/69/128 60/68/129 66/78/125
f 66/78/125 60/68/129 67/95/124
s 5
f 74/82/130 75/83/131 68/85/132
f 68/85/132 75/83/131 69/84/133
s 6
f 68/85/134 69/84/135 70/87/136
f 70/87/136 69/84/135 71/86/137
s 7
f 70/87/138 71/86/139 77/89/140
f 77/89/140 71/86/139 76/88/141
s 8
f 78/90/142 64/76/143 79/91/144
f 79/91/144 64/76/143 67/79/145
s 7
f 77/89/140 76/88/141 72/93/146
f 72/93/146 76/88/141 73/92/147
s 8
f 75/83/148 74/82/149 67/79/145
f 67/79/145 74/82/149 79/91/144
s 9
f 60/68/150 54/71/151 75/83/152
f 75/83/152 54/71/151 69/84/153
s 10
f 56/73/154 63/75/155 71/86/156
f 71/86/156 63/75/155 76/88/157
s 11
f 63/75/158 58/81/159 76/88/160
f 76/88/160 58/81/159 73/92/161
s 12
f 54/71/162 56/73/163 69/84/164
f 69/84/164 56/73/163 71/86/165
s off
f 67/94/166 60/68/167 75/83/168
g default
v 1.045897 2.828339 0.933777
v 1.049881 2.828339 -0.788330
v 0.802366 2.828339 0.929138
v 0.806229 2.828339 -0.788330
v 0.802366 0.000653 0.929138
v 0.806229 0.000653 -0.788330
v 1.049854 0.283424 0.914551
v 1.049881 0.283424 -0.788330
v 0.806229 0.283424 -0.788330
v 0.802366 0.283424 0.929138
v 1.225758 0.000653 0.914490
v 1.225662 0.000653 -0.788391
v 1.225662 0.283424 -0.788391
v 1.225758 0.283424 0.914490
v -0.906498 2.828339 1.164429
v 1.045895 2.828339 1.164490
v -0.906496 2.828339 0.929260
v -0.906496 0.000653 0.929260
v -0.906498 0.283424 1.164429
v 1.045895 0.283424 1.164490
v -0.906496 0.283424 0.929260
v -0.906528 0.000653 1.340271
v 1.045864 0.000653 1.340271
v 1.045864 0.283424 1.340271
v -0.906528 0.283424 1.340271
v 0.801022 2.828339 1.164490
v 0.801022 0.283424 1.164490
v 0.800991 0.283424 1.340271
v 0.800991 0.000653 1.340271
v 1.225704 0.000653 1.164001
v 1.225704 0.283424 1.164001
vt 0.660914 0.589661
vt 0.299784 0.041779
vt 0.299521 0.261752
vt 0.637674 0.880658
vt 0.299447 0.282812
vt 0.150995 0.282627
vt 0.299175 0.502787
vt 0.150724 0.502600
vt 0.672892 0.545063
vt 0.299839 0.002143
vt 0.299808 0.026585
vt 0.668682 0.574152
vt 0.299144 0.527229
vt 0.150693 0.527042
vt 0.150902 0.262284
vt 0.151148 0.042310
vt 0.634362 0.588458
vt 0.637369 0.856425
vt 0.151163 0.027116
vt 0.151191 0.002674
vt 0.621133 0.541664
vt 0.623919 0.571589
vt 0.003016 0.502420
vt 0.002987 0.526862
vt 0.003286 0.282446
vt 0.003310 0.262119
vt 0.003556 0.042145
vt 0.003571 0.026946
vt 0.003599 0.002504
vt 0.644680 0.570950
vt 0.647098 0.541821
vt 0.150696 0.527042
vt 0.600444 0.574986
vt 0.595762 0.544993
vt 0.608455 0.590216
vt 0.611650 0.856747
vt 0.152647 0.001957
vt 0.152616 0.026399
vt 0.152592 0.041603
vt 0.150668 0.261576
vt 0.661537 0.856164
vt 0.612101 0.881466
vn 1.000000 0.000000 0.000016
vn 0.999998 0.000964 0.001457
vn 0.999999 0.000586 0.000891
vn 0.999996 0.001537 0.002313
vn 0.000000 1.000000 0.000000
vn 0.000000 1.000000 -0.000000
vn 0.000000 1.000000 -0.000000
vn 0.000000 1.000000 -0.000000
vn -0.999998 0.000000 -0.002249
vn -0.999998 0.000000 -0.002249
vn -0.999997 0.000000 -0.002249
vn -0.999997 0.000000 -0.002249
vn 1.000000 0.000000 -0.000021
vn 1.000000 0.000000 -0.000056
vn 0.849088 0.528252 -0.000018
vn 0.849312 0.527891 -0.000048
vn -0.999997 0.000000 -0.002249
vn -0.999997 0.000000 -0.002249
vn 0.000000 1.000000 0.000000
vn 0.000000 1.000000 0.000000
vn -0.000031 0.000000 1.000000
vn -0.000031 0.000000 1.000000
vn 0.000000 0.000000 1.000000
vn 0.000000 0.000000 1.000000
vn 0.000000 1.000000 0.000000
vn 0.000000 1.000000 -0.000000
vn 0.000000 1.000000 -0.000001
vn 0.000000 1.000000 -0.000002
vn 0.000000 0.527976 0.849259
vn 0.000000 0.000000 1.000000
vn 0.349023 0.413492 0.840956
vn 0.383328 0.000000 0.923612
vn 0.000000 1.000000 0.000000
vn 0.000000 1.000000 0.000000
vn -0.000071 0.000000 -1.000000
vn -0.000071 0.000000 -1.000000
vn -0.000071 0.000000 -1.000000
vn -0.000071 0.000000 -1.000000
vn -0.000071 0.000000 -1.000000
vn -0.000071 0.000000 -1.000000
vn 0.000000 1.000000 0.000001
vn 0.000000 1.000000 0.000001
vn -0.000036 0.000000 1.000000
vn -0.000036 0.000000 1.000000
vn 0.000000 0.528026 0.849229
vn 0.000000 1.000000 0.000000
vn 0.000000 0.000000 1.000000
vn 0.999874 0.001435 0.015840
vn 0.999999 0.000096 0.001071
vn 0.999887 0.001358 0.014996
vn 1.000000 0.000000 0.000012
vn 0.921157 0.000000 0.389191
vn 0.836774 0.418114 0.353539
vn 0.000000 1.000000 0.000000
vn 0.000000 1.000000 0.000000
vn 0.000000 1.000000 -0.000000
s 1
g Walls30 Wall_Outer_Corner
f 87/98/169 81/99/170 86/135/171
f 86/135/171 81/99/170 80/136/172
s 2
f 80/136/173 81/99/174 82/102/175
f 82/102/175 81/99/174 83/101/176
s 3
f 82/102/177 83/101/178 89/104/179
f 89/104/179 83/101/178 88/103/180
s 4
f 90/133/181 91/106/182 93/134/183
f 93/134/183 91/106/182 92/107/184
s 3
f 89/104/179 88/103/180 84/110/185
f 84/110/185 88/103/180 85/109/186
s 4
f 87/98/187 86/135/188 92/107/184
f 92/107/184 86/135/188 93/134/183
s 5
f 105/132/189 106/131/190 95/114/191
f 95/114/191 106/131/190 99/113/192
s 6
f 82/138/193 105/132/194 80/100/195
f 80/100/195 105/132/194 95/114/196
s 4
f 107/129/197 108/130/198 103/118/199
f 103/118/199 108/130/198 102/117/200
f 99/113/201 106/131/202 103/118/199
f 103/118/199 106/131/202 107/129/197
s 8
f 100/119/203 89/104/204 97/120/205
f 97/120/205 89/104/204 84/128/206
f 96/121/207 82/102/208 100/119/203
f 100/119/203 82/102/208 89/104/204
s 6
f 94/122/209 105/111/194 96/121/210
f 96/121/210 105/111/194 82/102/193
s 5
f 98/123/211 106/112/190 94/122/212
f 94/122/212 106/112/190 105/111/189
s 4
f 107/115/197 106/112/202 104/124/213
f 104/124/213 106/112/202 98/123/214
f 101/125/215 108/116/198 104/124/213
f 104/124/213 108/116/198 107/115/197
s 9
f 86/97/216 80/137/217 99/113/218
f 99/113/218 80/137/217 95/114/219
s 4
f 90/105/181 93/108/183 109/127/220
f 109/127/220 93/108/183 110/126/221
f 99/113/222 110/126/221 86/97/223
f 86/97/223 110/126/221 93/108/183
f 103/118/199 102/117/200 110/126/221
f 110/126/221 102/117/200 109/127/220
f 103/118/199 110/126/221 99/113/224
g default
v 0.761719 2.827637 0.468445
v 0.752441 -0.000060 0.464844
v 0.752441 0.282711 0.464844
v 0.447266 2.827637 0.468445
v 0.447266 -0.000060 0.468445
v 0.447266 0.282711 0.468445
v 0.434082 0.021016 0.130981
v 0.434082 0.303787 0.130981
v 0.447266 2.827637 0.144958
v 0.761719 2.827637 0.231934
v 0.680298 2.827637 0.144958
v 0.761719 0.306271 0.231964
v 0.680298 0.306271 0.144958
v 0.817261 0.271633 0.179962
v 0.736084 0.271633 0.092926
vt 0.808169 0.563455
vt 0.778140 0.564535
vt 0.778802 0.539434
vt 0.808830 0.538353
vt 0.802213 0.789367
vt 0.773497 0.788613
vt 0.830127 0.790103
vt 0.780485 0.816730
vt 0.772954 0.809300
vt 0.835261 0.564169
vt 0.835923 0.539067
vt 0.623236 0.976115
vt 0.615704 0.968683
vt 0.618021 0.981399
vt 0.610487 0.973987
vt 0.801480 0.817281
vn -0.999337 0.000353 0.036398
vn -0.999238 0.000000 0.039037
vn -0.999238 0.000000 0.039037
vn -0.999238 0.000000 0.039037
vn -0.999986 0.005224 0.000000
vn -0.999983 0.004760 0.003465
vn 0.000000 1.000000 0.000000
vn 0.000000 1.000000 0.000000
vn 0.000000 1.000000 0.000000
vn 0.011799 -0.001458 0.999929
vn 0.000874 -0.000108 1.000000
vn 0.010850 -0.001341 0.999940
vn 0.000000 0.000000 1.000000
vn 0.011799 0.000000 0.999930
vn 0.011799 0.000000 0.999930
vn 0.011799 0.000000 0.999930
vn 0.011799 0.000000 0.999930
vn 0.730032 0.000000 -0.683413
vn 0.730036 -0.000000 -0.683409
vn 0.730148 -0.000008 -0.683289
vn 0.730152 -0.000008 -0.683285
vn 0.301867 0.910536 -0.282491
vn 0.302554 0.910288 -0.282555
vn 0.302305 0.910378 -0.282532
vn 0.302995 0.910128 -0.282596
vn 0.000000 1.000000 0.000000
vn 0.000000 1.000000 0.000000
s 1
g Walls30 Wall_Multy_Inner_Corner
f 118/140/225 117/141/226 116/139/227
f 116/139/227 117/141/226 115/142/228
f 119/144/229 118/140/225 114/143/230
f 114/143/230 118/140/225 116/139/227
s 2
f 111/154/231 120/146/232 114/143/233
s 3
f 113/148/234 111/145/235 116/139/236
f 116/139/236 111/145/235 114/143/237
s 4
f 112/149/238 113/148/239 115/142/240
f 115/142/240 113/148/239 116/139/241
s 5
f 121/147/242 120/146/243 123/151/244
f 123/151/244 120/146/243 122/150/245
s 6
f 123/151/246 122/150/247 125/153/248
f 125/153/248 122/150/247 124/152/249
s 2
f 114/143/233 120/146/232 121/147/250
f 114/143/233 121/147/250 119/144/251
g default
v -0.363953 2.827240 0.468506
v -0.363953 2.827240 0.235413
v -0.363953 0.282711 0.468750
v -0.364014 -0.000060 0.644592
v -0.364014 0.282711 0.644592
v -0.736633 2.827637 0.468506
v -0.736633 0.282711 0.464783
v -0.912354 -0.000060 0.464844
v -0.912354 0.282711 0.464844
v -0.736633 2.827637 0.235413
v -0.736633 0.282711 0.235413
v -0.912354 0.282711 0.235474
v -0.912354 -0.000060 0.235474
v -0.736145 -0.000060 0.644592
v -0.736145 0.282711 0.644592
vt 0.883418 0.810197
vt 0.869281 0.572433
vt 0.889081 0.571574
vt 0.883911 0.790222
vt 0.915313 0.810931
vt 0.915749 0.790970
vt 0.861955 0.560899
vt 0.857451 0.536595
vt 0.876706 0.533551
vt 0.879770 0.557958
vt 0.921409 0.573755
vt 0.928808 0.536085
vt 0.925830 0.559863
vt 0.896276 0.557059
vt 0.897672 0.533120
vt 0.863944 0.789743
vn -1.000000 0.000000 0.000000
vn -1.000000 0.000000 0.000000
vn -1.000000 0.000000 0.000000
vn -1.000000 0.000000 0.000000
vn 0.001065 0.999999 0.000000
vn 0.001065 0.999999 0.000000
vn 0.001065 0.999999 0.000000
vn 0.001065 0.999999 0.000000
vn -0.849309 0.527896 0.000000
vn -1.000000 0.000000 0.000000
vn -0.838488 0.408065 0.361139
vn -0.918435 0.000000 0.395572
vn 0.000000 1.000000 0.000000
vn 0.000000 1.000000 0.000000
vn -0.010645 0.000096 0.999943
vn -0.000986 -0.001319 0.999999
vn -0.009659 -0.000048 0.999953
vn -0.000002 -0.001463 0.999999
vn 0.000000 0.000000 1.000000
vn 0.000000 0.528160 0.849145
vn -0.311496 0.000000 0.950248
vn -0.278172 0.450015 0.848591
vn 0.000000 1.000000 0.000000
vn 0.000000 1.000000 0.000000
vn 0.000000 1.000000 0.000000
s 1
g Walls30 Wall_Multy_Outer_Corner
f 135/170/252 136/156/253 131/158/254
f 131/158/254 136/156/253 132/157/255
s 2
f 127/159/256 135/155/257 126/160/258
f 126/160/258 135/155/257 131/158/259
s 3
f 137/161/260 138/162/261 134/164/262
f 134/164/262 138/162/261 133/163/263
f 132/157/264 136/156/265 134/164/262
f 134/164/262 136/156/265 137/161/260
s 4
f 128/165/266 126/160/267 132/157/268
f 132/157/268 126/160/267 131/158/269
s 3
f 129/166/270 130/167/271 139/169/272
f 139/169/272 130/167/271 140/168/273
f 132/157/274 140/168/273 128/165/275
f 128/165/275 140/168/273 130/167/271
f 134/164/262 133/163/263 140/168/273
f 140/168/273 133/163/263 139/169/272
f 134/164/262 140/168/273 132/157/276
