# This file uses centimeters as units for non-parametric coordinates.

g default
v 1.580083 1.865022 0.196352
v 1.580083 1.915498 0.196352
v 1.623784 1.940736 0.196352
v 1.667486 1.915498 0.196352
v 1.667486 1.865022 0.196352
v 1.623784 1.839799 0.196352
v 1.523931 1.856142 0.284486
v 1.512517 1.904893 0.291078
v 1.528753 1.929262 0.332094
v 1.556280 1.904893 0.366762
v 1.567571 1.856142 0.360170
v 1.551397 1.831758 0.318910
v 1.134875 0.214640 0.320025
v 1.182749 0.230001 0.324103
v 1.212457 0.210465 0.360209
v 1.194190 0.175425 0.391524
v 1.146316 0.159944 0.386971
v 1.116686 0.179537 0.351350
v 1.286687 1.789979 0.333070
v 1.295659 1.805910 0.378236
v 1.330633 1.790956 0.408510
v 1.356573 1.760057 0.393617
v 1.347600 1.744127 0.348451
v 1.312627 1.759080 0.318178
v 1.177129 1.512331 0.282045
v 1.153570 1.517221 0.326234
v 1.179204 1.514436 0.369447
v 1.228399 1.506769 0.368471
v 1.251897 1.501878 0.324281
v 1.226323 1.504655 0.281068
v 1.177740 0.821847 0.250795
v 1.153203 0.818826 0.294740
v 1.178533 0.823091 0.338197
v 1.228338 0.830377 0.337465
v 1.252813 0.833398 0.293519
v 1.227483 0.829134 0.250062
v 1.173526 0.084273 0.170115
v 1.252220 0.109833 0.177757
v 1.208589 0.217961 0.273107
v 1.129783 0.192571 0.265935
v 1.301049 0.077588 0.236805
v 1.257342 0.185666 0.331921
v 1.271080 0.019864 0.288451
v 1.227509 0.127975 0.383801
v 1.192353 -0.005705 0.280813
v 1.148605 0.102575 0.376638
v 1.143537 0.026711 0.222225
v 1.099775 0.134936 0.317813
v 1.112746 0.315467 0.367846
v 1.095704 0.314991 0.410681
v 1.127831 0.311632 0.447583
v 1.177051 0.308785 0.441801
v 1.194133 0.309211 0.398993
v 1.161862 0.312373 0.361780
v 1.134487 0.448282 0.331244
v 1.116356 0.472899 0.366803
v 1.147538 0.490946 0.400202
v 1.196865 0.484404 0.398066
v 1.215005 0.459771 0.362539
v 1.183719 0.441498 0.329016
v -1.533829 1.865022 0.195274
v -1.533829 1.915498 0.195274
v -1.577531 1.940736 0.195274
v -1.621232 1.915498 0.195274
v -1.621232 1.865022 0.195274
v -1.577531 1.839799 0.195274
v -1.539872 2.120195 0.162803
v -1.539872 2.170671 0.162803
v -1.582047 2.195909 0.174034
v -1.624223 2.170671 0.185508
v -1.624223 2.120195 0.185508
v -1.582047 2.094957 0.174034
v 1.626769 2.120195 0.199913
v 1.626769 2.170671 0.199913
v 1.670516 2.195909 0.199913
v 1.714195 2.170671 0.199913
v 1.714195 2.120195 0.199913
v 1.670516 2.094957 0.199913
v -1.000626 2.120195 0.216270
v -1.000626 2.170671 0.216270
v -1.000626 2.195909 0.259971
v -1.000626 2.170671 0.303673
v -1.000626 2.120195 0.303673
v -1.000626 2.094957 0.259971
v -0.717789 2.120195 0.216270
v -0.717789 2.170671 0.216270
v -0.717789 2.195909 0.259971
v -0.717789 2.170671 0.303673
v -0.717789 2.120195 0.303673
v -0.717789 2.094957 0.259971
v -0.972916 2.098405 0.178428
v -0.972916 2.192461 0.178428
v -0.745499 2.192461 0.178428
v -0.745499 2.098405 0.178428
v -0.972916 2.239503 0.259971
v -0.745499 2.239503 0.259971
v -0.972916 2.192461 0.341514
v -0.745499 2.192461 0.341514
v -0.972916 2.098405 0.341514
v -0.745499 2.098405 0.341514
v -0.972916 2.051378 0.259971
v -0.745499 2.051378 0.259971
v -1.477677 1.856142 0.283409
v -1.466264 1.904893 0.290001
v -1.482499 1.929262 0.331016
v -1.510026 1.904893 0.365684
v -1.521317 1.856142 0.359092
v -1.505143 1.831758 0.317833
v -1.088621 0.214640 0.318947
v -1.136495 0.230001 0.323025
v -1.166203 0.210465 0.359132
v -1.147937 0.175425 0.390446
v -1.100062 0.159944 0.385894
v -1.070432 0.179537 0.350273
v -1.240433 1.789979 0.331993
v -1.249406 1.805910 0.377159
v -1.284379 1.790956 0.407432
v -1.310319 1.760057 0.392540
v -1.301347 1.744127 0.347374
v -1.266373 1.759080 0.317100
v -1.130875 1.512331 0.280967
v -1.107316 1.517221 0.325157
v -1.132951 1.514436 0.368370
v -1.182145 1.506769 0.367393
v -1.205643 1.501878 0.323204
v -1.180070 1.504655 0.279991
v -1.131486 0.821847 0.249717
v -1.106950 0.818826 0.293663
v -1.132279 0.823091 0.337120
v -1.182084 0.830377 0.336387
v -1.206559 0.833398 0.292442
v -1.181229 0.829134 0.248985
v -1.127272 0.084273 0.169037
v -1.205966 0.109833 0.176679
v -1.162335 0.217961 0.272030
v -1.083529 0.192571 0.264857
v -1.254796 0.077588 0.235728
v -1.211089 0.185666 0.330843
v -1.224827 0.019864 0.287373
v -1.181255 0.127975 0.382724
v -1.146099 -0.005705 0.279736
v -1.102351 0.102575 0.375561
v -1.097284 0.026711 0.221148
v -1.053521 0.134936 0.316735
v -1.296220 2.120195 0.306602
v -1.296220 2.170671 0.306602
v -1.296220 2.195909 0.350303
v -1.296220 2.170671 0.394005
v -1.296220 2.120195 0.394005
v -1.296220 2.094957 0.350303
v -1.495621 2.120195 0.284141
v -1.495621 2.170671 0.284141
v -1.526505 2.195909 0.314903
v -1.557389 2.170671 0.345909
v -1.557389 2.120195 0.345909
v -1.526505 2.094957 0.314903
v 1.336517 2.120195 0.307579
v 1.336517 2.170671 0.307579
v 1.347732 2.195909 0.349815
v 1.359084 2.170671 0.392051
v 1.359084 2.120195 0.392051
v 1.347732 2.094957 0.349815
v 1.519134 2.120195 0.290977
v 1.519134 2.170671 0.290977
v 1.550033 2.195909 0.321983
v 1.580947 2.170671 0.352745
v 1.580947 2.120195 0.352745
v 1.550033 2.094957 0.321983
v 1.011245 2.120195 0.214317
v 1.011245 2.170671 0.214317
v 1.020675 2.195909 0.256798
v 1.030227 2.170671 0.299278
v 1.030227 2.120195 0.299278
v 1.020675 2.094957 0.256798
v -1.066492 0.315467 0.366768
v -1.049450 0.314991 0.409604
v -1.081577 0.311632 0.446506
v -1.130797 0.308785 0.440724
v -1.147879 0.309211 0.397916
v -1.115608 0.312373 0.360703
v -1.088233 0.448282 0.330167
v -1.070102 0.472899 0.365726
v -1.101284 0.490946 0.399124
v -1.150611 0.484404 0.396989
v -1.168751 0.459771 0.361461
v -1.137465 0.441498 0.327939
vt 0.375000 0.312500
vt 0.375000 0.338816
vt 0.416667 0.338816
vt 0.416667 0.312500
vt 0.458333 0.338816
vt 0.458333 0.312500
vt 0.500000 0.338816
vt 0.500000 0.312500
vt 0.541667 0.338816
vt 0.541667 0.312500
vt 0.583333 0.338816
vt 0.583333 0.312500
vt 0.625000 0.338816
vt 0.625000 0.312500
vt 0.375000 0.312500
vt 0.375000 0.338816
vt 0.416667 0.338816
vt 0.416667 0.312500
vt 0.458333 0.338816
vt 0.458333 0.312500
vt 0.500000 0.338816
vt 0.500000 0.312500
vt 0.541667 0.338816
vt 0.541667 0.312500
vt 0.583333 0.338816
vt 0.583333 0.312500
vt 0.625000 0.338816
vt 0.625000 0.312500
vt 0.614583 0.338816
vt 0.625000 0.338816
vt 0.583333 0.338816
vt 0.577083 0.338816
vt 0.541667 0.338816
vt 0.539583 0.338816
vt 0.500000 0.338816
vt 0.502083 0.338816
vt 0.458333 0.338816
vt 0.464583 0.338816
vt 0.416667 0.338816
vt 0.427083 0.338816
vt 0.414583 0.338816
vt 0.375000 0.338816
vt 0.377083 0.338816
vt 0.468750 0.338816
vt 0.489583 0.338816
vt 0.510417 0.338816
vt 0.531250 0.338816
vt 0.552083 0.338816
vt 0.572917 0.338816
vt 0.385417 0.338816
vt 0.406250 0.338816
vt 0.520833 0.338816
vt 0.520833 0.338816
vt 0.520833 0.338816
vt 0.520833 0.338816
vt 0.520833 0.338816
vt 0.520833 0.338816
vt 0.395833 0.338816
vt 0.395833 0.338816
vt 0.572917 0.338816
vt 0.552083 0.338816
vt 0.531250 0.338816
vt 0.510417 0.338816
vt 0.489583 0.338816
vt 0.468750 0.338816
vt 0.406250 0.338816
vt 0.385417 0.338816
vt 0.602083 0.338816
vt 0.569583 0.338816
vt 0.537083 0.338816
vt 0.504583 0.338816
vt 0.472083 0.338816
vt 0.439583 0.338816
vt 0.412083 0.338816
vt 0.379583 0.338816
vt 0.375000 0.647838
vt 0.416667 0.647838
vt 0.416667 0.688440
vt 0.375000 0.688440
vt 0.458333 0.647838
vt 0.458333 0.688440
vt 0.500000 0.647838
vt 0.500000 0.688440
vt 0.541667 0.647838
vt 0.541667 0.688440
vt 0.583333 0.647838
vt 0.583333 0.688440
vt 0.625000 0.647838
vt 0.625000 0.688440
vt 0.375000 0.365132
vt 0.416667 0.365132
vt 0.416667 0.387688
vt 0.375000 0.387688
vt 0.458333 0.365132
vt 0.458333 0.387688
vt 0.500000 0.365132
vt 0.500000 0.387688
vt 0.541667 0.365132
vt 0.541667 0.387688
vt 0.583333 0.365132
vt 0.583333 0.387688
vt 0.625000 0.365132
vt 0.625000 0.387688
vt 0.375000 0.387688
vt 0.416667 0.387688
vt 0.416667 0.417763
vt 0.375000 0.417763
vt 0.458333 0.387688
vt 0.458333 0.417763
vt 0.500000 0.387688
vt 0.500000 0.417763
vt 0.541667 0.387688
vt 0.541667 0.417763
vt 0.583333 0.387688
vt 0.583333 0.417763
vt 0.625000 0.387688
vt 0.625000 0.417763
vt 0.416667 0.417763
vt 0.375000 0.417763
vt 0.458333 0.417763
vt 0.500000 0.417763
vt 0.541667 0.417763
vt 0.583333 0.417763
vt 0.625000 0.417763
vt 0.375000 0.312500
vt 0.416667 0.312500
vt 0.416667 0.338816
vt 0.375000 0.338816
vt 0.458333 0.312500
vt 0.458333 0.338816
vt 0.500000 0.312500
vt 0.500000 0.338816
vt 0.541667 0.312500
vt 0.541667 0.338816
vt 0.583333 0.312500
vt 0.583333 0.338816
vt 0.625000 0.312500
vt 0.625000 0.338816
vt 0.375000 0.312500
vt 0.416667 0.312500
vt 0.416667 0.338816
vt 0.375000 0.338816
vt 0.458333 0.312500
vt 0.458333 0.338816
vt 0.500000 0.312500
vt 0.500000 0.338816
vt 0.541667 0.312500
vt 0.541667 0.338816
vt 0.583333 0.312500
vt 0.583333 0.338816
vt 0.625000 0.312500
vt 0.625000 0.338816
vt 0.614583 0.338816
vt 0.577083 0.338816
vt 0.583333 0.338816
vt 0.625000 0.338816
vt 0.539583 0.338816
vt 0.541667 0.338816
vt 0.502083 0.338816
vt 0.500000 0.338816
vt 0.464583 0.338816
vt 0.458333 0.338816
vt 0.427083 0.338816
vt 0.416667 0.338816
vt 0.414583 0.338816
vt 0.377083 0.338816
vt 0.375000 0.338816
vt 0.489583 0.338816
vt 0.468750 0.338816
vt 0.510417 0.338816
vt 0.531250 0.338816
vt 0.552083 0.338816
vt 0.572917 0.338816
vt 0.406250 0.338816
vt 0.385417 0.338816
vt 0.520833 0.338816
vt 0.520833 0.338816
vt 0.520833 0.338816
vt 0.520833 0.338816
vt 0.520833 0.338816
vt 0.520833 0.338816
vt 0.395833 0.338816
vt 0.395833 0.338816
vt 0.552083 0.338816
vt 0.572917 0.338816
vt 0.531250 0.338816
vt 0.510417 0.338816
vt 0.489583 0.338816
vt 0.468750 0.338816
vt 0.385417 0.338816
vt 0.406250 0.338816
vt 0.375000 0.333553
vt 0.416667 0.333553
vt 0.458333 0.333553
vt 0.500000 0.333553
vt 0.541667 0.333553
vt 0.583333 0.333553
vt 0.625000 0.333553
vt 0.375000 0.312500
vt 0.416667 0.312500
vt 0.458333 0.312500
vt 0.500000 0.312500
vt 0.541667 0.312500
vt 0.583333 0.312500
vt 0.625000 0.312500
vt 0.375000 0.577238
vt 0.416667 0.577238
vt 0.416667 0.607237
vt 0.375000 0.607237
vt 0.458333 0.577238
vt 0.458333 0.607237
vt 0.500000 0.577238
vt 0.500000 0.607237
vt 0.541667 0.577238
vt 0.541667 0.607237
vt 0.583333 0.577238
vt 0.583333 0.607237
vt 0.625000 0.577238
vt 0.625000 0.607237
vt 0.602083 0.338816
vt 0.569583 0.338816
vt 0.537083 0.338816
vt 0.504583 0.338816
vt 0.472083 0.338816
vt 0.439583 0.338816
vt 0.412083 0.338816
vt 0.379583 0.338816
vn -0.676141 -0.554652 -0.484969
vn -0.278116 -0.438399 -0.854668
vn -0.544958 0.630521 -0.552687
vn -0.707434 0.556496 -0.435717
vn -0.182448 0.942427 0.280258
vn 0.203955 0.956736 0.207504
vn 0.342805 0.449166 0.825067
vn 0.755977 0.405565 0.513825
vn 0.594481 -0.401588 0.696649
vn 0.825143 -0.263046 0.499946
vn 0.337558 -0.940578 -0.036979
vn 0.257908 -0.961897 0.090766
vn -0.588000 0.389005 -0.709176
vn -0.618119 0.469956 -0.630136
vn 0.323581 0.774191 -0.543988
vn 0.359177 0.694938 -0.622939
vn 0.907541 0.388338 0.159886
vn 0.948038 0.305960 0.087250
vn 0.549361 -0.303031 0.778701
vn 0.586116 -0.390116 0.710125
vn -0.391267 -0.606891 0.691804
vn -0.360411 -0.695250 0.621878
vn -0.975454 -0.219831 -0.012821
vn -0.948082 -0.305705 -0.087662
vn -0.684550 0.022647 -0.728614
vn -0.703717 0.466168 -0.536162
vn -0.962053 -0.080836 0.260613
vn -0.961921 -0.008353 0.273201
vn -0.432479 -0.304545 0.848655
vn -0.387547 -0.028561 0.921407
vn 0.369067 -0.134527 0.919615
vn 0.453132 -0.038746 0.890601
vn 0.880208 0.406322 0.245226
vn 0.999853 -0.007349 0.015467
vn 0.309272 0.763057 -0.567534
vn 0.388635 0.034245 -0.920755
vn -0.616722 0.509057 -0.600429
vn -0.704796 0.652015 0.279531
vn -0.251468 0.286143 0.924601
vn 0.412985 -0.441191 0.796739
vn 0.718870 -0.648131 -0.251303
vn 0.149026 -0.063556 -0.986789
vn -0.594173 0.128415 -0.794020
vn -0.989629 0.115891 0.084873
vn -0.510301 0.009868 0.859939
vn 0.491768 -0.125096 0.861693
vn 0.992779 -0.094047 -0.074472
vn 0.423413 0.038283 -0.905127
vn -0.503481 -0.027107 -0.863581
vn -0.999357 0.034698 -0.008999
vn -0.500244 0.049155 0.864488
vn 0.528878 0.001724 0.848696
vn 0.997039 -0.039534 -0.065957
vn 0.461451 -0.049551 -0.885781
vn -0.497254 -0.131929 -0.857516
vn -0.991938 0.122328 0.033105
vn -0.429666 0.229306 0.873387
vn 0.555044 0.110089 0.824504
vn 0.981064 -0.138293 -0.135607
vn 0.401430 -0.243066 -0.883048
vn -0.291421 -0.525146 -0.799560
vn -0.291421 0.525146 -0.799560
vn -0.554980 0.546206 -0.627421
vn -0.554980 -0.546206 -0.627420
vn 0.053564 0.987261 0.149824
vn 0.237446 0.950009 0.202738
vn 0.442611 0.405574 0.799753
vn 0.711611 0.314401 0.628302
vn 0.442611 -0.405574 0.799754
vn 0.711610 -0.314401 0.628302
vn 0.053564 -0.987260 0.149828
vn 0.237447 -0.950008 0.202739
vn -0.114144 -0.516485 -0.848655
vn -0.114144 0.516485 -0.848655
vn -0.430566 0.417157 -0.800370
vn -0.430548 -0.417165 -0.800376
vn 0.006064 0.995531 0.094246
vn -0.246390 0.966062 -0.077567
vn 0.069321 0.440537 0.895054
vn 0.007058 0.532076 0.846667
vn 0.069321 -0.440537 0.895054
vn 0.007083 -0.532079 0.846665
vn 0.006064 -0.995531 0.094245
vn -0.246338 -0.966075 -0.077569
vn -0.099296 -0.497893 -0.861535
vn -0.099303 0.497855 -0.861557
vn 0.099303 0.497855 -0.861557
vn 0.099296 -0.497893 -0.861535
vn -0.099219 0.995066 0.000000
vn 0.099219 0.995066 -0.000000
vn -0.099303 0.497855 0.861557
vn 0.099303 0.497855 0.861557
vn -0.099296 -0.497893 0.861535
vn 0.099296 -0.497893 0.861535
vn -0.099209 -0.995067 -0.000000
vn 0.099209 -0.995067 0.000000
vn 0.043860 0.495185 -0.867680
vn 0.043855 -0.495187 -0.867679
vn 0.045375 0.998968 0.002120
vn 0.046616 0.493346 0.868583
vn 0.046611 -0.493347 0.868583
vn 0.045364 -0.998968 0.002122
vn 0.676141 -0.554652 -0.484969
vn 0.707434 0.556496 -0.435717
vn 0.544958 0.630521 -0.552688
vn 0.278116 -0.438399 -0.854668
vn -0.203955 0.956736 0.207504
vn 0.182448 0.942427 0.280258
vn -0.755977 0.405565 0.513825
vn -0.342805 0.449165 0.825067
vn -0.825143 -0.263046 0.499946
vn -0.594481 -0.401588 0.696649
vn -0.257908 -0.961896 0.090766
vn -0.337558 -0.940578 -0.036978
vn 0.588000 0.389006 -0.709176
vn -0.359177 0.694938 -0.622939
vn -0.323581 0.774191 -0.543988
vn 0.618118 0.469956 -0.630135
vn -0.948038 0.305960 0.087250
vn -0.907541 0.388337 0.159886
vn -0.586116 -0.390116 0.710125
vn -0.549361 -0.303031 0.778701
vn 0.360411 -0.695250 0.621878
vn 0.391267 -0.606891 0.691804
vn 0.948082 -0.305705 -0.087663
vn 0.975454 -0.219831 -0.012821
vn 0.684549 0.022647 -0.728615
vn 0.961921 -0.008353 0.273201
vn 0.962053 -0.080836 0.260613
vn 0.703717 0.466168 -0.536162
vn 0.387547 -0.028561 0.921407
vn 0.432480 -0.304544 0.848654
vn -0.453132 -0.038745 0.890601
vn -0.369067 -0.134527 0.919615
vn -0.999853 -0.007349 0.015467
vn -0.880208 0.406322 0.245226
vn -0.388635 0.034245 -0.920755
vn -0.309272 0.763057 -0.567535
vn 0.704797 0.652016 0.279531
vn 0.616722 0.509057 -0.600429
vn 0.251468 0.286143 0.924601
vn -0.412985 -0.441191 0.796740
vn -0.718870 -0.648131 -0.251302
vn -0.149026 -0.063557 -0.986789
vn 0.989629 0.115891 0.084873
vn 0.594173 0.128415 -0.794020
vn 0.510301 0.009868 0.859939
vn -0.491768 -0.125096 0.861693
vn -0.992779 -0.094047 -0.074472
vn -0.423413 0.038283 -0.905127
vn 0.999357 0.034698 -0.008999
vn 0.503481 -0.027107 -0.863581
vn 0.500244 0.049155 0.864488
vn -0.528878 0.001724 0.848696
vn -0.997039 -0.039534 -0.065957
vn -0.461451 -0.049551 -0.885781
vn 0.399498 -0.606300 -0.687605
vn 0.399498 0.606300 -0.687606
vn -0.093718 0.979938 0.175896
vn -0.494445 0.415908 0.763246
vn -0.494445 -0.415908 0.763246
vn -0.093718 -0.979938 0.175895
vn 0.804644 -0.513518 -0.298073
vn 0.804644 0.513518 -0.298072
vn -0.073364 0.996654 0.036038
vn -0.825843 0.448751 0.341476
vn -0.825843 -0.448751 0.341476
vn -0.073363 -0.996654 0.036038
vn 0.033961 -0.505421 -0.862204
vn 0.033961 0.505420 -0.862205
vn 0.135064 0.494607 -0.858558
vn 0.135064 -0.494606 -0.858558
vn 0.007544 0.999324 0.035995
vn -0.028078 0.993385 0.111344
vn -0.042049 0.471752 0.880728
vn -0.080070 0.415352 0.906130
vn -0.042049 -0.471752 0.880728
vn -0.080069 -0.415351 0.906130
vn 0.007544 -0.999324 0.035996
vn -0.028078 -0.993385 0.111346
vn 0.497254 -0.131929 -0.857516
vn 0.991938 0.122328 0.033106
vn 0.429666 0.229306 0.873387
vn -0.555044 0.110089 0.824504
vn -0.981064 -0.138294 -0.135606
vn -0.401429 -0.243066 -0.883048
s 1
g Pipes_go_In_Door
f 1/1/1 7/2/2 8/3/3 2/4/4
f 2/4/4 8/3/3 9/5/5 3/6/6
f 3/6/6 9/5/5 10/7/7 4/8/8
f 4/8/8 10/7/7 11/9/9 5/10/10
f 5/10/10 11/9/9 12/11/11 6/12/12
f 6/12/12 12/11/11 7/13/2 1/14/1
f 37/15/13 40/16/14 39/17/15 38/18/16
f 38/18/16 39/17/15 42/19/17 41/20/18
f 41/20/18 42/19/17 44/21/19 43/22/20
f 43/22/20 44/21/19 46/23/21 45/24/22
f 45/24/22 46/23/21 48/25/23 47/26/24
f 47/26/24 48/25/23 40/27/14 37/28/13
f 49/29/25 13/30/26 18/31/27 50/32/28
f 50/32/28 18/31/27 17/33/29 51/34/30
f 51/34/30 17/33/29 16/35/31 52/36/32
f 52/36/32 16/35/31 15/37/33 53/38/34
f 53/38/34 15/37/33 14/39/35 54/40/36
f 54/41/36 14/39/35 13/42/26 49/43/25
f 8/3/3 19/44/37 20/45/38 9/5/5
f 9/5/5 20/45/38 21/46/39 10/7/7
f 10/7/7 21/46/39 22/47/40 11/9/9
f 11/9/9 22/47/40 23/48/41 12/11/11
f 12/11/11 23/48/41 24/49/42 7/13/2
f 7/2/2 24/50/42 19/51/37 8/3/3
f 19/44/37 25/52/43 26/53/44 20/45/38
f 20/45/38 26/53/44 27/54/45 21/46/39
f 21/46/39 27/54/45 28/55/46 22/47/40
f 22/47/40 28/55/46 29/56/47 23/48/41
f 23/48/41 29/56/47 30/57/48 24/49/42
f 24/50/42 30/58/48 25/59/43 19/51/37
f 25/52/43 31/60/49 32/61/50 26/53/44
f 26/53/44 32/61/50 33/62/51 27/54/45
f 27/54/45 33/62/51 34/63/52 28/55/46
f 28/55/46 34/63/52 35/64/53 29/56/47
f 29/56/47 35/64/53 36/65/54 30/57/48
f 30/58/48 36/66/54 31/67/49 25/59/43
f 14/39/35 39/17/15 40/16/14 13/42/26
f 15/37/33 42/19/17 39/17/15 14/39/35
f 16/35/31 44/21/19 42/19/17 15/37/33
f 17/33/29 46/23/21 44/21/19 16/35/31
f 18/31/27 48/25/23 46/23/21 17/33/29
f 13/30/26 40/27/14 48/25/23 18/31/27
f 55/68/55 49/29/25 50/32/28 56/69/56
f 56/69/56 50/32/28 51/34/30 57/70/57
f 57/70/57 51/34/30 52/36/32 58/71/58
f 58/71/58 52/36/32 53/38/34 59/72/59
f 59/72/59 53/38/34 54/40/36 60/73/60
f 60/74/60 54/41/36 49/43/25 55/75/55
f 31/60/49 55/68/55 56/69/56 32/61/50
f 32/61/50 56/69/56 57/70/57 33/62/51
f 33/62/51 57/70/57 58/71/58 34/63/52
f 34/63/52 58/71/58 59/72/59 35/64/53
f 35/64/53 59/72/59 60/73/60 36/65/54
f 36/66/54 60/74/60 55/75/55 31/67/49
s 4
f 163/76/61 164/77/62 74/78/63 73/79/64
f 164/77/62 165/80/65 75/81/66 74/78/63
f 165/80/65 166/82/67 76/83/68 75/81/66
f 166/82/67 167/84/69 77/85/70 76/83/68
f 167/84/69 168/86/71 78/87/72 77/85/70
f 168/86/71 163/88/61 73/89/64 78/87/72
f 145/90/73 146/91/74 80/92/75 79/93/76
f 146/91/74 147/94/77 81/95/78 80/92/75
f 147/94/77 148/96/79 82/97/80 81/95/78
f 148/96/79 149/98/81 83/99/82 82/97/80
f 149/98/81 150/100/83 84/101/84 83/99/82
f 150/100/83 145/102/73 79/103/76 84/101/84
f 91/104/85 92/105/86 93/106/87 94/107/88
f 92/105/86 95/108/89 96/109/90 93/106/87
f 95/108/89 97/110/91 98/111/92 96/109/90
f 97/110/91 99/112/93 100/113/94 98/111/92
f 99/112/93 101/114/95 102/115/96 100/113/94
f 101/114/95 91/116/85 94/117/88 102/115/96
f 79/93/76 80/92/75 92/105/86 91/104/85
f 86/118/97 85/119/98 94/107/88 93/106/87
f 80/92/75 81/95/78 95/108/89 92/105/86
f 87/120/99 86/118/97 93/106/87 96/109/90
f 81/95/78 82/97/80 97/110/91 95/108/89
f 88/121/100 87/120/99 96/109/90 98/111/92
f 82/97/80 83/99/82 99/112/93 97/110/91
f 89/122/101 88/121/100 98/111/92 100/113/94
f 83/99/82 84/101/84 101/114/95 99/112/93
f 90/123/102 89/122/101 100/113/94 102/115/96
f 84/101/84 79/103/76 91/116/85 101/114/95
f 85/124/98 90/123/102 102/115/96 94/117/88
s 6
f 61/125/103 62/126/104 104/127/105 103/128/106
f 62/126/104 63/129/107 105/130/108 104/127/105
f 63/129/107 64/131/109 106/132/110 105/130/108
f 64/131/109 65/133/111 107/134/112 106/132/110
f 65/133/111 66/135/113 108/136/114 107/134/112
f 66/135/113 61/137/103 103/138/106 108/136/114
f 133/139/115 134/140/116 135/141/117 136/142/118
f 134/140/116 137/143/119 138/144/120 135/141/117
f 137/143/119 139/145/121 140/146/122 138/144/120
f 139/145/121 141/147/123 142/148/124 140/146/122
f 141/147/123 143/149/125 144/150/126 142/148/124
f 143/149/125 133/151/115 136/152/118 144/150/126
f 175/153/127 176/154/128 114/155/129 109/156/130
f 176/154/128 177/157/131 113/158/132 114/155/129
f 177/157/131 178/159/133 112/160/134 113/158/132
f 178/159/133 179/161/135 111/162/136 112/160/134
f 179/161/135 180/163/137 110/164/138 111/162/136
f 180/165/137 175/166/127 109/167/130 110/164/138
f 104/127/105 105/130/108 116/168/139 115/169/140
f 105/130/108 106/132/110 117/170/141 116/168/139
f 106/132/110 107/134/112 118/171/142 117/170/141
f 107/134/112 108/136/114 119/172/143 118/171/142
f 108/136/114 103/138/106 120/173/144 119/172/143
f 103/128/106 104/127/105 115/174/140 120/175/144
f 115/169/140 116/168/139 122/176/145 121/177/146
f 116/168/139 117/170/141 123/178/147 122/176/145
f 117/170/141 118/171/142 124/179/148 123/178/147
f 118/171/142 119/172/143 125/180/149 124/179/148
f 119/172/143 120/173/144 126/181/150 125/180/149
f 120/175/144 115/174/140 121/182/146 126/183/150
f 121/177/146 122/176/145 128/184/151 127/185/152
f 122/176/145 123/178/147 129/186/153 128/184/151
f 123/178/147 124/179/148 130/187/154 129/186/153
f 124/179/148 125/180/149 131/188/155 130/187/154
f 125/180/149 126/181/150 132/189/156 131/188/155
f 126/183/150 121/182/146 127/190/152 132/191/156
f 110/164/138 109/167/130 136/142/118 135/141/117
f 111/162/136 110/164/138 135/141/117 138/144/120
f 112/160/134 111/162/136 138/144/120 140/146/122
f 113/158/132 112/160/134 140/146/122 142/148/124
f 114/155/129 113/158/132 142/148/124 144/150/126
f 109/156/130 114/155/129 144/150/126 136/152/118
s 4
f 151/192/157 152/193/158 146/91/74 145/90/73
f 152/193/158 153/194/159 147/94/77 146/91/74
f 153/194/159 154/195/160 148/96/79 147/94/77
f 154/195/160 155/196/161 149/98/81 148/96/79
f 155/196/161 156/197/162 150/100/83 149/98/81
f 156/197/162 151/198/157 145/102/73 150/100/83
f 67/199/163 68/200/164 152/193/158 151/192/157
f 68/200/164 69/201/165 153/194/159 152/193/158
f 69/201/165 70/202/166 154/195/160 153/194/159
f 70/202/166 71/203/167 155/196/161 154/195/160
f 71/203/167 72/204/168 156/197/162 155/196/161
f 72/204/168 67/205/163 151/198/157 156/197/162
f 169/206/169 170/207/170 158/208/171 157/209/172
f 170/207/170 171/210/173 159/211/174 158/208/171
f 171/210/173 172/212/175 160/213/176 159/211/174
f 172/212/175 173/214/177 161/215/178 160/213/176
f 173/214/177 174/216/179 162/217/180 161/215/178
f 174/216/179 169/218/169 157/219/172 162/217/180
f 157/209/172 158/208/171 164/77/62 163/76/61
f 158/208/171 159/211/174 165/80/65 164/77/62
f 159/211/174 160/213/176 166/82/67 165/80/65
f 160/213/176 161/215/178 167/84/69 166/82/67
f 161/215/178 162/217/180 168/86/71 167/84/69
f 162/217/180 157/219/172 163/88/61 168/86/71
f 85/119/98 86/118/97 170/207/170 169/206/169
f 86/118/97 87/120/99 171/210/173 170/207/170
f 87/120/99 88/121/100 172/212/175 171/210/173
f 88/121/100 89/122/101 173/214/177 172/212/175
f 89/122/101 90/123/102 174/216/179 173/214/177
f 90/123/102 85/124/98 169/218/169 174/216/179
s 6
f 181/220/181 182/221/182 176/154/128 175/153/127
f 182/221/182 183/222/183 177/157/131 176/154/128
f 183/222/183 184/223/184 178/159/133 177/157/131
f 184/223/184 185/224/185 179/161/135 178/159/133
f 185/224/185 186/225/186 180/163/137 179/161/135
f 186/226/186 181/227/181 175/166/127 180/165/137
f 127/185/152 128/184/151 182/221/182 181/220/181
f 128/184/151 129/186/153 183/222/183 182/221/182
f 129/186/153 130/187/154 184/223/184 183/222/183
f 130/187/154 131/188/155 185/224/185 184/223/184
f 131/188/155 132/189/156 186/225/186 185/224/185
f 132/191/156 127/190/152 181/227/181 186/226/186
