# This file uses centimeters as units for non-parametric coordinates.

g default
v 17.654949 -0.009132 -1.961525
v 17.654949 -0.009132 -3.961525
v 13.654950 -0.009132 -1.961525
v 13.654950 -0.009132 -3.961525
v -8.323070 0.000000 1.043140
v -6.323070 0.000000 1.043140
v -8.323070 0.000000 -1.956860
v -6.323070 0.000000 -1.956860
v 13.676930 -0.009132 -1.961525
v 13.676930 -0.009132 -3.961525
v 9.676930 -0.009132 -1.961525
v 9.676930 -0.009132 -3.961525
v 9.654950 -0.009132 -1.961525
v 9.654950 -0.009132 -3.961525
v 5.654950 -0.009132 -1.961525
v 5.654950 -0.009132 -3.961525
v 5.676930 -0.009132 -1.961525
v 5.676930 -0.009132 -3.961525
v 2.676930 -0.009132 -1.961525
v 2.676930 -0.009132 -3.961525
v 2.676931 0.000000 -3.956863
v 5.676931 0.000000 -3.956863
v 2.676931 0.000000 -7.956863
v 5.676931 0.000000 -7.956863
v 2.676931 0.000000 -7.956863
v 5.676931 0.000000 -7.956863
v 2.676931 0.000000 -11.956863
v 5.676931 0.000000 -11.956863
v 2.676931 0.000000 -11.956863
v 5.676931 0.000000 -11.956863
v 2.676931 0.000000 -16.956863
v 5.676931 0.000000 -16.956863
v 2.676932 0.000000 -13.956863
v 2.676932 0.000000 -16.956863
v -1.323068 0.000000 -13.956863
v -1.323068 0.000000 -16.956863
v -1.323066 0.000000 -13.956863
v -1.323066 0.000000 -16.956863
v -5.323066 0.000000 -13.956863
v -5.323066 0.000000 -16.956863
v -5.323068 0.000000 -13.956863
v -5.323068 0.000000 -16.956863
v -9.323068 0.000000 -13.956863
v -9.323068 0.000000 -16.956863
v -9.323064 0.000000 -13.956863
v -9.323064 0.000000 -16.956863
v -14.323064 0.000000 -13.956863
v -14.323064 0.000000 -16.956863
v -14.323071 0.000000 1.043137
v -14.323071 0.000000 -1.956863
v -18.323071 0.000000 1.043137
v -18.323071 0.000000 -1.956863
v -2.323070 0.000000 1.043137
v -2.323070 0.000000 -1.956863
v -6.323070 0.000000 1.043137
v -6.323070 0.000000 -1.956863
v -10.454879 -0.009132 10.035202
v -10.454879 -0.009132 13.035202
v -6.454879 -0.009132 10.035202
v -6.454879 -0.009132 13.035202
v -6.454879 -0.009132 10.035202
v -6.454879 -0.009132 13.035202
v -2.454879 -0.009132 10.035202
v -2.454879 -0.009132 13.035202
v 1.278317 -0.009132 10.098473
v 1.278317 -0.009132 13.098473
v 5.278317 -0.009132 10.098473
v 5.278317 -0.009132 13.098473
v 5.278317 -0.009132 10.098473
v 5.278317 -0.009132 13.098473
v 9.278317 -0.009132 10.098473
v 9.278317 -0.009132 13.098473
v 9.278317 -0.009132 10.098473
v 9.278317 -0.009132 13.098473
v 13.278317 -0.009132 10.098473
v 13.278317 -0.009132 13.098473
v 13.278317 -0.009132 10.098473
v 13.278317 -0.009132 13.098473
v 17.278316 -0.009132 10.098473
v 17.278316 -0.009132 13.098473
v -14.327313 0.000021 1.047939
v -11.527312 0.000021 1.047939
v -14.327313 0.000021 -1.952061
v -11.527312 0.000021 -1.952061
vt 0.020078 0.014918
vt 0.504897 0.015621
vt 0.018672 0.984557
vt 0.503492 0.985260
vt 0.518680 0.515966
vt 0.985669 0.515966
vt 0.518680 0.982954
vt 0.985669 0.982954
vt 0.020078 0.014918
vt 0.504897 0.015621
vt 0.018672 0.984557
vt 0.503492 0.985260
vt 0.020078 0.014918
vt 0.504897 0.015621
vt 0.018672 0.984557
vt 0.503492 0.985260
vt 0.020078 0.014918
vt 0.504897 0.015621
vt 0.018672 0.984557
vt 0.503492 0.985260
vt 0.020078 0.014918
vt 0.504897 0.015621
vt 0.018672 0.984557
vt 0.503492 0.985260
vt 0.020078 0.014918
vt 0.504897 0.015621
vt 0.018672 0.984557
vt 0.503492 0.985260
vt 0.020078 0.014918
vt 0.504897 0.015621
vt 0.018672 0.984557
vt 0.503492 0.985260
vt 0.020078 0.014918
vt 0.504897 0.015621
vt 0.018672 0.984557
vt 0.503492 0.985260
vt 0.020078 0.014918
vt 0.504897 0.015621
vt 0.018672 0.984557
vt 0.503492 0.985260
vt 0.020078 0.014918
vt 0.504897 0.015621
vt 0.018672 0.984557
vt 0.503492 0.985260
vt 0.020078 0.014918
vt 0.504897 0.015621
vt 0.018672 0.984557
vt 0.503492 0.985260
vt 0.020078 0.014918
vt 0.504897 0.015621
vt 0.018672 0.984557
vt 0.503492 0.985260
vt 0.020078 0.014918
vt 0.504897 0.015621
vt 0.018672 0.984557
vt 0.503492 0.985260
vt 0.020078 0.014918
vt 0.504897 0.015621
vt 0.018672 0.984557
vt 0.503492 0.985260
vt 0.020078 0.014918
vt 0.504897 0.015621
vt 0.018672 0.984557
vt 0.503492 0.985260
vt 0.020078 0.014918
vt 0.504897 0.015621
vt 0.018672 0.984557
vt 0.503492 0.985260
vt 0.020078 0.014918
vt 0.504897 0.015621
vt 0.018672 0.984557
vt 0.503492 0.985260
vt 0.020078 0.014918
vt 0.504897 0.015621
vt 0.018672 0.984557
vt 0.503492 0.985260
vt 0.020078 0.014918
vt 0.504897 0.015621
vt 0.018672 0.984557
vt 0.503492 0.985260
vt 0.518680 0.515966
vt 0.985669 0.515966
vt 0.518680 0.982954
vt 0.985669 0.982954
vn 0.000000 1.000000 0.000000
vn 0.000000 1.000000 0.000000
vn 0.000000 1.000000 0.000000
vn 0.000000 1.000000 0.000000
vn 0.000000 1.000000 0.000000
vn 0.000000 1.000000 0.000000
vn 0.000000 1.000000 0.000000
vn 0.000000 1.000000 0.000000
vn 0.000000 1.000000 0.000000
vn 0.000000 1.000000 0.000000
vn 0.000000 1.000000 0.000000
vn 0.000000 1.000000 0.000000
vn 0.000000 1.000000 0.000000
vn 0.000000 1.000000 0.000000
vn 0.000000 1.000000 0.000000
vn 0.000000 1.000000 0.000000
vn 0.000000 1.000000 0.000000
vn 0.000000 1.000000 0.000000
vn 0.000000 1.000000 0.000000
vn 0.000000 1.000000 0.000000
vn 0.000000 1.000000 0.000000
vn 0.000000 1.000000 0.000000
vn 0.000000 1.000000 0.000000
vn 0.000000 1.000000 0.000000
vn 0.000000 1.000000 0.000000
vn 0.000000 1.000000 0.000000
vn 0.000000 1.000000 0.000000
vn 0.000000 1.000000 0.000000
vn 0.000000 1.000000 0.000000
vn 0.000000 1.000000 0.000000
vn 0.000000 1.000000 0.000000
vn 0.000000 1.000000 0.000000
vn 0.000000 1.000000 0.000000
vn 0.000000 1.000000 0.000000
vn 0.000000 1.000000 0.000000
vn 0.000000 1.000000 0.000000
vn 0.000000 1.000000 0.000000
vn 0.000000 1.000000 0.000000
vn 0.000000 1.000000 0.000000
vn 0.000000 1.000000 0.000000
vn 0.000000 1.000000 0.000000
vn 0.000000 1.000000 0.000000
vn 0.000000 1.000000 0.000000
vn 0.000000 1.000000 0.000000
vn 0.000000 1.000000 0.000000
vn 0.000000 1.000000 0.000000
vn 0.000000 1.000000 0.000000
vn 0.000000 1.000000 0.000000
vn 0.000000 1.000000 0.000000
vn 0.000000 1.000000 0.000000
vn 0.000000 1.000000 0.000000
vn 0.000000 1.000000 0.000000
vn 0.000000 1.000000 0.000000
vn 0.000000 1.000000 0.000000
vn 0.000000 1.000000 0.000000
vn 0.000000 1.000000 0.000000
vn 0.000000 1.000000 0.000000
vn 0.000000 1.000000 0.000000
vn 0.000000 1.000000 0.000000
vn 0.000000 1.000000 0.000000
vn 0.000000 1.000000 0.000000
vn 0.000000 1.000000 0.000000
vn 0.000000 1.000000 0.000000
vn 0.000000 1.000000 0.000000
vn 0.000000 1.000000 0.000000
vn 0.000000 1.000000 0.000000
vn 0.000000 1.000000 0.000000
vn 0.000000 1.000000 0.000000
vn 0.000000 1.000000 0.000000
vn 0.000000 1.000000 0.000000
vn 0.000000 1.000000 0.000000
vn 0.000000 1.000000 0.000000
vn 0.000000 1.000000 0.000000
vn 0.000000 1.000000 0.000000
vn 0.000000 1.000000 0.000000
vn 0.000000 1.000000 0.000000
vn 0.000000 1.000000 0.000000
vn 0.000000 1.000000 0.000000
vn 0.000000 1.000000 0.000000
vn 0.000000 1.000000 0.000000
vn 0.000000 1.000000 0.000000
vn 0.000000 1.000000 0.000000
vn 0.000000 1.000000 0.000000
vn 0.000000 1.000000 0.000000
s 1
g Floor_transparent
f 1/1/1 2/2/2 3/3/3
f 3/3/3 2/2/2 4/4/4
s 2
f 5/5/5 6/6/6 7/7/7
f 7/7/7 6/6/6 8/8/8
s 3
f 9/9/9 10/10/10 11/11/11
f 11/11/11 10/10/10 12/12/12
s 4
f 13/13/13 14/14/14 15/15/15
f 15/15/15 14/14/14 16/16/16
s 5
f 17/17/17 18/18/18 19/19/19
f 19/19/19 18/18/18 20/20/20
s 6
f 21/21/21 22/22/22 23/23/23
f 23/23/23 22/22/22 24/24/24
s 7
f 25/25/25 26/26/26 27/27/27
f 27/27/27 26/26/26 28/28/28
s 8
f 29/29/29 30/30/30 31/31/31
f 31/31/31 30/30/30 32/32/32
s 9
f 33/33/33 34/34/34 35/35/35
f 35/35/35 34/34/34 36/36/36
s 10
f 37/37/37 38/38/38 39/39/39
f 39/39/39 38/38/38 40/40/40
s 11
f 41/41/41 42/42/42 43/43/43
f 43/43/43 42/42/42 44/44/44
s 12
f 45/45/45 46/46/46 47/47/47
f 47/47/47 46/46/46 48/48/48
s 13
f 49/49/49 50/50/50 51/51/51
f 51/51/51 50/50/50 52/52/52
s 14
f 53/53/53 54/54/54 55/55/55
f 55/55/55 54/54/54 56/56/56
s 15
f 57/57/57 58/58/58 59/59/59
f 59/59/59 58/58/58 60/60/60
s 16
f 61/61/61 62/62/62 63/63/63
f 63/63/63 62/62/62 64/64/64
s 17
f 65/65/65 66/66/66 67/67/67
f 67/67/67 66/66/66 68/68/68
s 18
f 69/69/69 70/70/70 71/71/71
f 71/71/71 70/70/70 72/72/72
s 19
f 73/73/73 74/74/74 75/75/75
f 75/75/75 74/74/74 76/76/76
s 20
f 77/77/77 78/78/78 79/79/79
f 79/79/79 78/78/78 80/80/80
s 21
f 81/81/81 82/82/82 83/83/83
f 83/83/83 82/82/82 84/84/84
