# This file uses centimeters as units for non-parametric coordinates.

mtllib Floor_level3.mtl
g default
v 31.433395 -0.000000 22.631573
v 35.435272 -0.000000 22.631573
v 31.433413 0.000000 18.431572
v 35.435272 0.000000 18.431572
v 31.433439 0.000000 19.538063
v 35.435272 0.000000 19.536427
v -31.661821 -0.000000 6.500191
v -18.682537 -0.000000 6.500191
v -31.661821 0.000000 0.412289
v -18.682133 0.000000 0.410193
v -24.038956 -0.000000 6.500191
v -24.038956 0.000000 0.412289
v -24.064932 0.000000 -5.858478
v -18.682133 0.000000 -5.853833
v -13.316785 0.000000 0.422025
v -13.315702 0.000000 -5.856155
v -18.682133 0.000000 -12.146168
v -13.316786 0.000000 -12.146168
v -18.682133 -0.000000 13.146168
v -13.316786 -0.000000 13.146168
v -18.682133 0.000000 6.847698
v -13.316785 0.000000 6.847698
v -10.294308 0.000000 -5.856155
v -4.948398 0.000000 -5.856155
v -10.312662 0.000000 -12.146168
v -4.948398 0.000000 -12.146168
v -10.294308 0.000000 0.422025
v -4.940708 0.000000 0.416880
v -10.294308 0.000000 6.847698
v -4.940708 0.000000 6.841785
v -10.312662 -0.000000 13.146168
v -4.940708 -0.000000 13.123363
v -10.275953 0.000000 -12.146168
v -10.275953 -0.000000 13.146168
v -4.933019 0.000000 25.832279
v 0.425543 0.000000 25.832279
v -4.933019 0.000000 19.538063
v 0.425543 0.000000 19.538063
v 0.425543 0.000000 13.112391
v 0.425543 0.000000 6.830812
v 0.425543 0.000000 0.399903
v -4.933019 -0.000000 31.272057
v 0.425543 -0.000000 31.272057
v 3.305915 -0.000000 31.272057
v 8.669785 -0.000000 31.272057
v 3.305915 0.000000 25.832279
v 8.669785 0.000000 25.832279
v 3.305915 0.000000 19.538063
v 8.669785 0.000000 19.538063
v 3.305915 0.000000 13.112391
v 8.669785 0.000000 13.112391
v 3.305915 0.000000 6.830812
v 8.669785 0.000000 6.830812
v 3.305915 0.000000 0.399903
v 8.669785 0.000000 0.399903
v 14.047165 -0.000000 31.272057
v 14.047165 0.000000 25.832279
v 14.047165 0.000000 19.538063
v 14.047165 0.000000 13.112391
v 14.047165 0.000000 6.830812
v 14.047165 0.000000 0.399903
v 19.418175 -0.000000 31.272057
v 19.418175 0.000000 25.832279
v 19.418175 0.000000 19.538063
v 19.418175 0.000000 13.093264
v 19.422920 0.000000 6.830812
v 19.422920 0.000000 0.399903
v 24.779722 0.000000 13.081432
v 19.413427 0.000000 10.141418
v 24.779722 0.000000 10.141418
v 24.779722 0.000000 19.538063
v 24.779722 0.000000 25.832279
v 24.779722 -0.000000 31.272057
v 31.433439 0.000000 13.081432
v 31.433439 0.000000 10.141418
v 31.433439 -0.000000 31.272057
v 31.433439 0.000000 25.832279
vt 0.000000 0.000000
vt 0.952381 0.000000
vt 0.000000 1.000000
vt 0.952381 1.000000
vt -0.000435 0.716221
vt 0.952381 0.700000
vt 0.000000 0.000000
vt 0.586664 0.000000
vt 0.000000 1.000000
vt 0.586664 0.999999
vt 0.998929 1.000341
vt 1.000000 0.000000
vt 1.003454 0.003762
vt 1.003451 0.999260
vt 0.004844 0.003429
vt 0.000000 1.000000
vt 1.000000 0.000000
vt 1.000402 0.999260
vt 0.000004 0.003764
vt 0.000003 0.999261
vt 0.000003 0.000002
vt 1.000403 0.000740
vt 0.000000 1.000000
vt 1.000000 1.000000
vt 0.000000 0.000000
vt 1.000000 0.000000
vt 0.000000 1.000000
vt 1.000000 1.000000
vt 1.000000 0.000000
vt 1.000000 1.000000
vt 0.000000 0.000000
vt 0.000003 0.999998
vt 1.000000 0.000000
vt 1.000000 1.000000
vt 0.000000 0.000000
vt 0.000000 1.000000
vt 0.000000 0.000000
vt 1.000000 0.000000
vt 0.000000 1.000000
vt 1.000000 1.000000
vt 0.000000 0.000000
vt 1.000000 0.000000
vt 0.000000 1.000000
vt 1.000000 1.000000
vt 0.000000 0.000000
vt 1.000000 0.000000
vt 0.000000 1.000000
vt 1.000000 1.000000
vt 0.000005 0.000001
vt 1.000000 0.000000
vt 0.000000 1.000000
vt 1.000000 1.000000
vt 0.000000 0.000000
vt 1.000000 0.000000
vt 0.000005 0.999999
vt 1.000000 1.000000
vt 0.000000 0.000000
vt 1.000000 0.000000
vt 0.000000 1.000000
vt 1.000000 1.000000
vt 1.000000 0.000000
vt 1.000000 1.000000
vt 0.000000 0.000000
vt 0.000000 1.000000
vt 0.000000 0.000000
vt 1.000000 0.000000
vt 0.000000 1.000000
vt 1.000000 1.000000
vt 0.000000 0.000000
vt 1.000000 0.000000
vt 0.000000 1.000000
vt 1.000000 1.000000
vt 0.000000 0.000000
vt 1.000000 0.000000
vt 0.000000 1.000000
vt 1.000000 1.000000
vt 0.000000 0.000000
vt 1.000000 0.000000
vt 0.000000 1.000000
vt 1.000000 1.000000
vt 0.000000 0.000000
vt 1.000000 0.000000
vt 0.000000 1.000000
vt 1.000000 1.000000
vt 0.000000 0.000000
vt 1.000000 0.000000
vt 0.000000 1.000000
vt 1.000000 1.000000
vt 0.000000 0.000000
vt 1.000000 0.000000
vt 0.000000 1.000000
vt 1.000000 1.000000
vt 0.000000 0.000000
vt 1.000000 0.000000
vt 0.000000 1.000000
vt 1.000000 1.000000
vt 0.000000 0.000000
vt 1.000000 0.000000
vt 0.000000 1.000000
vt 1.000000 1.000000
vt 0.000000 0.000000
vt 1.000000 0.000000
vt 0.000000 1.000000
vt 1.000000 1.000000
vt 0.000000 0.000000
vt 1.000000 0.000000
vt 0.000000 1.000000
vt 1.000000 1.000000
vt 0.000000 0.000000
vt 1.000000 0.000000
vt 0.000000 1.000000
vt 1.000000 1.000000
vt 0.000000 0.000000
vt 1.000000 0.000000
vt 0.000000 1.000000
vt 1.000000 1.000000
vt 0.000000 0.000000
vt 1.000000 0.000000
vt 0.000000 1.000000
vt 1.000000 1.000000
vt 0.000000 0.000000
vt 1.000000 0.000000
vt 0.000000 1.000000
vt 1.000000 1.000000
vt 0.000000 0.000000
vt 1.000000 0.000000
vt 0.000000 1.000000
vt 1.000000 1.000000
vt 0.000000 0.000000
vt 1.000000 0.000000
vt 0.000000 1.000000
vt 1.000000 1.000000
vt 0.000000 0.000000
vt 1.000000 0.000000
vt 0.000000 1.000000
vt 1.000000 1.000000
vt 0.000000 0.000000
vt 1.000000 0.000000
vt 0.000000 1.000000
vt 1.000000 1.000000
vt 0.000000 0.000000
vt 1.000000 0.000000
vt 0.000000 1.000000
vt 1.000000 1.000000
vt 0.000000 0.000000
vt 1.000000 0.000000
vt 0.000000 1.000000
vt 1.000000 1.000000
vt 0.000000 0.000000
vt 1.000000 0.000000
vt 0.000000 1.000000
vt 1.000000 1.000000
vt 0.000000 0.000000
vt 1.000000 0.000000
vt 0.000000 1.000000
vt 1.000000 1.000000
vt 0.000000 0.000000
vt 1.000000 0.000000
vt 0.000000 1.000000
vt 1.000000 1.000000
vt 0.000000 0.000000
vt 1.000000 0.000000
vt 0.000000 1.000000
vt 1.000000 1.000000
vt 0.000000 0.000000
vt 1.000000 0.000000
vt 0.000000 1.000000
vt 1.000000 1.000000
vt 0.000000 0.000000
vt 1.000000 0.000000
vt 0.000000 1.000000
vt 1.000000 1.000000
vt 0.000000 0.000000
vt 1.000000 0.000000
vt 0.000000 1.000000
vt 1.000000 1.000000
vt 0.000000 0.000000
vt 1.000000 0.000000
vt 0.000000 1.000000
vt 1.000000 1.000000
vt 0.000000 0.000000
vt 1.000000 0.000000
vt 0.000000 1.000000
vt 1.000000 1.000000
vt 0.000000 0.000000
vt 1.000000 0.000000
vt 0.000000 1.000000
vt 1.000000 1.000000
vt 0.000000 0.000000
vt 1.000000 0.000000
vt 0.000000 1.000000
vt 0.999998 0.999997
vt 0.000000 0.000000
vt 0.999999 0.000001
vt 0.000000 1.000000
vt 1.000000 1.000000
vn -0.000000 1.000000 0.000000
vn -0.000000 1.000000 0.000000
vn -0.000000 1.000000 0.000000
vn 0.000000 1.000000 0.000000
vn 0.000000 1.000000 0.000000
vn -0.000000 1.000000 0.000000
vn 0.000000 1.000000 0.000000
vn 0.000000 1.000000 0.000000
vn 0.000000 1.000000 0.000000
vn 0.000000 1.000000 0.000000
vn 0.000000 1.000000 0.000000
vn 0.000000 1.000000 0.000000
vn 0.000000 1.000000 0.000000
vn 0.000000 1.000000 0.000000
vn 0.000000 1.000000 0.000000
vn 0.000000 1.000000 0.000000
vn 0.000000 1.000000 0.000000
vn 0.000000 1.000000 0.000000
vn 0.000000 1.000000 0.000000
vn 0.000000 1.000000 0.000000
vn 0.000000 1.000000 0.000000
vn 0.000000 1.000000 0.000000
vn 0.000000 1.000000 0.000000
vn 0.000000 1.000000 0.000000
vn 0.000000 1.000000 0.000000
vn 0.000000 1.000000 0.000000
vn 0.000000 1.000000 0.000000
vn 0.000000 1.000000 0.000000
vn 0.000000 1.000000 0.000000
vn 0.000000 1.000000 0.000000
vn 0.000000 1.000000 0.000000
vn 0.000000 1.000000 0.000000
vn 0.000000 1.000000 0.000000
vn 0.000000 1.000000 0.000000
vn 0.000000 1.000000 0.000000
vn 0.000000 1.000000 0.000000
vn -0.000000 1.000000 0.000000
vn -0.000000 1.000000 -0.000000
vn -0.000000 1.000000 -0.000000
vn 0.000000 1.000000 -0.000000
vn 0.000000 1.000000 0.000000
vn -0.000000 1.000000 0.000000
vn -0.000000 1.000000 0.000000
vn -0.000000 1.000000 0.000000
vn -0.000000 1.000000 0.000000
vn -0.000000 1.000000 0.000000
vn -0.000000 1.000000 0.000000
vn 0.000000 1.000000 0.000000
vn 0.000000 1.000000 0.000000
vn 0.000000 1.000000 0.000000
vn 0.000000 1.000000 0.000000
vn 0.000000 1.000000 0.000000
vn 0.000000 1.000000 0.000000
vn 0.000000 1.000000 0.000000
vn 0.000000 1.000000 0.000000
vn 0.000000 1.000000 0.000000
vn 0.000000 1.000000 0.000000
vn 0.000000 1.000000 0.000000
vn 0.000000 1.000000 0.000000
vn 0.000000 1.000000 0.000000
vn 0.000000 1.000000 0.000000
vn 0.000000 1.000000 0.000000
vn 0.000000 1.000000 0.000000
vn 0.000000 1.000000 0.000000
vn 0.000000 1.000000 0.000000
vn 0.000000 1.000000 0.000000
vn 0.000000 1.000000 -0.000000
vn -0.000000 1.000000 -0.000000
vn -0.000000 1.000000 0.000000
vn -0.000000 1.000000 0.000000
vn 0.000000 1.000000 0.000000
vn -0.000000 1.000000 0.000000
vn -0.000000 1.000000 0.000000
vn -0.000000 1.000000 0.000000
vn -0.000000 1.000000 0.000000
vn 0.000000 1.000000 0.000000
vn 0.000000 1.000000 0.000000
vn 0.000000 1.000000 0.000000
vn 0.000000 1.000000 0.000000
vn 0.000000 1.000000 0.000000
vn 0.000000 1.000000 0.000000
vn 0.000000 1.000000 0.000000
vn 0.000000 1.000000 0.000000
vn 0.000000 1.000000 0.000000
vn 0.000000 1.000000 0.000000
vn 0.000000 1.000000 0.000000
vn 0.000000 1.000000 0.000000
vn 0.000000 1.000000 0.000000
vn 0.000000 1.000000 0.000000
vn 0.000000 1.000000 0.000000
vn 0.000000 1.000000 0.000000
vn 0.000000 1.000000 0.000000
vn 0.000000 1.000000 0.000000
vn 0.000000 1.000000 0.000000
vn 0.000000 1.000000 0.000000
vn 0.000000 1.000000 0.000000
vn 0.000000 1.000000 0.000000
vn 0.000000 1.000000 0.000000
vn 0.000000 1.000000 0.000000
vn 0.000000 1.000000 0.000000
vn 0.000000 1.000000 0.000000
vn 0.000000 1.000000 0.000000
vn 0.000000 1.000000 0.000000
vn 0.000000 1.000000 0.000000
vn 0.000000 1.000000 0.000000
vn 0.000000 1.000000 0.000000
vn 0.000000 1.000000 0.000000
vn 0.000000 1.000000 0.000000
vn 0.000000 1.000000 0.000000
vn 0.000000 1.000000 0.000000
vn 0.000000 1.000000 0.000000
vn 0.000000 1.000000 0.000000
vn 0.000000 1.000000 0.000000
vn 0.000000 1.000000 0.000000
vn 0.000000 1.000000 0.000000
vn 0.000000 1.000000 0.000000
vn 0.000000 1.000000 0.000000
vn 0.000000 1.000000 0.000000
vn 0.000000 1.000000 0.000000
vn 0.000000 1.000000 0.000000
vn 0.000000 1.000000 0.000000
s 1
g floor
usemtl initialShadingGroup
f 5/5/1 6/6/2 3/3/3
f 3/3/3 6/6/2 4/4/4
f 1/1/5 2/2/6 5/5/1
f 5/5/1 2/2/6 6/6/2
s 2
f 7/7/7 11/8/8 9/9/9
f 9/9/9 11/8/8 12/10/10
f 12/10/10 11/8/8 10/11/11
f 10/11/11 11/8/8 8/12/12
s 3
f 10/13/13 14/14/14 12/15/15
f 12/15/15 14/14/14 13/16/16
s 4
f 15/17/17 16/18/18 10/19/19
f 10/19/19 16/18/18 14/20/20
s 5
f 14/21/21 16/22/22 17/23/23
f 17/23/23 16/22/22 18/24/24
s 6
f 19/25/25 20/26/26 21/27/27
f 21/27/27 20/26/26 22/28/28
s 7
f 22/29/29 15/30/30 21/31/31
f 21/31/31 15/30/30 10/32/32
s 8
f 24/33/33 26/34/34 23/35/35
f 23/35/35 26/34/34 25/36/36
s 9
f 27/37/37 28/38/38 23/39/39
f 23/39/39 28/38/38 24/40/40
s 10
f 29/41/41 30/42/42 27/43/43
f 27/43/43 30/42/42 28/44/44
s 11
f 31/45/45 32/46/46 29/47/47
f 29/47/47 32/46/46 30/48/48
s 12
f 16/49/49 23/50/50 18/51/51
f 18/51/51 23/50/50 33/52/52
s 13
f 15/53/53 27/54/54 16/55/55
f 16/55/55 27/54/54 23/56/56
s 14
f 22/57/57 29/58/58 15/59/59
f 15/59/59 29/58/58 27/60/60
s 15
f 34/61/61 29/62/62 20/63/63
f 20/63/63 29/62/62 22/64/64
s 16
f 35/65/65 36/66/66 37/67/67
f 37/67/67 36/66/66 38/68/68
f 37/69/67 38/70/68 32/71/69
f 32/71/69 38/70/68 39/72/70
s 17
f 30/73/71 40/74/72 28/75/73
f 28/75/73 40/74/72 41/76/74
s 16
f 32/77/69 39/78/70 30/79/75
f 30/79/75 39/78/70 40/80/76
f 42/81/77 43/82/78 35/83/65
f 35/83/65 43/82/78 36/84/66
f 44/85/79 45/86/80 46/87/81
f 46/87/81 45/86/80 47/88/82
f 46/89/81 47/90/82 48/91/83
f 48/91/83 47/90/82 49/92/84
f 48/93/83 49/94/84 50/95/85
f 50/95/85 49/94/84 51/96/86
f 50/97/85 51/98/86 52/99/87
f 52/99/87 51/98/86 53/100/88
f 52/101/89 53/102/88 54/103/90
f 54/103/90 53/102/88 55/104/91
f 45/105/80 56/106/92 47/107/82
f 47/107/82 56/106/92 57/108/93
f 47/109/82 57/110/93 49/111/84
f 49/111/84 57/110/93 58/112/94
f 49/113/84 58/114/94 51/115/86
f 51/115/86 58/114/94 59/116/95
f 51/117/86 59/118/95 53/119/88
f 53/119/88 59/118/95 60/120/96
f 53/121/88 60/122/96 55/123/91
f 55/123/91 60/122/96 61/124/97
f 56/125/92 62/126/98 57/127/93
f 57/127/93 62/126/98 63/128/99
f 57/129/93 63/130/99 58/131/94
f 58/131/94 63/130/99 64/132/100
f 58/133/94 64/134/100 59/135/95
f 59/135/95 64/134/100 65/136/101
f 59/137/95 65/138/101 60/139/96
f 60/139/96 65/138/101 66/140/102
f 60/141/96 66/142/102 61/143/97
f 61/143/97 66/142/102 67/144/103
f 38/145/68 48/146/83 39/147/104
f 39/147/104 48/146/83 50/148/105
f 43/149/78 44/150/79 36/151/66
f 36/151/66 44/150/79 46/152/81
f 40/153/106 52/154/107 41/155/108
f 41/155/108 52/154/107 54/156/109
f 36/157/66 46/158/81 38/159/68
f 38/159/68 46/158/81 48/160/83
f 39/161/104 50/162/105 40/163/106
f 40/163/106 50/162/105 52/164/107
f 65/165/110 68/166/111 69/167/112
f 69/167/112 68/166/111 70/168/113
f 64/169/100 71/170/114 65/171/110
f 65/171/110 71/170/114 68/172/111
f 63/173/99 72/174/115 64/175/100
f 64/175/100 72/174/115 71/176/114
f 62/177/98 73/178/116 63/179/99
f 63/179/99 73/178/116 72/180/115
f 68/181/111 74/182/117 70/183/113
f 70/183/113 74/182/117 75/184/118
f 73/185/116 76/186/119 72/187/115
f 72/187/115 76/186/119 77/188/120
f 72/189/115 77/190/120 71/191/114
f 71/191/114 77/190/120 5/192/121
f 71/193/114 5/194/121 68/195/111
f 68/195/111 5/194/121 74/196/117
