# This file uses centimeters as units for non-parametric coordinates.

g default
v -1.000000 -0.000000 2.000000
v 1.000000 -0.000000 2.000000
v -1.000000 0.000000 -2.000000
v 1.000000 0.000000 -2.000000
v -1.000000 -0.998771 2.000000
v 1.000000 -0.998771 2.000000
v 1.000000 -0.998771 -2.000000
v -1.000000 -0.998771 -2.000000
vt 0.000000 0.000000
vt 1.000000 0.000000
vt 0.000000 1.000000
vt 1.000000 1.000000
vt 0.000000 0.000000
vt 1.000000 0.000000
vt 1.000000 1.000000
vt 0.000000 1.000000
vn 0.000000 1.000000 0.000000
vn 0.000000 1.000000 0.000000
vn 0.000000 1.000000 0.000000
vn 0.000000 1.000000 0.000000
vn -1.000000 0.000000 0.000000
vn -1.000000 0.000000 0.000000
vn -1.000000 0.000000 0.000000
vn -1.000000 0.000000 0.000000
vn 1.000000 0.000000 0.000000
vn 1.000000 0.000000 0.000000
vn 1.000000 0.000000 0.000000
vn 1.000000 0.000000 0.000000
s off
g t2x4_lowest_1 group3
f 5/5/1 6/6/2 7/7/3 8/8/4
f 2/2/5 4/4/6 7/7/7 6/6/8
f 3/3/9 1/1/10 5/5/11 8/8/12
g default
v -1.000000 0.000000 1.000000
v -1.000000 0.000000 -1.000000
v 1.000000 0.000000 -1.000000
v -1.000000 -0.998771 1.000000
v 1.000000 -0.998771 1.000000
v 1.000000 -0.998771 -1.000000
v -1.000000 -0.998771 -1.000000
vt -0.000000 0.000000
vt 0.000000 1.000000
vt 1.000000 1.000000
vt -0.000000 0.000000
vt 1.000000 -0.000000
vt 1.000000 1.000000
vt 0.000000 1.000000
vn 0.000000 1.000000 0.000000
vn 0.000000 1.000000 0.000000
vn 0.000000 1.000000 0.000000
vn 0.000000 1.000000 0.000000
vn 0.000000 0.000000 1.000000
vn 0.000000 0.000000 1.000000
vn 0.000000 0.000000 1.000000
vn 0.000000 0.000000 1.000000
vn 1.000000 0.000000 0.000000
vn 1.000000 0.000000 0.000000
vn 1.000000 0.000000 0.000000
vn 1.000000 0.000000 0.000000
s off
g group3 t2x2_lowest_1_corner
f 12/12/13 13/13/14 14/14/15 15/15/16
f 11/11/17 10/10/18 15/15/19 14/14/20
f 10/10/21 9/9/22 12/12/23 15/15/24
g default
v -1.000000 0.000000 1.000000
v 1.000000 0.000000 1.000000
v -1.000000 0.000000 -1.000000
v 1.000000 0.000000 -1.000000
v -1.000000 -0.998771 1.000000
v 1.000000 -0.998771 1.000000
v 1.000000 -0.998771 -1.000000
v -1.000000 -0.998771 -1.000000
vt -0.000000 0.000000
vt 1.000000 -0.000000
vt 0.000000 1.000000
vt 1.000000 1.000000
vt -0.000000 0.000000
vt 1.000000 -0.000000
vt 1.000000 1.000000
vt 0.000000 1.000000
vn 0.000000 1.000000 0.000000
vn 0.000000 1.000000 0.000000
vn 0.000000 1.000000 0.000000
vn 0.000000 1.000000 0.000000
vn -1.000000 0.000000 0.000000
vn -1.000000 0.000000 0.000000
vn -1.000000 0.000000 0.000000
vn -1.000000 0.000000 0.000000
vn 0.000000 0.000000 1.000000
vn 0.000000 0.000000 1.000000
vn 0.000000 0.000000 1.000000
vn 0.000000 0.000000 1.000000
vn 1.000000 0.000000 0.000000
vn 1.000000 0.000000 0.000000
vn 1.000000 0.000000 0.000000
vn 1.000000 0.000000 0.000000
s off
g group3 t2x2_lowest_1_end
f 20/20/25 21/21/26 22/22/27 23/23/28
f 17/17/29 19/19/30 22/22/31 21/21/32
f 19/19/33 18/18/34 23/23/35 22/22/36
f 18/18/37 16/16/38 20/20/39 23/23/40
