# This file uses centimeters as units for non-parametric coordinates.

g default
v -1.000000 0.000000 1.000000
v 1.000000 0.000000 1.000000
v -1.000000 0.000000 -1.000000
v 1.000000 0.000000 -1.000000
v -1.000000 -0.600000 1.000000
v 1.000000 -0.600000 1.000000
v 1.000000 -0.600000 -1.000000
v -1.000000 -0.600000 -1.000000
vt -0.000000 0.000000
vt 1.000000 -0.000000
vt 0.000000 1.000000
vt 1.000000 1.000000
vt -0.000000 0.000000
vt 1.000000 -0.000000
vt 1.000000 1.000000
vt 0.000000 1.000000
vn 0.000000 1.000000 0.000000
vn 0.000000 1.000000 0.000000
vn 0.000000 1.000000 0.000000
vn 0.000000 1.000000 0.000000
vn -1.000000 0.000000 0.000000
vn -1.000000 0.000000 0.000000
vn -1.000000 0.000000 0.000000
vn -1.000000 0.000000 0.000000
vn 0.000000 0.000000 1.000000
vn 0.000000 0.000000 1.000000
vn 0.000000 0.000000 1.000000
vn 0.000000 0.000000 1.000000
vn 1.000000 0.000000 0.000000
vn 1.000000 0.000000 0.000000
vn 1.000000 0.000000 0.000000
vn 1.000000 0.000000 0.000000
s off
g t2x2_lower_0_6_end group3
f 5/5/1 6/6/2 7/7/3 8/8/4
f 2/2/5 4/4/6 7/7/7 6/6/8
f 4/4/9 3/3/10 8/8/11 7/7/12
f 3/3/13 1/1/14 5/5/15 8/8/16
g default
v -1.000000 0.000000 1.000000
v -1.000000 0.000000 -1.000000
v 1.000000 0.000000 -1.000000
v -1.000000 -0.600000 1.000000
v 1.000000 -0.600000 1.000000
v 1.000000 -0.600000 -1.000000
v -1.000000 -0.600000 -1.000000
vt -0.000000 0.000000
vt 0.000000 1.000000
vt 1.000000 1.000000
vt -0.000000 0.000000
vt 1.000000 -0.000000
vt 1.000000 1.000000
vt 0.000000 1.000000
vn 0.000000 1.000000 0.000000
vn 0.000000 1.000000 0.000000
vn 0.000000 1.000000 0.000000
vn 0.000000 1.000000 0.000000
vn 0.000000 0.000000 1.000000
vn 0.000000 0.000000 1.000000
vn 0.000000 0.000000 1.000000
vn 0.000000 0.000000 1.000000
vn 1.000000 0.000000 0.000000
vn 1.000000 0.000000 0.000000
vn 1.000000 0.000000 0.000000
vn 1.000000 0.000000 0.000000
s off
g group3 t2x2_lower_0_6_corner
f 12/12/17 13/13/18 14/14/19 15/15/20
f 11/11/21 10/10/22 15/15/23 14/14/24
f 10/10/25 9/9/26 12/12/27 15/15/28
g default
v -1.000000 -0.000000 2.000000
v 1.000000 -0.000000 2.000000
v -1.000000 0.000000 -2.000000
v 1.000000 0.000000 -2.000000
v -1.000000 -0.600000 2.000000
v 1.000000 -0.600000 2.000000
v 1.000000 -0.600000 -2.000000
v -1.000000 -0.600000 -2.000000
vt 0.000000 0.000000
vt 1.000000 0.000000
vt 0.000000 1.000000
vt 1.000000 1.000000
vt 0.000000 0.000000
vt 1.000000 0.000000
vt 1.000000 1.000000
vt 0.000000 1.000000
vn 0.000000 1.000000 0.000000
vn 0.000000 1.000000 0.000000
vn 0.000000 1.000000 0.000000
vn 0.000000 1.000000 0.000000
vn -1.000000 0.000000 0.000000
vn -1.000000 0.000000 0.000000
vn -1.000000 0.000000 0.000000
vn -1.000000 0.000000 0.000000
vn 1.000000 0.000000 0.000000
vn 1.000000 0.000000 0.000000
vn 1.000000 0.000000 0.000000
vn 1.000000 0.000000 0.000000
s off
g group3 t2x4_lower_0_6
f 20/20/29 21/21/30 22/22/31 23/23/32
f 17/17/33 19/19/34 22/22/35 21/21/36
f 18/18/37 16/16/38 20/20/39 23/23/40
