# This file uses centimeters as units for non-parametric coordinates.

g default
v -1.718399 2.829071 0.134764
v 1.816269 2.829071 0.134764
v -1.718399 2.829071 -0.104433
v 1.816269 2.829071 -0.104433
v -1.718399 0.001373 -0.104433
v 1.816269 0.001373 -0.104433
v -1.718399 0.284149 0.134764
v 1.816269 0.284149 0.134764
v 1.816269 0.284149 -0.104433
v -1.718399 0.284149 -0.104433
v -1.718399 0.001373 0.310577
v 1.816269 0.001373 0.310577
v 1.816269 0.284149 0.310577
v -1.718399 0.284149 0.310577
vt 0.610244 0.179888
vt 0.996695 0.179429
vt 0.997026 0.457669
vt 0.610575 0.458129
vt 0.997057 0.483821
vt 0.610606 0.484281
vt 0.997388 0.762061
vt 0.610937 0.762521
vt 0.610184 0.129750
vt 0.996635 0.129290
vt 0.996672 0.160207
vt 0.610221 0.160666
vt 0.997425 0.792977
vt 0.610974 0.793437
vn 0.000000 0.000000 1.000000
vn 0.000000 0.000000 1.000000
vn 0.000000 0.000000 1.000000
vn 0.000000 0.000000 1.000000
vn 0.000000 1.000000 0.000000
vn 0.000000 1.000000 0.000000
vn 0.000000 1.000000 0.000000
vn 0.000000 1.000000 0.000000
vn 0.000000 0.000000 -1.000000
vn 0.000000 0.000000 -1.000000
vn 0.000000 0.000000 -1.000000
vn 0.000000 0.000000 -1.000000
vn 0.000000 0.000000 1.000000
vn 0.000000 0.000000 1.000000
vn 0.000000 0.528008 0.849240
vn 0.000000 0.528008 0.849239
vn 0.000000 0.000000 -1.000000
vn 0.000000 0.000000 -1.000000
vn 0.000000 1.000000 0.000000
vn 0.000000 1.000000 0.000000
s 1
g Basic_wall Walls30
f 7/1/1 8/2/2 1/4/3
f 1/4/3 8/2/2 2/3/4
s 2
f 1/4/5 2/3/6 3/6/7
f 3/6/7 2/3/6 4/5/8
s 3
f 3/6/9 4/5/10 10/8/11
f 10/8/11 4/5/10 9/7/12
s 4
f 11/9/13 12/10/14 14/12/15
f 14/12/15 12/10/14 13/11/16
s 3
f 10/8/11 9/7/12 5/14/17
f 5/14/17 9/7/12 6/13/18
s 4
f 8/2/19 7/1/20 13/11/16
f 13/11/16 7/1/20 14/12/15
g default
v -1.856348 2.827637 0.160889
v 1.678314 2.827637 0.160889
v -1.856348 2.827637 -0.085449
v 1.678314 2.827637 -0.085449
v -1.856348 0.282711 0.160889
v 1.678314 0.282711 0.160889
v 1.678314 0.282711 -0.085449
v -1.856348 0.282711 -0.085449
v -1.856348 -0.000061 0.336700
v 1.678314 -0.000061 0.336700
v 1.678314 0.282711 0.336700
v -1.856348 0.282711 0.336700
v 1.678314 0.282711 -0.255800
v -1.856348 0.282711 -0.255800
v 1.678314 -0.000061 -0.255800
v -1.856348 -0.000061 -0.255800
v -2.041285 0.282711 -0.085449
v -2.041285 0.282711 0.160889
v -2.041285 -0.000420 -0.085449
v -2.041285 -0.000420 0.160889
vt 0.616418 0.060317
vt 0.599148 0.480303
vt 0.601697 0.758977
vt 0.588892 0.350884
vt 0.601944 0.785952
vt 0.561987 0.346579
vt 0.180001 0.053033
vt 0.588817 0.051900
vt 0.662786 0.039736
vt 0.598689 0.430088
vt 0.598972 0.461052
vt 0.638922 0.063899
vt 0.582990 0.033292
vt 0.178832 0.034006
vt 0.176895 0.002406
vt 0.584306 0.001176
vt 0.603390 0.034807
vt 0.622800 0.044592
vt 0.613691 0.007160
vt 0.640330 0.019402
vt 0.181983 0.327418
vt 0.214892 0.789492
vt 0.214645 0.762517
vt 0.211637 0.433627
vt 0.211920 0.464592
vt 0.212096 0.483843
vn 0.000000 0.000000 1.000000
vn 0.000000 0.000000 1.000000
vn 0.000000 0.000000 1.000000
vn 0.000000 0.000000 1.000000
vn 0.000000 1.000000 0.000000
vn 0.000000 1.000000 0.000000
vn 0.000000 1.000000 0.000000
vn 0.000000 1.000000 0.000000
vn 0.000000 0.000000 -1.000000
vn 0.000000 0.000000 -1.000000
vn 0.000000 0.000000 -1.000000
vn 0.000000 0.000000 -1.000000
vn -0.047284 0.000000 0.998882
vn 0.000000 0.000000 1.000000
vn -0.040376 0.518331 0.854226
vn 0.000000 0.528009 0.849239
vn -0.039444 0.506628 -0.861262
vn 0.000000 0.516027 -0.856573
vn -0.045819 0.000000 -0.998950
vn 0.000000 0.000000 -1.000000
vn 0.000000 1.000000 0.000000
vn 0.000000 1.000000 0.000000
vn 0.000000 1.000000 0.000000
vn 0.000000 1.000000 0.000000
vn -1.000000 0.000000 0.000000
vn -1.000000 0.000000 0.000000
vn -1.000000 0.000000 0.000000
vn -1.000000 0.000000 0.000000
vn 0.000000 1.000000 0.000000
vn 0.000000 1.000000 0.000000
vn -0.829065 0.425255 0.363056
vn -0.827657 0.424450 -0.367186
vn -0.916038 0.000000 0.401091
vn -0.914103 0.000000 -0.405483
vn 0.000000 1.000000 0.000000
vn 0.000000 1.000000 0.000000
s 1
g Walls30 Wall_Double_Inner_End_Piece
f 19/40/21 20/16/22 15/37/23
f 15/37/23 20/16/22 16/17/24
s 2
f 15/37/25 16/17/26 17/36/27
f 17/36/27 16/17/26 18/19/28
s 3
f 17/20/29 18/35/30 22/22/31
f 22/22/31 18/35/30 21/21/32
s 4
f 23/38/33 24/24/34 26/39/35
f 26/39/35 24/24/34 25/25/36
f 28/27/37 27/28/38 30/30/39
f 30/30/39 27/28/38 29/29/40
f 20/16/41 19/40/42 25/25/36
f 25/25/36 19/40/42 26/39/35
f 22/22/43 21/21/44 28/27/37
f 28/27/37 21/21/44 27/28/38
s 6
f 17/20/45 22/22/46 15/18/47
f 15/18/47 22/22/46 19/15/48
s 4
f 19/15/49 22/22/50 32/32/51
f 32/32/51 22/22/50 31/31/52
f 32/32/51 31/31/52 34/34/53
f 34/34/53 31/31/52 33/33/54
f 26/26/35 32/32/51 23/23/33
f 23/23/33 32/32/51 34/34/53
f 28/27/37 30/30/39 31/31/52
f 31/31/52 30/30/39 33/33/54
f 28/27/37 31/31/52 22/22/55
f 26/26/35 19/15/56 32/32/51
g default
v 1.029968 2.827637 0.162994
v 1.029968 2.827637 -0.085480
v 1.029968 0.282711 0.162994
v 1.029968 0.282711 -0.085480
v 1.029968 -0.000061 0.338806
v 1.029968 0.282711 0.338806
v 1.029968 0.282711 -0.255770
v 1.029968 -0.000061 -0.255770
v -0.737488 -0.000061 -0.255770
v -0.737488 0.282711 -0.255770
v -0.737488 0.282711 -0.085480
v -0.737488 2.827637 -0.085480
v -0.737488 2.827637 0.162994
v -0.737488 0.282711 0.162994
v -0.737488 0.282711 0.338806
v -0.737488 -0.000061 0.338806
vt 0.205586 0.674672
vt 0.205586 0.945106
vt 0.017769 0.945106
vt 0.017769 0.674672
vt 0.205586 0.648268
vt 0.017769 0.648268
vt 0.205586 0.377834
vt 0.017769 0.377834
vt 0.205586 0.963789
vt 0.205586 0.993837
vt 0.017769 0.993837
vt 0.017769 0.963789
vt 0.205586 0.329690
vt 0.205586 0.359739
vt 0.017769 0.359739
vt 0.017769 0.329690
vn 0.000000 0.000000 1.000000
vn 0.000000 0.000000 1.000000
vn 0.000000 0.000000 1.000000
vn 0.000000 0.000000 1.000000
vn 0.000000 1.000000 0.000000
vn 0.000000 1.000000 0.000000
vn 0.000000 1.000000 0.000000
vn 0.000000 1.000000 0.000000
vn 0.000000 0.000000 -1.000000
vn 0.000000 0.000000 -1.000000
vn 0.000000 0.000000 -1.000000
vn 0.000000 0.000000 -1.000000
vn 0.000000 0.528009 0.849239
vn 0.000000 0.000000 1.000000
vn 0.000000 0.528009 0.849239
vn 0.000000 0.000000 1.000000
vn 0.000000 0.000000 -1.000000
vn 0.000000 0.515891 -0.856654
vn 0.000000 0.000000 -1.000000
vn 0.000000 0.515891 -0.856654
vn 0.000000 1.000000 0.000000
vn 0.000000 1.000000 0.000000
vn 0.000000 1.000000 0.000000
vn 0.000000 1.000000 0.000000
s 1
g Walls30 Wall_double_mid_Piece
f 47/41/57 48/42/58 35/44/59
f 35/44/59 48/42/58 37/43/60
s 2
f 46/45/61 47/41/62 36/46/63
f 36/46/63 47/41/62 35/44/64
s 3
f 45/47/65 46/45/66 38/48/67
f 38/48/67 46/45/66 36/46/68
s 4
f 49/49/69 50/50/70 40/52/71
f 40/52/71 50/50/70 39/51/72
s 5
f 43/53/73 44/54/74 42/56/75
f 42/56/75 44/54/74 41/55/76
s 4
f 37/43/77 48/42/78 40/52/71
f 40/52/71 48/42/78 49/49/69
s 5
f 44/54/74 45/47/79 41/55/76
f 41/55/76 45/47/79 38/48/80
g default
v 0.817841 2.827637 0.157738
v 0.817841 2.827637 -0.076698
v 0.817841 -0.000060 -0.076698
v 0.817841 0.282711 0.157738
v 0.817841 0.282711 -0.076698
v 0.817841 -0.000060 0.333549
v 0.817841 0.282711 0.333549
v -0.949493 -0.000060 -0.076698
v -0.949493 0.282711 -0.076698
v -0.949493 2.827637 -0.076698
v -0.949493 2.827637 0.157738
v -0.949493 0.282711 0.157738
v -0.949493 0.282711 0.333549
v -0.949493 -0.000060 0.333549
vt 0.551054 0.803086
vt 0.826128 0.803759
vt 0.825661 0.994785
vt 0.550587 0.994112
vt 0.525715 0.803024
vt 0.525247 0.994050
vt 0.250641 0.802351
vt 0.250173 0.993377
vt 0.845131 0.803805
vt 0.875695 0.803880
vt 0.875228 0.994906
vt 0.844664 0.994832
vt 0.220077 0.802276
vt 0.219609 0.993302
vn 0.000000 0.000000 1.000000
vn 0.000000 0.000000 1.000000
vn 0.000000 0.000000 1.000000
vn 0.000000 0.000000 1.000000
vn 0.000000 1.000000 0.000000
vn 0.000000 1.000000 0.000000
vn 0.000000 1.000000 0.000000
vn 0.000000 1.000000 0.000000
vn 0.000000 0.000000 -1.000000
vn 0.000000 0.000000 -1.000000
vn 0.000000 0.000000 -1.000000
vn 0.000000 0.000000 -1.000000
vn 0.000000 0.528010 0.849238
vn 0.000000 0.000000 1.000000
vn 0.000000 0.528010 0.849238
vn 0.000000 0.000000 1.000000
vn 0.000000 0.000000 -1.000000
vn 0.000000 0.000000 -1.000000
vn 0.000000 1.000000 0.000000
vn 0.000000 1.000000 0.000000
s 1
g Walls30 Wall_single_mid_Piece
f 61/57/81 62/58/82 51/60/83
f 51/60/83 62/58/82 54/59/84
s 2
f 60/61/85 61/57/86 52/62/87
f 52/62/87 61/57/86 51/60/88
s 3
f 59/63/89 60/61/90 55/64/91
f 55/64/91 60/61/90 52/62/92
s 4
f 63/65/93 64/66/94 57/68/95
f 57/68/95 64/66/94 56/67/96
s 3
f 58/69/97 59/63/89 53/70/98
f 53/70/98 59/63/89 55/64/91
s 4
f 54/59/99 62/58/100 57/68/95
f 57/68/95 62/58/100 63/65/93
