# This file uses centimeters as units for non-parametric coordinates.

g default
v -1.869477 2.530040 0.146090
v -1.869477 2.580516 0.146090
v -1.869447 2.605754 0.189792
v -1.869385 2.580516 0.233493
v -1.869385 2.530040 0.233493
v -1.869447 2.504817 0.189792
v -1.502248 2.527185 0.146091
v -1.489217 2.575937 0.146090
v -1.482717 2.600306 0.189792
v -1.489247 2.575937 0.233493
v -1.502308 2.527185 0.233493
v -1.508809 2.502802 0.189792
v -1.082941 0.694576 0.173621
v -1.133508 0.694576 0.173621
v -1.158685 0.694576 0.217322
v -1.133508 0.694576 0.261268
v -1.082971 0.694576 0.261268
v -1.057763 0.694576 0.217322
v -1.189757 2.406351 0.149997
v -1.172186 2.425068 0.193698
v -1.189972 2.407498 0.237399
v -1.225257 2.371192 0.237399
v -1.242756 2.352474 0.193698
v -1.224933 2.370044 0.149997
v -1.058160 2.126068 0.155799
v -1.034692 2.130958 0.199988
v -1.060296 2.128174 0.243201
v -1.109521 2.120506 0.242225
v -1.133112 2.115616 0.198035
v -1.107446 2.118393 0.154823
v -1.080194 1.228923 0.170203
v -1.055780 1.225902 0.214149
v -1.081048 1.230167 0.257606
v -1.130853 1.237453 0.257117
v -1.155389 1.240474 0.212928
v -1.129998 1.236209 0.169715
v -1.066705 0.495443 0.145545
v -1.149805 0.495443 0.145545
v -1.149805 0.646280 0.145545
v -1.066705 0.646280 0.145545
v -1.191277 0.495445 0.217323
v -1.191277 0.646280 0.217323
v -1.149743 0.495443 0.289344
v -1.149743 0.646280 0.289344
v -1.066766 0.495443 0.289344
v -1.066766 0.646280 0.289344
v -1.025079 0.495445 0.217322
v -1.025079 0.646280 0.217322
v -1.873230 2.277786 0.149025
v -1.873230 2.328262 0.149025
v -1.873230 2.353500 0.192726
v -1.873230 2.328262 0.236428
v -1.873230 2.277786 0.236428
v -1.873230 2.252563 0.192726
v -1.615662 2.268906 0.149025
v -1.602722 2.317657 0.149025
v -1.596130 2.342026 0.192726
v -1.602722 2.317657 0.236428
v -1.615662 2.268906 0.236428
v -1.622192 2.244522 0.192726
v -1.299927 0.700264 0.170654
v -1.350403 0.700264 0.170654
v -1.375610 0.700264 0.214355
v -1.350403 0.700264 0.258057
v -1.299927 0.700264 0.258057
v -1.274719 0.700264 0.214355
v -1.391052 2.202744 0.152687
v -1.376099 2.218674 0.196388
v -1.391235 2.203720 0.240090
v -1.421204 2.172821 0.240334
v -1.436096 2.156891 0.196633
v -1.421021 2.171844 0.152931
v -1.275208 1.925095 0.152832
v -1.251526 1.929985 0.197021
v -1.277283 1.927200 0.239990
v -1.326477 1.919533 0.239014
v -1.349976 1.914642 0.195068
v -1.324402 1.917419 0.151855
v -1.297119 1.234612 0.167236
v -1.272705 1.231590 0.211182
v -1.298035 1.235855 0.254639
v -1.347839 1.243141 0.253906
v -1.372314 1.246162 0.209961
v -1.346985 1.241898 0.166504
v -1.283569 0.501131 0.142578
v -1.366760 0.501131 0.142578
v -1.366760 0.651968 0.142578
v -1.283569 0.651968 0.142578
v -1.408264 0.501133 0.214355
v -1.408264 0.651968 0.214355
v -1.366760 0.501131 0.286377
v -1.366760 0.651968 0.286377
v -1.283630 0.501131 0.286377
v -1.283630 0.651968 0.286377
v -1.242126 0.501133 0.214355
v -1.242126 0.651968 0.214355
vt 0.375000 0.312500
vt 0.416667 0.312500
vt 0.458333 0.312500
vt 0.500000 0.312500
vt 0.541667 0.312500
vt 0.583333 0.312500
vt 0.625000 0.312500
vt 0.625000 0.338816
vt 0.375000 0.338816
vt 0.416667 0.338816
vt 0.458333 0.338816
vt 0.500000 0.338816
vt 0.541667 0.338816
vt 0.583333 0.338816
vt 0.416667 0.338816
vt 0.375000 0.338816
vt 0.458333 0.338816
vt 0.500000 0.338816
vt 0.541667 0.338816
vt 0.583333 0.338816
vt 0.625000 0.338816
vt 0.406250 0.338816
vt 0.468750 0.338816
vt 0.489583 0.338816
vt 0.510417 0.338816
vt 0.531250 0.338816
vt 0.552083 0.338816
vt 0.572917 0.338816
vt 0.385417 0.338816
vt 0.395833 0.338816
vt 0.520833 0.338816
vt 0.520833 0.338816
vt 0.520833 0.338816
vt 0.520833 0.338816
vt 0.520833 0.338816
vt 0.520833 0.338816
vt 0.395833 0.338816
vt 0.385417 0.338816
vt 0.572917 0.338816
vt 0.552083 0.338816
vt 0.531250 0.338816
vt 0.510417 0.338816
vt 0.489583 0.338816
vt 0.468750 0.338816
vt 0.406250 0.338816
vt 0.375000 0.312500
vt 0.416667 0.312500
vt 0.416667 0.338816
vt 0.375000 0.338816
vt 0.458333 0.312500
vt 0.458333 0.338816
vt 0.500000 0.312500
vt 0.500000 0.338816
vt 0.541667 0.312500
vt 0.541667 0.338816
vt 0.583333 0.312500
vt 0.583333 0.338816
vt 0.625000 0.312500
vt 0.625000 0.338816
vt 0.375000 0.312500
vt 0.416667 0.312500
vt 0.416667 0.338816
vt 0.375000 0.338816
vt 0.458333 0.312500
vt 0.458333 0.338816
vt 0.500000 0.312500
vt 0.500000 0.338816
vt 0.541667 0.312500
vt 0.541667 0.338816
vt 0.583333 0.312500
vt 0.583333 0.338816
vt 0.625000 0.312500
vt 0.625000 0.338816
vt 0.375000 0.312500
vt 0.416667 0.312500
vt 0.416667 0.338816
vt 0.375000 0.338816
vt 0.458333 0.312500
vt 0.458333 0.338816
vt 0.500000 0.312500
vt 0.500000 0.338816
vt 0.541667 0.312500
vt 0.541667 0.338816
vt 0.583333 0.312500
vt 0.583333 0.338816
vt 0.625000 0.312500
vt 0.625000 0.338816
vt 0.572917 0.338816
vt 0.552083 0.338816
vt 0.583333 0.338816
vt 0.625000 0.338816
vt 0.531250 0.338816
vt 0.541667 0.338816
vt 0.510417 0.338816
vt 0.500000 0.338816
vt 0.489583 0.338816
vt 0.458333 0.338816
vt 0.468750 0.338816
vt 0.416667 0.338816
vt 0.406250 0.338816
vt 0.385417 0.338816
vt 0.375000 0.338816
vt 0.489583 0.338816
vt 0.468750 0.338816
vt 0.510417 0.338816
vt 0.531250 0.338816
vt 0.552083 0.338816
vt 0.572917 0.338816
vt 0.406250 0.338816
vt 0.385417 0.338816
vt 0.520833 0.338816
vt 0.520833 0.338816
vt 0.520833 0.338816
vt 0.520833 0.338816
vt 0.520833 0.338816
vt 0.520833 0.338816
vt 0.395833 0.338816
vt 0.395833 0.338816
vn -0.003327 -0.497289 -0.867579
vn 0.006734 0.515061 -0.857127
vn 0.144827 0.545926 -0.825221
vn -0.096981 -0.416450 -0.903971
vn 0.013074 0.999915 -0.000376
vn 0.249025 0.968487 -0.004477
vn 0.006739 0.515399 0.856924
vn 0.137829 0.551904 0.822439
vn -0.003330 -0.497616 0.867391
vn -0.106619 -0.413241 0.904358
vn -0.006691 -0.999978 -0.000385
vn -0.238116 -0.971237 0.000224
vn 0.498781 0.000000 -0.866728
vn -0.499241 0.000000 -0.866463
vn -0.495964 0.116468 -0.860497
vn 0.495508 0.116473 -0.860759
vn -1.000000 0.000000 0.000426
vn -0.993180 0.116595 0.000412
vn -0.500696 0.000000 0.865623
vn -0.497391 0.116482 0.859671
vn 0.500238 0.000000 0.865888
vn 0.496954 0.116512 0.859920
vn 1.000000 0.000000 0.000423
vn 0.993173 0.116649 0.000431
vn 0.522222 -0.019509 -0.852587
vn 0.999776 -0.015702 0.014176
vn 0.996798 0.079702 0.006392
vn 0.501500 0.076035 -0.861810
vn 0.502098 0.002709 0.864807
vn 0.493892 0.086768 0.865183
vn -0.509481 0.020134 0.860246
vn -0.507363 0.090341 0.856984
vn -0.999775 0.017976 -0.011250
vn -0.996218 0.086876 -0.001790
vn -0.488706 -0.002865 -0.872444
vn -0.500319 0.079660 -0.862169
vn 0.718913 0.695097 -0.002080
vn 0.435985 0.396326 -0.807987
vn 0.417444 0.412315 0.809776
vn -0.304608 -0.277798 0.911066
vn -0.721885 -0.692013 -0.000396
vn -0.280307 -0.294917 -0.913484
vn 0.995666 0.091731 0.015291
vn 0.570350 0.041255 -0.820365
vn 0.543433 0.067764 0.836713
vn -0.461806 -0.021529 0.886720
vn -0.996416 -0.083409 -0.014107
vn -0.432295 -0.048682 -0.900417
vn -0.016198 -0.486842 -0.873340
vn 0.021080 0.522807 -0.852190
vn 0.152997 0.555765 -0.817140
vn -0.093054 -0.438841 -0.893734
vn 0.040287 0.999188 0.000000
vn 0.255645 0.966760 -0.004480
vn 0.021080 0.522807 0.852190
vn 0.144335 0.563577 0.813356
vn -0.016198 -0.486842 0.873340
vn -0.105408 -0.434336 0.894562
vn -0.033253 -0.999447 0.000000
vn -0.219065 -0.975710 -0.000440
vn 0.499056 0.000000 -0.866570
vn -0.498872 0.000000 -0.866676
vn -0.495699 0.116507 -0.860644
vn 0.495861 0.116468 -0.860556
vn -1.000000 0.000000 -0.000000
vn -0.993143 0.116906 0.000029
vn -0.500329 0.000000 0.865836
vn -0.496869 0.117020 0.859900
vn 0.500329 0.000000 0.865836
vn 0.496819 0.116926 0.859941
vn 1.000000 0.000000 0.000425
vn 0.993159 0.116770 0.000410
vn 0.517795 -0.022764 -0.855202
vn 0.999727 -0.018275 0.014556
vn 0.996796 0.079718 0.006556
vn 0.502374 0.075839 -0.861318
vn 0.494756 0.003254 0.869026
vn 0.492015 0.087132 0.866215
vn -0.512326 0.023582 0.858467
vn -0.506461 0.090829 0.857466
vn -0.999731 0.021151 -0.009514
vn -0.996195 0.087131 -0.001808
vn -0.494587 -0.003277 -0.869122
vn -0.500458 0.079550 -0.862098
vn 0.763183 0.646176 0.002885
vn 0.488751 0.395176 -0.777791
vn 0.473424 0.399810 0.784871
vn -0.323215 -0.263442 0.908917
vn -0.774382 -0.632715 0.001935
vn -0.310655 -0.269668 -0.911467
vn 0.995079 0.098360 0.011944
vn 0.577293 0.045115 -0.815290
vn 0.553624 0.070719 0.829758
vn -0.472639 -0.022021 0.880981
vn -0.997065 -0.074646 -0.016989
vn -0.444583 -0.046301 -0.894540
s 1
g Pipes_pass_Door1 Pipes
f 1/1/1 2/2/2 8/10/3 7/9/4
f 2/2/2 3/3/5 9/11/6 8/10/3
f 3/3/5 4/4/7 10/12/8 9/11/6
f 4/4/7 5/5/9 11/13/10 10/12/8
f 5/5/9 6/6/11 12/14/12 11/13/10
f 6/6/11 1/7/1 7/8/4 12/14/12
f 37/46/13 38/47/14 39/48/15 40/49/16
f 38/47/14 41/50/17 42/51/18 39/48/15
f 41/50/17 43/52/19 44/53/20 42/51/18
f 43/52/19 45/54/21 46/55/22 44/53/20
f 45/54/21 47/56/23 48/57/24 46/55/22
f 47/56/23 37/58/13 40/59/16 48/57/24
f 31/39/25 32/40/26 18/20/27 13/21/28
f 32/40/26 33/41/29 17/19/30 18/20/27
f 33/41/29 34/42/31 16/18/32 17/19/30
f 34/42/31 35/43/33 15/17/34 16/18/32
f 35/43/33 36/44/35 14/15/36 15/17/34
f 36/45/35 31/38/25 13/16/28 14/15/36
f 8/10/3 9/11/6 20/24/37 19/23/38
f 9/11/6 10/12/8 21/25/39 20/24/37
f 10/12/8 11/13/10 22/26/40 21/25/39
f 11/13/10 12/14/12 23/27/41 22/26/40
f 12/14/12 7/8/4 24/28/42 23/27/41
f 7/9/4 8/10/3 19/22/38 24/29/42
f 19/23/38 20/24/37 26/32/43 25/31/44
f 20/24/37 21/25/39 27/33/45 26/32/43
f 21/25/39 22/26/40 28/34/46 27/33/45
f 22/26/40 23/27/41 29/35/47 28/34/46
f 23/27/41 24/28/42 30/36/48 29/35/47
f 24/29/42 19/22/38 25/30/44 30/37/48
f 25/31/44 26/32/43 32/40/26 31/39/25
f 26/32/43 27/33/45 33/41/29 32/40/26
f 27/33/45 28/34/46 34/42/31 33/41/29
f 28/34/46 29/35/47 35/43/33 34/42/31
f 29/35/47 30/36/48 36/44/35 35/43/33
f 30/37/48 25/30/44 31/38/25 36/45/35
f 14/15/36 13/16/28 40/49/16 39/48/15
f 15/17/34 14/15/36 39/48/15 42/51/18
f 16/18/32 15/17/34 42/51/18 44/53/20
f 17/19/30 16/18/32 44/53/20 46/55/22
f 18/20/27 17/19/30 46/55/22 48/57/24
f 13/21/28 18/20/27 48/57/24 40/59/16
s 4
f 49/60/49 50/61/50 56/62/51 55/63/52
f 50/61/50 51/64/53 57/65/54 56/62/51
f 51/64/53 52/66/55 58/67/56 57/65/54
f 52/66/55 53/68/57 59/69/58 58/67/56
f 53/68/57 54/70/59 60/71/60 59/69/58
f 54/70/59 49/72/49 55/73/52 60/71/60
f 85/74/61 86/75/62 87/76/63 88/77/64
f 86/75/62 89/78/65 90/79/66 87/76/63
f 89/78/65 91/80/67 92/81/68 90/79/66
f 91/80/67 93/82/69 94/83/70 92/81/68
f 93/82/69 95/84/71 96/85/72 94/83/70
f 95/84/71 85/86/61 88/87/64 96/85/72
f 79/88/73 80/89/74 66/90/75 61/91/76
f 80/89/74 81/92/77 65/93/78 66/90/75
f 81/92/77 82/94/79 64/95/80 65/93/78
f 82/94/79 83/96/81 63/97/82 64/95/80
f 83/96/81 84/98/83 62/99/84 63/97/82
f 84/100/83 79/101/73 61/102/76 62/99/84
f 56/62/51 57/65/54 68/103/85 67/104/86
f 57/65/54 58/67/56 69/105/87 68/103/85
f 58/67/56 59/69/58 70/106/88 69/105/87
f 59/69/58 60/71/60 71/107/89 70/106/88
f 60/71/60 55/73/52 72/108/90 71/107/89
f 55/63/52 56/62/51 67/109/86 72/110/90
f 67/104/86 68/103/85 74/111/91 73/112/92
f 68/103/85 69/105/87 75/113/93 74/111/91
f 69/105/87 70/106/88 76/114/94 75/113/93
f 70/106/88 71/107/89 77/115/95 76/114/94
f 71/107/89 72/108/90 78/116/96 77/115/95
f 72/110/90 67/109/86 73/117/92 78/118/96
f 73/112/92 74/111/91 80/89/74 79/88/73
f 74/111/91 75/113/93 81/92/77 80/89/74
f 75/113/93 76/114/94 82/94/79 81/92/77
f 76/114/94 77/115/95 83/96/81 82/94/79
f 77/115/95 78/116/96 84/98/83 83/96/81
f 78/118/96 73/117/92 79/101/73 84/100/83
f 62/99/84 61/102/76 88/77/64 87/76/63
f 63/97/82 62/99/84 87/76/63 90/79/66
f 64/95/80 63/97/82 90/79/66 92/81/68
f 65/93/78 64/95/80 92/81/68 94/83/70
f 66/90/75 65/93/78 94/83/70 96/85/72
f 61/91/76 66/90/75 96/85/72 88/87/64
