# This file uses centimeters as units for non-parametric coordinates.

mtllib Shipping_Crate_3.mtl
g default
v -0.535000 0.002884 0.535000
v 0.535000 0.002884 0.535000
v -0.535000 1.072884 0.535000
v 0.535000 1.072884 0.535000
v -0.535000 1.072884 -0.535000
v 0.535000 1.072884 -0.535000
v -0.535000 0.002884 -0.535000
v 0.535000 0.002884 -0.535000
v -0.428000 0.109884 0.535000
v 0.428000 0.109884 0.535000
v 0.428000 0.965884 0.535000
v -0.428000 0.965884 0.535000
v -0.428000 0.965884 -0.535000
v 0.428000 0.965884 -0.535000
v 0.428000 0.109884 -0.535000
v -0.428000 0.109884 -0.535000
v 0.535000 0.109884 -0.428000
v 0.535000 0.109884 0.428000
v 0.535000 0.965884 -0.428000
v 0.535000 0.965884 0.428000
v -0.535000 0.109884 -0.428000
v -0.535000 0.109884 0.428000
v -0.535000 0.965884 0.428000
v -0.535000 0.965884 -0.428000
v -0.428000 1.072884 0.428000
v 0.428000 1.072884 0.428000
v 0.428000 1.072884 -0.428000
v -0.428000 1.072884 -0.428000
v -0.428000 0.002884 -0.428000
v 0.428000 0.002884 -0.428000
v 0.428000 0.002884 0.428000
v -0.428000 0.002884 0.428000
v -0.428000 0.109884 0.481500
v 0.428000 0.109884 0.481500
v 0.428000 0.965884 0.481500
v -0.428000 0.965884 0.481500
v -0.428000 1.019384 0.428000
v 0.428000 1.019384 0.428000
v 0.428000 1.019384 -0.428000
v -0.428000 1.019384 -0.428000
v -0.428000 0.965884 -0.481500
v 0.428000 0.965884 -0.481500
v 0.428000 0.109884 -0.481500
v -0.428000 0.109884 -0.481500
v -0.428000 0.056384 -0.428000
v 0.428000 0.056384 -0.428000
v 0.428000 0.056384 0.428000
v -0.428000 0.056384 0.428000
v 0.481500 0.109884 -0.428000
v 0.481500 0.109884 0.428000
v 0.481500 0.965884 -0.428000
v 0.481500 0.965884 0.428000
v -0.481500 0.109884 -0.428000
v -0.481500 0.109884 0.428000
v -0.481500 0.965884 0.428000
v -0.481500 0.965884 -0.428000
v -0.428000 0.109884 0.508250
v -0.214000 0.109884 0.508250
v 0.214000 0.965884 0.508250
v 0.428000 0.965884 0.508250
v 0.214000 0.965884 0.481500
v 0.428000 0.965884 0.481500
v -0.428000 0.109884 0.481500
v -0.214000 0.109884 0.481500
v 0.508250 0.109884 0.428000
v 0.508250 0.109884 0.214000
v 0.508250 0.965884 -0.214000
v 0.508250 0.965884 -0.428000
v 0.481500 0.965884 -0.214000
v 0.481500 0.965884 -0.428000
v 0.481500 0.109884 0.428000
v 0.481500 0.109884 0.214000
v 0.428000 0.109884 -0.508250
v 0.214000 0.109884 -0.508250
v -0.214000 0.965884 -0.508250
v -0.428000 0.965884 -0.508250
v -0.214000 0.965884 -0.481500
v -0.428000 0.965884 -0.481500
v 0.428000 0.109884 -0.481500
v 0.214000 0.109884 -0.481500
v -0.508250 0.109884 -0.428000
v -0.508250 0.109884 -0.214000
v -0.508250 0.965884 0.214000
v -0.508250 0.965884 0.428000
v -0.481500 0.965884 0.214000
v -0.481500 0.965884 0.428000
v -0.481500 0.109884 -0.428000
v -0.481500 0.109884 -0.214000
v -0.428000 1.019384 -0.428000
v -0.214000 1.019384 -0.428000
v 0.214000 1.019384 0.428000
v 0.428000 1.019384 0.428000
v 0.214000 1.046134 0.428000
v 0.428000 1.046134 0.428000
v -0.428000 1.046134 -0.428000
v -0.214000 1.046134 -0.428000
vt 0.179542 0.561661
vt 0.179542 0.391883
vt 0.349320 0.391883
vt 0.349320 0.561661
vt 0.526674 0.391883
vt 0.526674 0.561661
vt 0.356896 0.561661
vt 0.356896 0.391883
vt 0.461923 0.023122
vt 0.440701 0.001899
vt 0.652924 0.001899
vt 0.631701 0.023122
vt 0.440701 0.214122
vt 0.461923 0.192900
vt 0.652924 0.214122
vt 0.631701 0.192900
vt 0.873155 0.001899
vt 0.851933 0.023122
vt 0.682155 0.023122
vt 0.660933 0.001899
vt 0.873155 0.214122
vt 0.851933 0.192900
vt 0.660933 0.214122
vt 0.682155 0.192900
vt 0.562403 0.391883
vt 0.562403 0.561661
vt 0.551791 0.561661
vt 0.551791 0.391883
vt 0.586873 0.604105
vt 0.586873 0.434327
vt 0.597484 0.434327
vt 0.597484 0.604105
vt 0.621954 0.434327
vt 0.632565 0.434327
vt 0.632565 0.604105
vt 0.621954 0.604105
vt 0.667646 0.604105
vt 0.657035 0.604105
vt 0.657035 0.434327
vt 0.667646 0.434327
vt 0.692116 0.604105
vt 0.692116 0.434327
vt 0.702727 0.434327
vt 0.702727 0.604105
vt 0.737808 0.434327
vt 0.737808 0.604105
vt 0.727197 0.604105
vt 0.727197 0.434327
vt 0.762278 0.434327
vt 0.772889 0.434327
vt 0.772889 0.604105
vt 0.762278 0.604105
vt 0.807971 0.604105
vt 0.797359 0.604105
vt 0.797359 0.434327
vt 0.807971 0.434327
vt 0.453522 0.777875
vt 0.453522 0.735430
vt 0.623300 0.608097
vt 0.623300 0.650541
vt 0.435946 0.692986
vt 0.435946 0.735430
vt 0.266168 0.608097
vt 0.266168 0.565652
vt 0.191235 0.909200
vt 0.191235 0.866755
vt 0.361013 0.739422
vt 0.361013 0.781866
vt 0.550062 0.909200
vt 0.550062 0.951644
vt 0.380284 0.824311
vt 0.380284 0.781866
vt 0.215601 0.218113
vt 0.385379 0.218113
vt 0.385379 0.387891
vt 0.215601 0.387891
vt 0.171770 0.561661
vt 0.001992 0.561661
vt 0.001992 0.391883
vt 0.171770 0.391883
vt 0.807008 0.239336
vt 0.785786 0.218113
vt 0.998008 0.218113
vt 0.976786 0.239336
vt 0.807008 0.409114
vt 0.785786 0.430336
vt 0.998008 0.430336
vt 0.976786 0.409114
vt 0.588650 0.239336
vt 0.567428 0.218113
vt 0.779650 0.218113
vt 0.758428 0.239336
vt 0.588650 0.409114
vt 0.567428 0.430336
vt 0.779650 0.430336
vt 0.758428 0.409114
vt 0.544862 0.561661
vt 0.534251 0.561661
vt 0.534251 0.391883
vt 0.544862 0.391883
vt 0.579943 0.604105
vt 0.569332 0.604105
vt 0.569332 0.434327
vt 0.579943 0.434327
vt 0.685187 0.604105
vt 0.674576 0.604105
vt 0.674576 0.434327
vt 0.685187 0.434327
vt 0.720268 0.604105
vt 0.709657 0.604105
vt 0.709657 0.434327
vt 0.720268 0.434327
vt 0.814900 0.434327
vt 0.825511 0.434327
vt 0.825511 0.604105
vt 0.814900 0.604105
vt 0.860592 0.604105
vt 0.849981 0.604105
vt 0.849981 0.434327
vt 0.860592 0.434327
vt 0.885062 0.434327
vt 0.895673 0.434327
vt 0.895673 0.604105
vt 0.885062 0.604105
vt 0.930755 0.604105
vt 0.920143 0.604105
vt 0.920143 0.434327
vt 0.930755 0.434327
vt 0.816789 0.650541
vt 0.816789 0.608097
vt 0.822095 0.608097
vt 0.822095 0.650541
vt 0.822095 0.777875
vt 0.816789 0.777875
vt 0.629435 0.777875
vt 0.629435 0.735430
vt 0.634741 0.735430
vt 0.634741 0.777875
vt 0.629435 0.608097
vt 0.634741 0.608097
vt 0.447387 0.692986
vt 0.447387 0.735430
vt 0.442081 0.735430
vt 0.442081 0.692986
vt 0.442081 0.565652
vt 0.447387 0.565652
vt 0.254727 0.735430
vt 0.254727 0.692986
vt 0.260032 0.692986
vt 0.260032 0.735430
vt 0.254727 0.565652
vt 0.260032 0.565652
vt 0.072678 0.692986
vt 0.072678 0.735430
vt 0.067373 0.735430
vt 0.067373 0.692986
vt 0.067373 0.565652
vt 0.072678 0.565652
vt 0.184847 0.739422
vt 0.184847 0.781866
vt 0.179542 0.781866
vt 0.179542 0.739422
vt 0.184847 0.909200
vt 0.179542 0.909200
vt 0.368590 0.781866
vt 0.368590 0.739422
vt 0.373895 0.739422
vt 0.373895 0.781866
vt 0.373895 0.909200
vt 0.368590 0.909200
vt 0.562944 0.781866
vt 0.562944 0.824311
vt 0.557638 0.824311
vt 0.557638 0.781866
vt 0.562944 0.951644
vt 0.557638 0.951644
vt 0.569332 0.781866
vt 0.611777 0.781866
vt 0.739110 0.951644
vt 0.696666 0.951644
vt 0.885714 0.781866
vt 0.928158 0.781866
vt 0.800825 0.951644
vt 0.758380 0.951644
vt 0.391515 0.387891
vt 0.391515 0.218113
vt 0.561293 0.218113
vt 0.561293 0.387891
vt 0.039688 0.387891
vt 0.039688 0.218113
vt 0.209466 0.218113
vt 0.209466 0.387891
vt 0.023214 0.023122
vt 0.001992 0.001899
vt 0.214214 0.001899
vt 0.192992 0.023122
vt 0.001992 0.214122
vt 0.023214 0.192900
vt 0.214214 0.214122
vt 0.192992 0.192900
vt 0.241692 0.023122
vt 0.220470 0.001899
vt 0.432692 0.001899
vt 0.411470 0.023122
vt 0.220470 0.214122
vt 0.241692 0.192900
vt 0.432692 0.214122
vt 0.411470 0.192900
vt 0.615024 0.604105
vt 0.604413 0.604105
vt 0.604413 0.434327
vt 0.615024 0.434327
vt 0.650105 0.604105
vt 0.639494 0.604105
vt 0.639494 0.434327
vt 0.650105 0.434327
vt 0.755349 0.604105
vt 0.744738 0.604105
vt 0.744738 0.434327
vt 0.755349 0.434327
vt 0.790430 0.604105
vt 0.779819 0.604105
vt 0.779819 0.434327
vt 0.790430 0.434327
vt 0.843052 0.434327
vt 0.843052 0.604105
vt 0.832441 0.604105
vt 0.832441 0.434327
vt 0.878133 0.434327
vt 0.878133 0.604105
vt 0.867522 0.604105
vt 0.867522 0.434327
vt 0.902603 0.604105
vt 0.902603 0.434327
vt 0.913214 0.434327
vt 0.913214 0.604105
vt 0.937684 0.604105
vt 0.937684 0.434327
vt 0.948295 0.434327
vt 0.948295 0.604105
vt 0.828230 0.608097
vt 0.870675 0.608097
vt 0.998008 0.777875
vt 0.955563 0.777875
vt 0.768209 0.608097
vt 0.810654 0.608097
vt 0.683320 0.777875
vt 0.640876 0.777875
vt 0.248591 0.735430
vt 0.206147 0.735430
vt 0.078814 0.565652
vt 0.121258 0.565652
vt 0.044436 0.909200
vt 0.001992 0.909200
vt 0.129325 0.739422
vt 0.171770 0.739422
vt 0.746687 0.824311
vt 0.746687 0.781866
vt 0.751992 0.781866
vt 0.751992 0.824311
vt 0.751992 0.951644
vt 0.746687 0.951644
vt 0.935735 0.951644
vt 0.935735 0.909200
vt 0.941041 0.909200
vt 0.941041 0.951644
vt 0.935735 0.781866
vt 0.941041 0.781866
vn 0.000000 0.000000 1.000000
vn 0.000000 0.000000 1.000000
vn 0.000000 0.000000 1.000000
vn 0.000000 0.000000 1.000000
vn 0.000000 1.000000 0.000000
vn 0.000000 1.000000 0.000000
vn 0.000000 1.000000 0.000000
vn 0.000000 1.000000 0.000000
vn 0.000000 0.000000 -1.000000
vn 0.000000 0.000000 -1.000000
vn 0.000000 0.000000 -1.000000
vn 0.000000 0.000000 -1.000000
vn 0.000000 -1.000000 0.000000
vn 0.000000 -1.000000 0.000000
vn 0.000000 -1.000000 0.000000
vn 0.000000 -1.000000 0.000000
vn 1.000000 0.000000 0.000000
vn 1.000000 0.000000 0.000000
vn 1.000000 0.000000 0.000000
vn 1.000000 0.000000 0.000000
vn -1.000000 0.000000 0.000000
vn -1.000000 0.000000 0.000000
vn -1.000000 0.000000 0.000000
vn -1.000000 0.000000 0.000000
vn 0.000000 0.000000 1.000000
vn 0.000000 0.000000 1.000000
vn 0.000000 0.000000 1.000000
vn 0.000000 0.000000 1.000000
vn 0.000000 0.000000 1.000000
vn 0.000000 0.000000 1.000000
vn -0.000001 0.000000 1.000000
vn -0.000001 0.000000 1.000000
vn 0.000000 0.000000 -1.000000
vn -0.000000 0.000000 -1.000000
vn 0.000001 0.000000 -1.000000
vn 0.000001 0.000000 -1.000000
vn -0.000000 0.000000 -1.000000
vn -0.000000 0.000000 -1.000000
vn -0.000000 0.000000 -1.000000
vn -0.000000 0.000000 -1.000000
vn 1.000000 -0.000000 0.000000
vn 1.000000 -0.000000 0.000000
vn 1.000000 0.000000 0.000000
vn 1.000000 0.000000 0.000000
vn 1.000000 0.000000 0.000000
vn 1.000000 0.000000 0.000000
vn 1.000000 0.000000 0.000000
vn 1.000000 0.000000 0.000000
vn -1.000000 0.000000 0.000000
vn -1.000000 -0.000000 0.000000
vn -1.000000 -0.000000 0.000000
vn -1.000000 -0.000000 0.000000
vn -1.000000 0.000000 0.000000
vn -1.000000 0.000000 0.000000
vn -1.000000 -0.000000 0.000000
vn -1.000000 -0.000000 0.000000
vn 0.000000 1.000000 -0.000001
vn 0.000000 1.000000 -0.000000
vn 0.000000 1.000000 -0.000000
vn 0.000000 1.000000 0.000000
vn 0.000000 1.000000 0.000001
vn 0.000000 1.000000 0.000000
vn 0.000000 1.000000 0.000000
vn 0.000000 1.000000 0.000000
vn 0.000000 -1.000000 0.000000
vn 0.000000 -1.000000 0.000000
vn 0.000000 -1.000000 -0.000000
vn 0.000000 -1.000000 -0.000000
vn 0.000000 -1.000000 -0.000000
vn 0.000000 -1.000000 -0.000000
vn 0.000000 -1.000000 0.000000
vn 0.000000 -1.000000 -0.000000
vn 0.000000 1.000000 0.000000
vn 0.000000 1.000000 0.000000
vn 0.000000 1.000000 0.000000
vn 0.000000 1.000000 0.000000
vn -1.000000 0.000000 0.000000
vn -1.000000 0.000000 0.000000
vn -1.000000 0.000000 0.000000
vn -1.000000 0.000000 0.000000
vn 0.000000 -1.000000 0.000000
vn 0.000000 -1.000000 0.000000
vn 0.000000 -1.000000 0.000000
vn 0.000000 -1.000000 0.000000
vn 1.000000 0.000000 0.000000
vn 1.000000 0.000000 0.000000
vn 1.000000 0.000000 0.000000
vn 1.000000 0.000000 0.000000
vn 0.000000 0.000000 -1.000000
vn 0.000000 0.000000 -1.000000
vn 0.000000 0.000000 -1.000000
vn 0.000000 0.000000 -1.000000
vn -1.000000 0.000000 0.000000
vn -1.000000 0.000000 0.000000
vn -1.000000 0.000000 0.000000
vn -1.000000 0.000000 0.000000
vn 0.000000 0.000000 1.000000
vn 0.000000 0.000000 1.000000
vn 0.000000 0.000000 1.000000
vn 0.000000 0.000000 1.000000
vn 1.000000 0.000000 0.000000
vn 1.000000 0.000000 0.000000
vn 1.000000 0.000000 0.000000
vn 1.000000 0.000000 0.000000
vn 0.000000 -1.000000 0.000000
vn 0.000000 -1.000000 0.000000
vn 0.000000 -1.000000 0.000000
vn 0.000000 -1.000000 0.000000
vn -1.000000 0.000000 0.000000
vn -1.000000 0.000000 0.000000
vn -1.000000 0.000000 0.000000
vn -1.000000 0.000000 0.000000
vn 0.000000 1.000000 0.000000
vn 0.000000 1.000000 0.000000
vn 0.000000 1.000000 0.000000
vn 0.000000 1.000000 0.000000
vn 1.000000 0.000000 0.000000
vn 1.000000 0.000000 0.000000
vn 1.000000 0.000000 0.000000
vn 1.000000 0.000000 0.000000
vn 0.000000 0.000000 1.000000
vn 0.000000 0.000000 1.000000
vn 0.000000 0.000000 1.000000
vn 0.000000 0.000000 1.000000
vn -1.000000 0.000000 0.000000
vn -1.000000 0.000000 0.000000
vn -1.000000 0.000000 0.000000
vn -1.000000 0.000000 0.000000
vn 0.000000 0.000000 -1.000000
vn 0.000000 0.000000 -1.000000
vn 0.000000 0.000000 -1.000000
vn 0.000000 0.000000 -1.000000
vn 1.000000 0.000000 0.000000
vn 1.000000 0.000000 0.000000
vn 1.000000 0.000000 0.000000
vn 1.000000 0.000000 0.000000
vn 0.000000 1.000000 0.000000
vn 0.000000 1.000000 0.000000
vn 0.000000 1.000000 0.000000
vn 0.000000 1.000000 0.000000
vn 0.000000 0.000000 1.000000
vn 0.000000 0.000000 1.000000
vn 0.000000 0.000000 1.000000
vn 0.000000 0.000000 1.000000
vn 0.000000 -1.000000 0.000000
vn 0.000000 -1.000000 0.000000
vn 0.000000 -1.000000 0.000000
vn 0.000000 -1.000000 0.000000
vn 0.000000 0.000000 -1.000000
vn 0.000000 0.000000 -1.000000
vn 0.000000 0.000000 -1.000000
vn 0.000000 0.000000 -1.000000
vn 0.000000 1.000000 0.000000
vn 0.000000 1.000000 0.000000
vn 0.000000 1.000000 0.000000
vn 0.000000 1.000000 0.000000
vn 0.000000 0.000000 -1.000000
vn 0.000000 0.000000 -1.000000
vn 0.000000 0.000000 -1.000000
vn 0.000000 0.000000 -1.000000
vn 0.000000 -1.000000 0.000000
vn 0.000000 -1.000000 0.000000
vn 0.000000 -1.000000 0.000000
vn 0.000000 -1.000000 0.000000
vn 0.000000 0.000000 1.000000
vn 0.000000 0.000000 1.000000
vn 0.000000 0.000000 1.000000
vn 0.000000 0.000000 1.000000
vn 0.000000 0.000000 1.000000
vn 0.000000 0.000000 1.000000
vn 0.000000 0.000000 1.000000
vn 0.000000 0.000000 1.000000
vn 0.000000 1.000000 0.000000
vn 0.000000 1.000000 0.000000
vn 0.000000 1.000000 0.000000
vn 0.000000 1.000000 0.000000
vn 0.000000 0.000000 -1.000000
vn 0.000000 0.000000 -1.000000
vn 0.000000 0.000000 -1.000000
vn 0.000000 0.000000 -1.000000
vn 0.000000 -1.000000 0.000000
vn 0.000000 -1.000000 0.000000
vn 0.000000 -1.000000 0.000000
vn 0.000000 -1.000000 0.000000
vn 0.800000 -0.600000 0.000000
vn 0.800000 -0.600000 0.000000
vn 0.800000 -0.600000 0.000000
vn 0.800000 -0.600000 0.000000
vn -0.800000 0.600000 0.000000
vn -0.800000 0.600000 0.000000
vn -0.800000 0.600000 0.000000
vn -0.800000 0.600000 0.000000
vn 1.000000 0.000000 0.000000
vn 1.000000 0.000000 0.000000
vn 1.000000 0.000000 0.000000
vn 1.000000 0.000000 0.000000
vn 0.000000 1.000000 0.000000
vn 0.000000 1.000000 0.000000
vn 0.000000 1.000000 0.000000
vn 0.000000 1.000000 0.000000
vn -1.000000 0.000000 0.000000
vn -1.000000 0.000000 0.000000
vn -1.000000 0.000000 0.000000
vn -1.000000 0.000000 0.000000
vn 0.000000 -1.000000 0.000000
vn 0.000000 -1.000000 0.000000
vn 0.000000 -1.000000 0.000000
vn 0.000000 -1.000000 0.000000
vn 0.000000 -0.600001 -0.799999
vn 0.000000 -0.600001 -0.799999
vn 0.000000 -0.600000 -0.800000
vn 0.000000 -0.600000 -0.800000
vn 0.000000 0.600000 0.800000
vn 0.000000 0.600000 0.800000
vn 0.000000 0.600001 0.799999
vn 0.000000 0.600001 0.799999
vn 0.000000 0.000000 -1.000000
vn 0.000000 0.000000 -1.000000
vn 0.000000 0.000000 -1.000000
vn 0.000000 0.000000 -1.000000
vn 0.000000 1.000000 0.000000
vn 0.000000 1.000000 0.000000
vn 0.000000 1.000000 0.000000
vn 0.000000 1.000000 0.000000
vn 0.000000 0.000000 1.000000
vn 0.000000 0.000000 1.000000
vn 0.000000 0.000000 1.000000
vn 0.000000 0.000000 1.000000
vn 0.000000 -1.000000 0.000000
vn 0.000000 -1.000000 0.000000
vn 0.000000 -1.000000 0.000000
vn 0.000000 -1.000000 0.000000
vn -0.800000 -0.600000 0.000000
vn -0.800000 -0.600000 0.000000
vn -0.800000 -0.600000 0.000000
vn -0.800000 -0.600000 0.000000
vn 0.800000 0.600000 0.000000
vn 0.800000 0.600000 0.000000
vn 0.800000 0.600000 0.000000
vn 0.800000 0.600000 0.000000
vn -1.000000 0.000000 0.000000
vn -1.000000 0.000000 0.000000
vn -1.000000 0.000000 0.000000
vn -1.000000 0.000000 0.000000
vn 0.000000 1.000000 0.000000
vn 0.000000 1.000000 0.000000
vn 0.000000 1.000000 0.000000
vn 0.000000 1.000000 0.000000
vn 1.000000 -0.000000 0.000000
vn 1.000000 -0.000000 0.000000
vn 1.000000 -0.000000 0.000000
vn 1.000000 0.000000 0.000000
vn 0.000000 -1.000000 0.000000
vn 0.000000 -1.000000 0.000000
vn 0.000000 -1.000000 0.000000
vn 0.000000 -1.000000 0.000000
vn 0.000000 -0.599999 0.800001
vn 0.000000 -0.599999 0.800000
vn 0.000000 -0.600001 0.800000
vn 0.000000 -0.600001 0.799999
vn 0.000000 0.600001 -0.799999
vn 0.000000 0.600001 -0.799999
vn 0.000000 0.599999 -0.800001
vn 0.000000 0.599999 -0.800001
vn 0.000000 -1.000000 0.000000
vn 0.000000 -1.000000 0.000000
vn 0.000000 -1.000000 0.000000
vn 0.000000 -1.000000 0.000000
vn 0.000000 0.000000 1.000000
vn 0.000000 0.000000 1.000000
vn 0.000000 0.000000 1.000000
vn 0.000000 0.000000 1.000000
vn 0.000000 1.000000 -0.000000
vn 0.000000 1.000000 -0.000000
vn 0.000000 1.000000 -0.000000
vn 0.000000 1.000000 0.000000
vn 0.000000 0.000000 -1.000000
vn 0.000000 0.000000 -1.000000
vn 0.000000 0.000000 -1.000000
vn 0.000000 0.000000 -1.000000
vn 0.799999 0.000000 -0.600001
vn 0.799999 0.000000 -0.600001
vn 0.800001 0.000000 -0.599998
vn 0.800001 0.000000 -0.599998
vn -0.800001 0.000000 0.599998
vn -0.800001 0.000000 0.599998
vn -0.799999 0.000000 0.600001
vn -0.799999 0.000000 0.600001
s 1
g Shipping_Crate_3
usemtl lambert9SG
f 36/185/1 33/186/2 35/188/3
f 35/188/3 33/186/2 34/187/4
s 2
f 37/73/5 38/74/6 40/76/7
f 40/76/7 38/74/6 39/75/8
s 3
f 44/189/9 41/190/10 43/192/11
f 43/192/11 41/190/10 42/191/12
s 4
f 47/77/13 48/78/14 46/80/15
f 46/80/15 48/78/14 45/79/16
s 5
f 52/1/17 50/2/18 51/4/19
f 51/4/19 50/2/18 49/3/20
s 6
f 54/5/21 55/6/22 53/8/23
f 53/8/23 55/6/22 56/7/24
s 7
f 9/193/25 1/194/26 10/196/27
f 10/196/27 1/194/26 2/195/28
f 2/195/28 4/199/29 10/196/27
f 10/196/27 4/199/29 11/200/30
f 4/199/29 3/197/31 11/200/30
f 11/200/30 3/197/31 12/198/32
f 3/197/31 1/194/26 12/198/32
f 12/198/32 1/194/26 9/193/25
s 8
f 13/201/33 5/202/34 14/204/35
f 14/204/35 5/202/34 6/203/36
f 6/203/36 8/207/37 14/204/35
f 14/204/35 8/207/37 15/208/38
f 7/205/39 16/206/40 8/207/37
f 8/207/37 16/206/40 15/208/38
f 7/205/39 5/202/34 16/206/40
f 16/206/40 5/202/34 13/201/33
s 10
f 18/9/41 2/10/42 17/12/43
f 17/12/43 2/10/42 8/11/44
f 8/11/44 6/15/45 17/12/43
f 17/12/43 6/15/45 19/16/46
f 4/13/47 20/14/48 6/15/45
f 6/15/45 20/14/48 19/16/46
f 4/13/47 2/10/42 20/14/48
f 20/14/48 2/10/42 18/9/41
s 12
f 1/17/49 22/18/50 7/20/51
f 7/20/51 22/18/50 21/19/52
f 1/17/49 3/21/53 22/18/50
f 22/18/50 3/21/53 23/22/54
f 23/22/54 3/21/53 24/24/55
f 24/24/55 3/21/53 5/23/56
f 5/23/56 7/20/51 24/24/55
f 24/24/55 7/20/51 21/19/52
s 13
f 25/81/57 3/82/58 26/84/59
f 26/84/59 3/82/58 4/83/60
f 26/84/59 4/83/60 27/88/61
f 27/88/61 4/83/60 6/87/62
f 5/86/63 28/85/64 6/87/62
f 6/87/62 28/85/64 27/88/61
f 3/82/58 25/81/57 5/86/63
f 5/86/63 25/81/57 28/85/64
s 15
f 29/89/65 7/90/66 30/92/67
f 30/92/67 7/90/66 8/91/68
f 2/95/69 31/96/70 8/91/68
f 8/91/68 31/96/70 30/92/67
f 1/94/71 32/93/72 2/95/69
f 2/95/69 32/93/72 31/96/70
f 32/93/72 1/94/71 29/89/65
f 29/89/65 1/94/71 7/90/66
s 18
f 33/97/73 9/98/74 34/100/75
f 34/100/75 9/98/74 10/99/76
s 19
f 10/25/77 11/26/78 34/28/79
f 34/28/79 11/26/78 35/27/80
s 20
f 12/101/81 36/102/82 11/104/83
f 11/104/83 36/102/82 35/103/84
s 21
f 12/29/85 9/30/86 36/32/87
f 36/32/87 9/30/86 33/31/88
s 22
f 37/209/89 25/210/90 38/212/91
f 38/212/91 25/210/90 26/211/92
s 23
f 38/33/93 26/34/94 39/36/95
f 39/36/95 26/34/94 27/35/96
s 24
f 28/213/97 40/214/98 27/216/99
f 27/216/99 40/214/98 39/215/100
s 25
f 25/37/101 37/38/102 28/40/103
f 28/40/103 37/38/102 40/39/104
s 26
f 41/105/105 13/106/106 42/108/107
f 42/108/107 13/106/106 14/107/108
s 27
f 14/41/109 15/42/110 42/44/111
f 42/44/111 15/42/110 43/43/112
s 28
f 16/109/113 44/110/114 15/112/115
f 15/112/115 44/110/114 43/111/116
s 29
f 16/45/117 13/46/118 44/48/119
f 44/48/119 13/46/118 41/47/120
s 30
f 45/217/121 29/218/122 46/220/123
f 46/220/123 29/218/122 30/219/124
s 31
f 31/49/125 47/50/126 30/52/127
f 30/52/127 47/50/126 46/51/128
s 32
f 32/221/129 48/222/130 31/224/131
f 31/224/131 48/222/130 47/223/132
s 33
f 48/53/133 32/54/134 45/56/135
f 45/56/135 32/54/134 29/55/136
s 34
f 50/113/137 18/114/138 49/116/139
f 49/116/139 18/114/138 17/115/140
s 35
f 17/225/141 19/226/142 49/228/143
f 49/228/143 19/226/142 51/227/144
s 36
f 20/117/145 52/118/146 19/120/147
f 19/120/147 52/118/146 51/119/148
s 37
f 20/229/149 18/230/150 52/232/151
f 52/232/151 18/230/150 50/231/152
s 38
f 22/121/153 54/122/154 21/124/155
f 21/124/155 54/122/154 53/123/156
s 39
f 22/233/157 23/234/158 54/236/159
f 54/236/159 23/234/158 55/235/160
s 40
f 55/125/161 23/126/162 56/128/163
f 56/128/163 23/126/162 24/127/164
s 41
f 24/237/165 21/238/166 56/240/167
f 56/240/167 21/238/166 53/239/168
s 42
f 57/241/169 58/242/170 59/244/171
f 59/244/171 58/242/170 60/243/172
s 43
f 59/129/173 60/130/174 61/132/175
f 61/132/175 60/130/174 62/131/176
s 44
f 62/246/177 64/247/178 61/245/179
f 61/245/179 64/247/178 63/248/180
s 45
f 63/135/181 64/136/182 57/138/183
f 57/138/183 64/136/182 58/137/184
s 46
f 58/137/185 64/136/186 60/140/187
f 60/140/187 64/136/186 62/139/188
s 47
f 63/133/189 57/134/190 61/132/191
f 61/132/191 57/134/190 59/129/192
s 48
f 65/57/193 66/58/194 67/60/195
f 67/60/195 66/58/194 68/59/196
s 49
f 67/141/197 68/142/198 69/144/199
f 69/144/199 68/142/198 70/143/200
s 50
f 70/62/201 72/63/202 69/61/203
f 69/61/203 72/63/202 71/64/204
s 51
f 71/147/205 72/148/206 65/150/207
f 65/150/207 72/148/206 66/149/208
s 52
f 66/149/209 72/148/210 68/152/211
f 68/152/211 72/148/210 70/151/212
s 53
f 71/145/213 65/146/214 69/144/215
f 69/144/215 65/146/214 67/141/216
s 54
f 73/249/217 74/250/218 75/252/219
f 75/252/219 74/250/218 76/251/220
s 55
f 75/153/221 76/154/222 77/156/223
f 77/156/223 76/154/222 78/155/224
s 56
f 78/254/225 80/255/226 77/253/227
f 77/253/227 80/255/226 79/256/228
s 57
f 79/159/229 80/160/230 73/162/231
f 73/162/231 80/160/230 74/161/232
s 58
f 74/161/233 80/160/234 76/164/235
f 76/164/235 80/160/234 78/163/236
s 59
f 79/157/237 73/158/238 77/156/239
f 77/156/239 73/158/238 75/153/240
s 60
f 81/65/241 82/66/242 83/68/243
f 83/68/243 82/66/242 84/67/244
s 61
f 83/165/245 84/166/246 85/168/247
f 85/168/247 84/166/246 86/167/248
s 62
f 86/70/249 88/71/250 85/69/251
f 85/69/251 88/71/250 87/72/252
s 63
f 87/171/253 88/172/254 81/174/255
f 81/174/255 88/172/254 82/173/256
s 64
f 82/173/257 88/172/258 84/176/259
f 84/176/259 88/172/258 86/175/260
s 65
f 87/169/261 81/170/262 85/168/263
f 85/168/263 81/170/262 83/165/264
s 66
f 89/177/265 90/178/266 91/180/267
f 91/180/267 90/178/266 92/179/268
s 67
f 91/257/269 92/258/270 93/260/271
f 93/260/271 92/258/270 94/259/272
s 68
f 94/182/273 96/183/274 93/181/275
f 93/181/275 96/183/274 95/184/276
s 69
f 95/263/277 96/264/278 89/266/279
f 89/266/279 96/264/278 90/265/280
s 70
f 90/265/281 96/264/282 92/268/283
f 92/268/283 96/264/282 94/267/284
s 71
f 95/261/285 89/262/286 93/260/287
f 93/260/287 89/262/286 91/257/288
