# This file uses centimeters as units for non-parametric coordinates.

g default
v 19.699606 2.577956 11.984519
v 19.270607 2.577956 11.850456
v 18.841606 2.577956 11.984519
v 19.833670 2.577956 12.413519
v 19.270607 2.577956 12.413519
v 18.707544 2.577956 12.413519
v 19.699606 2.577956 12.842519
v 19.270607 2.577956 12.992375
v 18.841606 2.577956 12.842519
v 18.888765 2.577956 4.381797
v 18.459766 2.577956 4.247734
v 18.030766 2.577956 4.381797
v 19.022829 2.577956 4.810796
v 18.459766 2.577956 4.810796
v 17.896704 2.577956 4.810796
v 18.888765 2.577956 5.239797
v 18.459766 2.577956 5.389653
v 18.030766 2.577956 5.239797
v 3.314942 2.787055 -8.817294
v 2.885943 2.787055 -8.951357
v 2.456941 2.787055 -8.817294
v 3.449006 2.787055 -8.388294
v 2.885943 2.787055 -8.388294
v 2.322880 2.787055 -8.388294
v 3.314942 2.787055 -7.959294
v 2.885943 2.787055 -7.809438
v 2.456941 2.787055 -7.959294
v -7.457718 2.787055 -13.256556
v -7.886717 2.787055 -13.390618
v -8.315719 2.787055 -13.256556
v -7.323655 2.787055 -12.827556
v -7.886717 2.787055 -12.827556
v -8.449780 2.787055 -12.827556
v -7.457718 2.787055 -12.398556
v -7.886717 2.787055 -12.248699
v -8.315719 2.787055 -12.398556
v -1.762378 2.787055 -16.758701
v -1.896441 2.787055 -16.329702
v -1.762378 2.787055 -15.900701
v -1.333378 2.787055 -16.892765
v -1.333378 2.787055 -16.329702
v -1.333378 2.787055 -15.766640
v -0.904378 2.787055 -16.758701
v -0.754521 2.787055 -16.329702
v -0.904378 2.787055 -15.900701
v 11.474269 2.518649 17.734802
v 11.340206 2.518649 18.163801
v 11.474269 2.518649 18.592804
v 11.903269 2.518649 17.600739
v 11.903269 2.518649 18.163801
v 11.903269 2.518649 18.726864
v 12.332269 2.518649 17.734802
v 12.482125 2.518649 18.163801
v 12.332269 2.518649 18.592804
vt 0.817059 0.672257
vt 0.816041 0.776678
vt 0.737258 0.696345
vt 0.711622 0.775660
vt 0.896375 0.697894
vt 0.920462 0.777694
vt 0.735708 0.855461
vt 0.814996 0.884027
vt 0.894825 0.857011
vt 0.817059 0.672257
vt 0.816041 0.776678
vt 0.737258 0.696345
vt 0.711622 0.775660
vt 0.896375 0.697894
vt 0.920462 0.777694
vt 0.735708 0.855461
vt 0.814996 0.884027
vt 0.894825 0.857011
vt 0.817059 0.672257
vt 0.816041 0.776678
vt 0.737258 0.696345
vt 0.711622 0.775660
vt 0.896375 0.697894
vt 0.920462 0.777694
vt 0.735708 0.855461
vt 0.814996 0.884027
vt 0.894825 0.857011
vt 0.817059 0.672257
vt 0.816041 0.776678
vt 0.737258 0.696345
vt 0.711622 0.775660
vt 0.896375 0.697894
vt 0.920462 0.777694
vt 0.735708 0.855461
vt 0.814996 0.884027
vt 0.894825 0.857011
vt 0.817059 0.672257
vt 0.816041 0.776678
vt 0.737258 0.696345
vt 0.711622 0.775660
vt 0.896375 0.697894
vt 0.920462 0.777694
vt 0.735708 0.855461
vt 0.814996 0.884027
vt 0.894825 0.857011
vt 0.817059 0.672257
vt 0.816041 0.776678
vt 0.737258 0.696345
vt 0.711622 0.775660
vt 0.896375 0.697894
vt 0.920462 0.777694
vt 0.735708 0.855461
vt 0.814996 0.884027
vt 0.894825 0.857011
vn 0.000000 1.000000 0.000000
vn 0.000000 1.000000 0.000000
vn 0.000000 1.000000 -0.000000
vn 0.000000 1.000000 0.000000
vn 0.000000 1.000000 -0.000000
vn 0.000000 1.000000 0.000000
vn 0.000000 1.000000 0.000000
vn 0.000000 1.000000 0.000000
vn 0.000000 1.000000 0.000000
vn 0.000000 1.000000 0.000000
vn 0.000000 1.000000 0.000000
vn 0.000000 1.000000 -0.000000
vn 0.000000 1.000000 0.000000
vn 0.000000 1.000000 -0.000000
vn 0.000000 1.000000 0.000000
vn 0.000000 1.000000 0.000000
vn 0.000000 1.000000 0.000000
vn 0.000000 1.000000 0.000000
vn 0.000000 1.000000 0.000000
vn 0.000000 1.000000 0.000000
vn 0.000000 1.000000 -0.000000
vn 0.000000 1.000000 0.000000
vn 0.000000 1.000000 0.000000
vn 0.000000 1.000000 0.000000
vn 0.000000 1.000000 0.000000
vn 0.000000 1.000000 0.000000
vn 0.000000 1.000000 0.000000
vn 0.000000 1.000000 0.000000
vn 0.000000 1.000000 0.000000
vn 0.000000 1.000000 0.000000
vn 0.000000 1.000000 0.000000
vn 0.000000 1.000000 0.000000
vn 0.000000 1.000000 0.000000
vn 0.000000 1.000000 0.000000
vn 0.000000 1.000000 0.000000
vn 0.000000 1.000000 0.000000
vn 0.000000 1.000000 0.000000
vn 0.000000 1.000000 -0.000000
vn 0.000000 1.000000 0.000000
vn 0.000000 1.000000 0.000000
vn 0.000000 1.000000 0.000000
vn 0.000000 1.000000 0.000000
vn 0.000000 1.000000 0.000000
vn 0.000000 1.000000 -0.000000
vn 0.000000 1.000000 -0.000000
vn 0.000000 1.000000 0.000000
vn 0.000000 1.000000 0.000000
vn 0.000000 1.000000 0.000000
vn 0.000000 1.000000 0.000000
vn 0.000000 1.000000 0.000000
vn 0.000000 1.000000 0.000000
vn 0.000000 1.000000 0.000000
vn 0.000000 1.000000 0.000000
vn 0.000000 1.000000 0.000000
s 1
g Air_refresher10_Grid
f 2/1/1 5/2/2 1/3/3
f 1/3/3 5/2/2 4/4/4
f 2/1/1 3/5/5 5/2/2
f 5/2/2 3/5/5 6/6/6
f 4/4/4 5/2/2 7/7/7
f 7/7/7 5/2/2 8/8/8
f 6/6/6 9/9/9 5/2/2
f 5/2/2 9/9/9 8/8/8
s 2
f 11/10/10 14/11/11 10/12/12
f 10/12/12 14/11/11 13/13/13
f 11/10/10 12/14/14 14/11/11
f 14/11/11 12/14/14 15/15/15
f 13/13/13 14/11/11 16/16/16
f 16/16/16 14/11/11 17/17/17
f 15/15/15 18/18/18 14/11/11
f 14/11/11 18/18/18 17/17/17
s 3
f 20/19/19 23/20/20 19/21/21
f 19/21/21 23/20/20 22/22/22
f 20/19/19 21/23/23 23/20/20
f 23/20/20 21/23/23 24/24/24
f 22/22/22 23/20/20 25/25/25
f 25/25/25 23/20/20 26/26/26
f 24/24/24 27/27/27 23/20/20
f 23/20/20 27/27/27 26/26/26
s 4
f 29/28/28 32/29/29 28/30/30
f 28/30/30 32/29/29 31/31/31
f 29/28/28 30/32/32 32/29/29
f 32/29/29 30/32/32 33/33/33
f 31/31/31 32/29/29 34/34/34
f 34/34/34 32/29/29 35/35/35
f 33/33/33 36/36/36 32/29/29
f 32/29/29 36/36/36 35/35/35
s 5
f 38/37/37 41/38/38 37/39/39
f 37/39/39 41/38/38 40/40/40
f 38/37/37 39/41/41 41/38/38
f 41/38/38 39/41/41 42/42/42
f 40/40/40 41/38/38 43/43/43
f 43/43/43 41/38/38 44/44/44
f 42/42/42 45/45/45 41/38/38
f 41/38/38 45/45/45 44/44/44
s 6
f 47/46/46 50/47/47 46/48/48
f 46/48/48 50/47/47 49/49/49
f 47/46/46 48/50/50 50/47/47
f 50/47/47 48/50/50 51/51/51
f 49/49/49 50/47/47 52/52/52
f 52/52/52 50/47/47 53/53/53
f 51/51/51 54/54/54 50/47/47
f 50/47/47 54/54/54 53/53/53
