# This file uses centimeters as units for non-parametric coordinates.

g default
v -34.000000 -0.000000 -12.000000
v -30.000000 -0.000000 -12.000000
v -34.000000 -0.000000 -16.000000
v -30.000000 -0.000000 -16.000000
v -30.000000 0.000000 -8.000000
v -26.000000 0.000000 -8.000000
v -30.000000 0.000000 -12.000000
v -26.000000 0.000000 -12.000000
v -38.000000 -0.000000 -12.000000
v -34.000000 -0.000000 -12.000000
v -38.000000 -0.000000 -16.000000
v -34.000000 -0.000000 -16.000000
v -30.000000 -0.000000 -12.000000
v -26.000000 -0.000000 -12.000000
v -30.000000 -0.000000 -16.000000
v -26.000000 -0.000000 -16.000000
v -20.000000 0.000000 -1.999999
v -15.999999 0.000000 -1.999999
v -20.000000 0.000000 -5.999999
v -15.999999 0.000000 -5.999999
v -16.000000 0.000000 -1.999999
v -12.000001 0.000000 -1.999999
v -16.000000 0.000000 -5.999999
v -12.000001 0.000000 -5.999999
v -24.000000 0.000000 -1.999999
v -20.000000 0.000000 -1.999999
v -24.000000 0.000000 -5.999999
v -20.000000 0.000000 -5.999999
v 2.000000 0.000000 6.000000
v 6.000000 0.000000 6.000000
v 2.000000 0.000000 2.000000
v 6.000000 0.000000 2.000000
v 1.999999 0.000000 10.000000
v 5.999999 0.000000 10.000000
v 1.999999 0.000000 6.000000
v 5.999999 0.000000 6.000000
v -2.000000 0.000000 10.000000
v 2.000000 0.000000 10.000000
v -2.000000 0.000000 6.000000
v 2.000000 0.000000 6.000000
v -2.000001 -0.000000 14.000000
v 1.999999 -0.000000 14.000000
v -2.000001 -0.000000 10.000000
v 1.999999 -0.000000 10.000000
v -2.000001 -0.000000 18.000000
v 1.999999 -0.000000 18.000000
v -2.000001 -0.000000 14.000000
v 1.999999 -0.000000 14.000000
vt 0.433518 0.033518
vt 0.966482 0.033518
vt 0.433518 0.566482
vt 0.966482 0.566482
vt 0.433518 0.033518
vt 0.966482 0.033518
vt 0.433518 0.566482
vt 0.966482 0.566482
vt 0.433518 0.033518
vt 0.966482 0.033518
vt 0.433518 0.566482
vt 0.966482 0.566482
vt 0.433518 0.033518
vt 0.966482 0.033518
vt 0.433518 0.566482
vt 0.966482 0.566482
vt 0.433518 0.033518
vt 0.966482 0.033518
vt 0.433518 0.566482
vt 0.966482 0.566482
vt 0.433518 0.033518
vt 0.966482 0.033518
vt 0.433518 0.566482
vt 0.966482 0.566482
vt 0.433518 0.033518
vt 0.966482 0.033518
vt 0.433518 0.566482
vt 0.966482 0.566482
vt 0.433518 0.033518
vt 0.966482 0.033518
vt 0.433518 0.566482
vt 0.966482 0.566482
vt 0.433518 0.033518
vt 0.966482 0.033518
vt 0.433518 0.566482
vt 0.966482 0.566482
vt 0.433518 0.033518
vt 0.966482 0.033518
vt 0.433518 0.566482
vt 0.966482 0.566482
vt 0.433518 0.033518
vt 0.966482 0.033518
vt 0.433518 0.566482
vt 0.966482 0.566482
vt 0.433518 0.033518
vt 0.966482 0.033518
vt 0.433518 0.566482
vt 0.966482 0.566482
vn 0.000000 1.000000 0.000000
vn 0.000000 1.000000 0.000000
vn 0.000000 1.000000 0.000000
vn 0.000000 1.000000 0.000000
vn 0.000000 1.000000 0.000000
vn 0.000000 1.000000 0.000000
vn 0.000000 1.000000 0.000000
vn 0.000000 1.000000 0.000000
vn 0.000000 1.000000 0.000000
vn 0.000000 1.000000 0.000000
vn 0.000000 1.000000 0.000000
vn 0.000000 1.000000 0.000000
vn 0.000000 1.000000 0.000000
vn 0.000000 1.000000 0.000000
vn 0.000000 1.000000 0.000000
vn 0.000000 1.000000 0.000000
vn 0.000000 1.000000 0.000000
vn 0.000000 1.000000 0.000000
vn 0.000000 1.000000 0.000000
vn 0.000000 1.000000 0.000000
vn 0.000000 1.000000 0.000000
vn 0.000000 1.000000 0.000000
vn 0.000000 1.000000 0.000000
vn 0.000000 1.000000 0.000000
vn 0.000000 1.000000 0.000000
vn 0.000000 1.000000 0.000000
vn 0.000000 1.000000 0.000000
vn 0.000000 1.000000 0.000000
vn 0.000000 1.000000 0.000000
vn 0.000000 1.000000 0.000000
vn 0.000000 1.000000 0.000000
vn 0.000000 1.000000 0.000000
vn 0.000000 1.000000 0.000000
vn 0.000000 1.000000 0.000000
vn 0.000000 1.000000 0.000000
vn 0.000000 1.000000 0.000000
vn 0.000000 1.000000 0.000000
vn 0.000000 1.000000 0.000000
vn 0.000000 1.000000 0.000000
vn 0.000000 1.000000 0.000000
vn 0.000000 1.000000 0.000000
vn 0.000000 1.000000 0.000000
vn 0.000000 1.000000 0.000000
vn 0.000000 1.000000 0.000000
vn 0.000000 1.000000 0.000000
vn 0.000000 1.000000 0.000000
vn 0.000000 1.000000 0.000000
vn 0.000000 1.000000 0.000000
s 1
g Glass Transparent
f 1/1/1 2/2/2 3/3/3
f 3/3/3 2/2/2 4/4/4
s 2
f 5/5/5 6/6/6 7/7/7
f 7/7/7 6/6/6 8/8/8
s 3
f 9/9/9 10/10/10 11/11/11
f 11/11/11 10/10/10 12/12/12
s 4
f 13/13/13 14/14/14 15/15/15
f 15/15/15 14/14/14 16/16/16
s 5
f 17/17/17 18/18/18 19/19/19
f 19/19/19 18/18/18 20/20/20
s 6
f 21/21/21 22/22/22 23/23/23
f 23/23/23 22/22/22 24/24/24
s 7
f 25/25/25 26/26/26 27/27/27
f 27/27/27 26/26/26 28/28/28
s 8
f 29/29/29 30/30/30 31/31/31
f 31/31/31 30/30/30 32/32/32
s 9
f 33/33/33 34/34/34 35/35/35
f 35/35/35 34/34/34 36/36/36
s 10
f 37/37/37 38/38/38 39/39/39
f 39/39/39 38/38/38 40/40/40
s 11
f 41/41/41 42/42/42 43/43/43
f 43/43/43 42/42/42 44/44/44
s 12
f 45/45/45 46/46/46 47/47/47
f 47/47/47 46/46/46 48/48/48
g default
v 18.000000 0.000000 20.000000
v 18.000000 0.000000 22.000000
v 22.000000 0.000000 20.000000
v 22.000000 0.000000 22.000000
v 14.000000 0.000000 20.000000
v 14.000000 0.000000 22.000000
v 18.000000 0.000000 20.000000
v 18.000000 0.000000 22.000000
v 10.000000 0.000000 20.010870
v 10.000000 0.000000 22.010870
v 14.000000 0.000000 20.010870
v 14.000000 0.000000 22.010870
v 6.000000 0.000000 20.010870
v 6.000000 0.000000 22.010870
v 10.000000 0.000000 20.010870
v 10.000000 0.000000 22.010870
v 2.000000 0.000000 20.010870
v 2.000000 0.000000 22.010870
v 6.000000 0.000000 20.010870
v 6.000000 0.000000 22.010870
v -2.000000 0.000000 20.010870
v -2.000000 0.000000 22.010870
v 2.000000 0.000000 20.010870
v 2.000000 0.000000 22.010870
v -2.000000 0.000000 18.000000
v -4.000000 0.000000 18.000000
v -2.000000 0.000000 22.000000
v -4.000000 0.000000 22.000000
v -2.000000 0.000000 14.000000
v -4.000000 0.000000 14.000000
v -2.000000 0.000000 18.000000
v -4.000000 0.000000 18.000000
v 8.000000 0.000000 12.000000
v 6.000000 0.000000 12.000000
v 8.000000 0.000000 16.000000
v 6.000000 0.000000 16.000000
v 8.000000 0.000000 8.000000
v 6.000000 0.000000 8.000000
v 8.000000 0.000000 12.000000
v 6.000000 0.000000 12.000000
v 8.000000 0.000000 4.000000
v 6.000000 0.000000 4.000000
v 8.000000 0.000000 8.000000
v 6.000000 0.000000 8.000000
v 8.000000 0.000000 -0.000000
v 6.000000 0.000000 -0.000000
v 8.000000 0.000000 4.000000
v 6.000000 0.000000 4.000000
v -2.000000 0.000000 10.000000
v -4.000000 0.000000 10.000000
v -2.000000 0.000000 14.000000
v -4.000000 0.000000 14.000000
v -2.000000 0.000000 6.000000
v -4.000000 0.000000 6.000000
v -2.000000 0.000000 10.000000
v -4.000000 0.000000 10.000000
v -2.000000 0.000000 2.000000
v -4.000000 0.000000 2.000000
v -2.000000 0.000000 6.000000
v -4.000000 0.000000 6.000000
v 0.000000 0.000000 2.000000
v 0.000000 0.000000 -0.000000
v -4.000000 0.000000 2.000000
v -4.000000 0.000000 -0.000000
v 4.000000 0.000000 2.000000
v 6.000000 0.000000 2.000000
v 4.000000 0.000000 -2.000000
v 6.000000 0.000000 -2.000000
v 4.000000 0.000000 -2.000000
v 6.000000 0.000000 -2.000000
v 4.000000 0.000000 -6.000000
v 6.000000 0.000000 -6.000000
v 4.000000 0.000000 -6.000000
v 6.000000 0.000000 -6.000000
v 4.000000 0.000000 -10.000000
v 6.000000 0.000000 -10.000000
v 4.000000 0.000000 -10.000000
v 6.000000 0.000000 -10.000000
v 4.000000 0.000000 -14.000000
v 6.000000 0.000000 -14.000000
v 4.000000 0.000000 -14.000000
v 6.000000 0.000000 -14.000000
v 4.000000 0.000000 -18.000000
v 6.000000 0.000000 -18.000000
v -10.000000 0.000000 -14.000000
v -8.000000 0.000000 -14.000000
v -10.000000 0.000000 -18.000000
v -8.000000 0.000000 -18.000000
v -10.000000 0.000000 -10.000000
v -8.000000 0.000000 -10.000000
v -10.000000 0.000000 -14.000000
v -8.000000 0.000000 -14.000000
v -10.000000 0.000000 -6.000000
v -8.000000 0.000000 -6.000000
v -10.000000 0.000000 -10.000000
v -8.000000 0.000000 -10.000000
v -10.000000 0.000000 -2.000000
v -8.000000 0.000000 -2.000000
v -10.000000 0.000000 -6.000000
v -8.000000 0.000000 -6.000000
v -6.000000 0.000000 6.000000
v -4.000000 0.000000 6.000000
v -6.000000 0.000000 4.000000
v -4.000000 0.000000 4.000000
v -12.000000 -0.000000 -1.999999
v -10.000000 -0.000000 -1.999999
v -12.000000 0.000000 -5.999999
v -10.000000 0.000000 -5.999999
v -8.000000 -0.000000 -1.999999
v -8.000000 -0.000000 0.000001
v -4.000000 0.000000 -1.999999
v -4.000000 0.000000 0.000001
v -12.000000 -0.000000 -1.999999
v -12.000000 -0.000000 0.000001
v -8.000000 0.000000 -1.999999
v -8.000000 0.000000 0.000001
v -16.000000 -0.000000 -1.999999
v -16.000000 -0.000000 0.000001
v -12.000000 0.000000 -1.999999
v -12.000000 0.000000 0.000001
v -20.000000 -0.000000 -1.999999
v -20.000000 -0.000000 0.000001
v -16.000000 0.000000 -1.999999
v -16.000000 0.000000 0.000001
v -24.000000 -0.000000 -2.000000
v -24.000000 -0.000000 0.000000
v -20.000000 -0.000000 -2.000000
v -20.000000 -0.000000 0.000000
v -10.000000 0.000000 4.000000
v -10.000000 0.000000 6.000000
v -6.000000 0.000000 4.000000
v -6.000000 0.000000 6.000000
v -14.000000 0.000000 4.000000
v -14.000000 0.000000 6.000000
v -10.000000 0.000000 4.000000
v -10.000000 0.000000 6.000000
v -18.000000 0.000000 4.000000
v -18.000000 0.000000 6.000000
v -14.000000 0.000000 4.000000
v -14.000000 0.000000 6.000000
v -22.000000 -0.000000 4.000000
v -22.000000 -0.000000 6.000000
v -18.000000 0.000000 4.000000
v -18.000000 0.000000 6.000000
v -26.000000 -0.000000 4.000000
v -26.000000 -0.000000 6.000000
v -22.000000 -0.000000 4.000000
v -22.000000 -0.000000 6.000000
v -30.000000 -0.000000 4.000000
v -30.000000 -0.000000 6.000000
v -26.000000 -0.000000 4.000000
v -26.000000 -0.000000 6.000000
v -26.000000 -0.000000 4.000000
v -24.000000 -0.000000 4.000000
v -26.000000 -0.000000 0.000000
v -24.000000 -0.000000 0.000000
v -26.000000 0.000000 -16.000000
v -24.000000 0.000000 -16.000000
v -26.000000 0.000000 -18.000000
v -24.000000 0.000000 -18.000000
v -26.000000 -0.000000 0.000000
v -24.000000 -0.000000 0.000000
v -26.000000 -0.000000 -4.000000
v -24.000000 -0.000000 -4.000000
v -26.000000 -0.000000 -4.000000
v -24.000000 -0.000000 -4.000000
v -26.000000 0.000000 -8.000000
v -24.000000 0.000000 -8.000000
v -26.000000 0.000000 -8.000000
v -24.000000 0.000000 -8.000000
v -26.000000 0.000000 -12.000000
v -24.000000 0.000000 -12.000000
v -26.000000 0.000000 -12.000000
v -24.000000 0.000000 -12.000000
v -26.000000 0.000000 -16.000000
v -24.000000 0.000000 -16.000000
v -30.000000 0.000000 -18.000000
v -30.000000 0.000000 -16.000000
v -26.000000 0.000000 -18.000000
v -26.000000 0.000000 -16.000000
v -34.000000 0.000000 -18.000000
v -34.000000 0.000000 -16.000000
v -30.000000 0.000000 -18.000000
v -30.000000 0.000000 -16.000000
v -42.000000 0.000000 -18.000000
v -42.000000 0.000000 -16.000000
v -38.000000 0.000000 -18.000000
v -38.000000 0.000000 -16.000000
v -38.000000 0.000000 -18.000000
v -38.000000 0.000000 -16.000000
v -34.000000 0.000000 -18.000000
v -34.000000 0.000000 -16.000000
v -46.000000 0.000000 -18.000000
v -46.000000 0.000000 -16.000000
v -42.000000 0.000000 -18.000000
v -42.000000 0.000000 -16.000000
vt 0.996024 0.625523
vt 0.997196 0.972134
vt 0.303976 0.974476
vt 0.302804 0.627866
vt 0.996023 0.625523
vt 0.997195 0.972134
vt 0.303974 0.974476
vt 0.302803 0.627866
vt 0.996025 0.625523
vt 0.997196 0.972133
vt 0.303976 0.974476
vt 0.302805 0.627866
vt 0.996025 0.625523
vt 0.997196 0.972133
vt 0.303976 0.974476
vt 0.302805 0.627866
vt 0.996025 0.625524
vt 0.997196 0.972134
vt 0.303976 0.974476
vt 0.302805 0.627867
vt 0.996025 0.625523
vt 0.997196 0.972133
vt 0.303976 0.974476
vt 0.302805 0.627866
vt 0.996025 0.625523
vt 0.997196 0.972133
vt 0.303976 0.974476
vt 0.302805 0.627866
vt 0.996024 0.625523
vt 0.997196 0.972133
vt 0.303976 0.974476
vt 0.302805 0.627866
vt 0.996024 0.625523
vt 0.997195 0.972133
vt 0.303975 0.974476
vt 0.302804 0.627866
vt 0.996024 0.625523
vt 0.997195 0.972134
vt 0.303975 0.974476
vt 0.302804 0.627866
vt 0.996022 0.625524
vt 0.997193 0.972134
vt 0.303973 0.974476
vt 0.302802 0.627867
vt 0.996024 0.625523
vt 0.997196 0.972134
vt 0.303976 0.974476
vt 0.302804 0.627866
vt 0.996024 0.625524
vt 0.997195 0.972134
vt 0.303975 0.974476
vt 0.302804 0.627867
vt 0.996025 0.625524
vt 0.997196 0.972134
vt 0.303976 0.974476
vt 0.302805 0.627867
vt 0.996025 0.625524
vt 0.997196 0.972133
vt 0.303977 0.974476
vt 0.302806 0.627867
vt 0.996024 0.625524
vt 0.997195 0.972134
vt 0.303975 0.974476
vt 0.302804 0.627867
vt 0.996024 0.625523
vt 0.997196 0.972134
vt 0.303975 0.974476
vt 0.302804 0.627866
vt 0.996025 0.625523
vt 0.997196 0.972133
vt 0.303976 0.974476
vt 0.302805 0.627866
vt 0.996025 0.625524
vt 0.997197 0.972133
vt 0.303978 0.974476
vt 0.302806 0.627867
vt 0.996026 0.625524
vt 0.997198 0.972133
vt 0.303978 0.974476
vt 0.302807 0.627867
vt 0.996024 0.625523
vt 0.997195 0.972133
vt 0.303975 0.974476
vt 0.302804 0.627866
vt 0.996024 0.625524
vt 0.997195 0.972133
vt 0.303976 0.974476
vt 0.302805 0.627867
vt 0.996023 0.625524
vt 0.997195 0.972133
vt 0.303976 0.974476
vt 0.302805 0.627867
vt 0.996025 0.625524
vt 0.997196 0.972134
vt 0.303976 0.974476
vt 0.302805 0.627867
vt 0.996024 0.625523
vt 0.997195 0.972133
vt 0.303975 0.974476
vt 0.302804 0.627866
vt 0.022547 0.022547
vt 0.377453 0.022547
vt 0.377453 0.377453
vt 0.022547 0.377453
vt 0.996024 0.625523
vt 0.997196 0.972134
vt 0.303975 0.974477
vt 0.302804 0.627866
vt 0.996023 0.625523
vt 0.997194 0.972134
vt 0.303973 0.974476
vt 0.302802 0.627866
vt 0.996024 0.625523
vt 0.997195 0.972133
vt 0.303975 0.974476
vt 0.302804 0.627866
vt 0.996023 0.625523
vt 0.997195 0.972134
vt 0.303974 0.974476
vt 0.302803 0.627866
vt 0.996024 0.625523
vt 0.997196 0.972134
vt 0.303975 0.974476
vt 0.302804 0.627866
vt 0.996025 0.625523
vt 0.997196 0.972134
vt 0.303976 0.974476
vt 0.302805 0.627866
vt 0.996024 0.625524
vt 0.997196 0.972134
vt 0.303976 0.974476
vt 0.302804 0.627867
vt 0.996024 0.625523
vt 0.997195 0.972134
vt 0.303975 0.974476
vt 0.302804 0.627866
vt 0.996024 0.625523
vt 0.997196 0.972134
vt 0.303975 0.974476
vt 0.302804 0.627866
vt 0.996023 0.625524
vt 0.997195 0.972134
vt 0.303975 0.974476
vt 0.302803 0.627867
vt 0.996024 0.625523
vt 0.997196 0.972133
vt 0.303975 0.974476
vt 0.302804 0.627866
vt 0.996022 0.625523
vt 0.997193 0.972133
vt 0.303973 0.974476
vt 0.302802 0.627866
vt 0.996024 0.625523
vt 0.997195 0.972134
vt 0.303975 0.974476
vt 0.302803 0.627866
vt 0.022546 0.022546
vt 0.377454 0.022546
vt 0.377454 0.377454
vt 0.022546 0.377454
vt 0.996025 0.625523
vt 0.997196 0.972133
vt 0.303976 0.974476
vt 0.302805 0.627866
vt 0.996025 0.625523
vt 0.997196 0.972134
vt 0.303975 0.974476
vt 0.302804 0.627866
vt 0.996025 0.625524
vt 0.997196 0.972133
vt 0.303976 0.974476
vt 0.302805 0.627867
vt 0.996022 0.625524
vt 0.997193 0.972134
vt 0.303973 0.974476
vt 0.302802 0.627867
vt 0.996025 0.625523
vt 0.997196 0.972134
vt 0.303976 0.974476
vt 0.302804 0.627866
vt 0.996025 0.625524
vt 0.997196 0.972134
vt 0.303976 0.974476
vt 0.302805 0.627867
vt 0.996022 0.625523
vt 0.997194 0.972134
vt 0.303974 0.974476
vt 0.302802 0.627866
vt 0.996024 0.625524
vt 0.997195 0.972134
vt 0.303975 0.974476
vt 0.302804 0.627867
vt 0.996023 0.625524
vt 0.997194 0.972134
vt 0.303974 0.974476
vt 0.302803 0.627867
vn -0.000000 1.000000 0.000000
vn -0.000000 1.000000 0.000000
vn -0.000000 1.000000 0.000000
vn -0.000000 1.000000 0.000000
vn -0.000000 1.000000 0.000000
vn -0.000000 1.000000 0.000000
vn -0.000000 1.000000 0.000000
vn -0.000000 1.000000 0.000000
vn -0.000000 1.000000 0.000000
vn -0.000000 1.000000 0.000000
vn -0.000000 1.000000 0.000000
vn -0.000000 1.000000 0.000000
vn -0.000000 1.000000 0.000000
vn -0.000000 1.000000 0.000000
vn -0.000000 1.000000 0.000000
vn -0.000000 1.000000 0.000000
vn -0.000000 1.000000 0.000000
vn -0.000000 1.000000 0.000000
vn -0.000000 1.000000 0.000000
vn -0.000000 1.000000 0.000000
vn -0.000000 1.000000 0.000000
vn -0.000000 1.000000 0.000000
vn -0.000000 1.000000 0.000000
vn -0.000000 1.000000 0.000000
vn 0.000000 1.000000 -0.000000
vn 0.000000 1.000000 -0.000000
vn 0.000000 1.000000 -0.000000
vn 0.000000 1.000000 -0.000000
vn 0.000000 1.000000 -0.000000
vn 0.000000 1.000000 -0.000000
vn 0.000000 1.000000 -0.000000
vn 0.000000 1.000000 -0.000000
vn 0.000000 1.000000 -0.000000
vn 0.000000 1.000000 -0.000000
vn 0.000000 1.000000 -0.000000
vn 0.000000 1.000000 -0.000000
vn 0.000000 1.000000 -0.000000
vn 0.000000 1.000000 -0.000000
vn 0.000000 1.000000 -0.000000
vn 0.000000 1.000000 -0.000000
vn 0.000000 1.000000 -0.000000
vn 0.000000 1.000000 -0.000000
vn 0.000000 1.000000 -0.000000
vn 0.000000 1.000000 -0.000000
vn 0.000000 1.000000 -0.000000
vn 0.000000 1.000000 -0.000000
vn 0.000000 1.000000 -0.000000
vn 0.000000 1.000000 -0.000000
vn 0.000000 1.000000 -0.000000
vn 0.000000 1.000000 -0.000000
vn 0.000000 1.000000 -0.000000
vn 0.000000 1.000000 -0.000000
vn 0.000000 1.000000 -0.000000
vn 0.000000 1.000000 -0.000000
vn 0.000000 1.000000 -0.000000
vn 0.000000 1.000000 -0.000000
vn 0.000000 1.000000 -0.000000
vn 0.000000 1.000000 -0.000000
vn 0.000000 1.000000 -0.000000
vn 0.000000 1.000000 -0.000000
vn 0.000000 1.000000 0.000000
vn 0.000000 1.000000 0.000000
vn 0.000000 1.000000 0.000000
vn 0.000000 1.000000 0.000000
vn 0.000000 1.000000 0.000000
vn 0.000000 1.000000 0.000000
vn 0.000000 1.000000 0.000000
vn 0.000000 1.000000 0.000000
vn 0.000000 1.000000 0.000000
vn 0.000000 1.000000 0.000000
vn 0.000000 1.000000 0.000000
vn 0.000000 1.000000 0.000000
vn 0.000000 1.000000 0.000000
vn 0.000000 1.000000 0.000000
vn 0.000000 1.000000 0.000000
vn 0.000000 1.000000 0.000000
vn 0.000000 1.000000 0.000000
vn 0.000000 1.000000 0.000000
vn 0.000000 1.000000 0.000000
vn 0.000000 1.000000 0.000000
vn 0.000000 1.000000 0.000000
vn 0.000000 1.000000 0.000000
vn 0.000000 1.000000 0.000000
vn 0.000000 1.000000 0.000000
vn 0.000000 1.000000 0.000000
vn 0.000000 1.000000 0.000000
vn 0.000000 1.000000 0.000000
vn 0.000000 1.000000 0.000000
vn 0.000000 1.000000 0.000000
vn 0.000000 1.000000 0.000000
vn 0.000000 1.000000 0.000000
vn 0.000000 1.000000 0.000000
vn 0.000000 1.000000 0.000000
vn 0.000000 1.000000 0.000000
vn 0.000000 1.000000 0.000000
vn 0.000000 1.000000 0.000000
vn 0.000000 1.000000 0.000000
vn 0.000000 1.000000 0.000000
vn 0.000000 1.000000 0.000000
vn 0.000000 1.000000 0.000000
vn 0.000000 1.000000 0.000000
vn 0.000000 1.000000 0.000000
vn 0.000000 1.000000 0.000000
vn 0.000000 1.000000 0.000000
vn 0.000000 1.000000 0.000000
vn 0.000000 1.000000 0.000000
vn 0.000000 1.000000 0.000000
vn 0.000000 1.000000 0.000000
vn -0.000000 1.000000 0.000000
vn -0.000000 1.000000 0.000000
vn -0.000000 1.000000 0.000000
vn -0.000000 1.000000 0.000000
vn -0.000000 1.000000 0.000000
vn -0.000000 1.000000 0.000000
vn -0.000000 1.000000 0.000000
vn -0.000000 1.000000 0.000000
vn -0.000000 1.000000 0.000000
vn -0.000000 1.000000 0.000000
vn -0.000000 1.000000 0.000000
vn -0.000000 1.000000 0.000000
vn -0.000000 1.000000 0.000000
vn -0.000000 1.000000 0.000000
vn -0.000000 1.000000 0.000000
vn -0.000000 1.000000 0.000000
vn -0.000000 1.000000 0.000000
vn -0.000000 1.000000 0.000000
vn -0.000000 1.000000 0.000000
vn -0.000000 1.000000 0.000000
vn -0.000000 1.000000 0.000000
vn -0.000000 1.000000 0.000000
vn -0.000000 1.000000 0.000000
vn -0.000000 1.000000 0.000000
vn -0.000000 1.000000 0.000000
vn -0.000000 1.000000 0.000000
vn -0.000000 1.000000 0.000000
vn -0.000000 1.000000 0.000000
vn -0.000000 1.000000 0.000000
vn -0.000000 1.000000 0.000000
vn -0.000000 1.000000 0.000000
vn -0.000000 1.000000 0.000000
vn -0.000000 1.000000 0.000000
vn -0.000000 1.000000 0.000000
vn -0.000000 1.000000 0.000000
vn -0.000000 1.000000 0.000000
vn -0.000000 1.000000 0.000000
vn -0.000000 1.000000 0.000000
vn -0.000000 1.000000 0.000000
vn -0.000000 1.000000 0.000000
vn -0.000000 1.000000 0.000000
vn -0.000000 1.000000 0.000000
vn -0.000000 1.000000 0.000000
vn -0.000000 1.000000 0.000000
vn 0.000000 1.000000 0.000000
vn 0.000000 1.000000 0.000000
vn 0.000000 1.000000 0.000000
vn 0.000000 1.000000 0.000000
vn 0.000000 1.000000 0.000000
vn 0.000000 1.000000 0.000000
vn 0.000000 1.000000 0.000000
vn 0.000000 1.000000 0.000000
vn 0.000000 1.000000 0.000000
vn 0.000000 1.000000 0.000000
vn 0.000000 1.000000 0.000000
vn 0.000000 1.000000 0.000000
vn 0.000000 1.000000 0.000000
vn 0.000000 1.000000 0.000000
vn 0.000000 1.000000 0.000000
vn 0.000000 1.000000 0.000000
vn 0.000000 1.000000 0.000000
vn 0.000000 1.000000 0.000000
vn 0.000000 1.000000 0.000000
vn 0.000000 1.000000 0.000000
vn 0.000000 1.000000 0.000000
vn 0.000000 1.000000 0.000000
vn 0.000000 1.000000 0.000000
vn 0.000000 1.000000 0.000000
vn -0.000000 1.000000 0.000000
vn -0.000000 1.000000 0.000000
vn -0.000000 1.000000 0.000000
vn -0.000000 1.000000 0.000000
vn -0.000000 1.000000 0.000000
vn -0.000000 1.000000 0.000000
vn -0.000000 1.000000 0.000000
vn -0.000000 1.000000 0.000000
vn -0.000000 1.000000 0.000000
vn -0.000000 1.000000 0.000000
vn -0.000000 1.000000 0.000000
vn -0.000000 1.000000 0.000000
vn -0.000000 1.000000 0.000000
vn -0.000000 1.000000 0.000000
vn -0.000000 1.000000 0.000000
vn -0.000000 1.000000 0.000000
vn -0.000000 1.000000 0.000000
vn -0.000000 1.000000 0.000000
vn -0.000000 1.000000 0.000000
vn -0.000000 1.000000 0.000000
s 1
g Transparent grid
f 49/49/49 50/50/50 51/52/51
f 51/52/51 50/50/50 52/51/52
s 2
f 53/53/53 54/54/54 55/56/55
f 55/56/55 54/54/54 56/55/56
s 3
f 57/57/57 58/58/58 59/60/59
f 59/60/59 58/58/58 60/59/60
s 4
f 61/61/61 62/62/62 63/64/63
f 63/64/63 62/62/62 64/63/64
s 5
f 65/65/65 66/66/66 67/68/67
f 67/68/67 66/66/66 68/67/68
s 6
f 69/69/69 70/70/70 71/72/71
f 71/72/71 70/70/70 72/71/72
s 7
f 73/73/73 74/74/74 75/76/75
f 75/76/75 74/74/74 76/75/76
s 8
f 77/77/77 78/78/78 79/80/79
f 79/80/79 78/78/78 80/79/80
s 9
f 81/81/81 82/82/82 83/84/83
f 83/84/83 82/82/82 84/83/84
s 10
f 85/85/85 86/86/86 87/88/87
f 87/88/87 86/86/86 88/87/88
s 11
f 89/89/89 90/90/90 91/92/91
f 91/92/91 90/90/90 92/91/92
s 12
f 93/93/93 94/94/94 95/96/95
f 95/96/95 94/94/94 96/95/96
s 13
f 97/97/97 98/98/98 99/100/99
f 99/100/99 98/98/98 100/99/100
s 14
f 101/101/101 102/102/102 103/104/103
f 103/104/103 102/102/102 104/103/104
s 15
f 105/105/105 106/106/106 107/108/107
f 107/108/107 106/106/106 108/107/108
s 16
f 109/109/109 110/110/110 111/112/111
f 111/112/111 110/110/110 112/111/112
s 17
f 113/113/113 114/114/114 115/116/115
f 115/116/115 114/114/114 116/115/116
s 18
f 117/117/117 118/118/118 119/120/119
f 119/120/119 118/118/118 120/119/120
s 19
f 121/121/121 122/122/122 123/124/123
f 123/124/123 122/122/122 124/123/124
s 20
f 125/125/125 126/126/126 127/128/127
f 127/128/127 126/126/126 128/127/128
s 21
f 129/129/129 130/130/130 131/132/131
f 131/132/131 130/130/130 132/131/132
s 22
f 133/133/133 134/134/134 135/136/135
f 135/136/135 134/134/134 136/135/136
s 23
f 137/137/137 138/138/138 139/140/139
f 139/140/139 138/138/138 140/139/140
s 24
f 141/141/141 142/142/142 143/144/143
f 143/144/143 142/142/142 144/143/144
s 25
f 145/145/145 146/146/146 147/148/147
f 147/148/147 146/146/146 148/147/148
s 26
f 149/149/149 150/150/150 151/152/151
f 151/152/151 150/150/150 152/151/152
s 27
f 153/153/153 154/154/154 155/156/155
f 155/156/155 154/154/154 156/155/156
s 28
f 157/157/157 158/158/158 159/160/159
f 159/160/159 158/158/158 160/159/160
s 29
f 161/161/161 162/162/162 163/164/163
f 163/164/163 162/162/162 164/163/164
s 30
f 165/165/165 166/166/166 167/168/167
f 167/168/167 166/166/166 168/167/168
s 31
f 169/169/169 170/170/170 171/172/171
f 171/172/171 170/170/170 172/171/172
s 32
f 173/173/173 174/174/174 175/176/175
f 175/176/175 174/174/174 176/175/176
s 33
f 177/177/177 178/178/178 179/180/179
f 179/180/179 178/178/178 180/179/180
s 34
f 181/181/181 182/182/182 183/184/183
f 183/184/183 182/182/182 184/183/184
s 35
f 185/185/185 186/186/186 187/188/187
f 187/188/187 186/186/186 188/187/188
s 36
f 189/189/189 190/190/190 191/192/191
f 191/192/191 190/190/190 192/191/192
s 37
f 193/193/193 194/194/194 195/196/195
f 195/196/195 194/194/194 196/195/196
s 38
f 197/197/197 198/198/198 199/200/199
f 199/200/199 198/198/198 200/199/200
s 39
f 201/201/201 202/202/202 203/204/203
f 203/204/203 202/202/202 204/203/204
s 40
f 205/205/205 206/206/206 207/208/207
f 207/208/207 206/206/206 208/207/208
s 41
f 209/209/209 210/210/210 211/212/211
f 211/212/211 210/210/210 212/211/212
s 42
f 213/213/213 214/214/214 215/216/215
f 215/216/215 214/214/214 216/215/216
s 43
f 217/217/217 218/218/218 219/220/219
f 219/220/219 218/218/218 220/219/220
s 44
f 221/221/221 222/222/222 223/224/223
f 223/224/223 222/222/222 224/223/224
s 45
f 225/225/225 226/226/226 227/228/227
f 227/228/227 226/226/226 228/227/228
s 46
f 229/229/229 230/230/230 231/232/231
f 231/232/231 230/230/230 232/231/232
s 47
f 233/233/233 234/234/234 235/236/235
f 235/236/235 234/234/234 236/235/236
s 48
f 237/237/237 238/238/238 239/240/239
f 239/240/239 238/238/238 240/239/240
s 49
f 241/241/241 242/242/242 243/244/243
f 243/244/243 242/242/242 244/243/244
