# This file uses centimeters as units for non-parametric coordinates.

g default
v -22.899524 3.259606 16.147925
v -22.945486 3.259606 16.128887
v -22.991447 3.259606 16.147925
v -23.010486 3.259606 16.193887
v -22.991447 3.259606 16.239849
v -22.945486 3.259606 16.258887
v -22.899524 3.259606 16.239849
v -22.880485 3.259606 16.193887
v -22.899524 3.459606 16.147925
v -22.945486 3.459606 16.128887
v -22.991447 3.459606 16.147925
v -23.010486 3.459606 16.193887
v -22.991447 3.459606 16.239849
v -22.945486 3.459606 16.258887
v -22.899524 3.459606 16.239849
v -22.880485 3.459606 16.193887
v -22.945486 3.459606 16.193887
v -22.995009 3.361740 16.149339
v -23.116712 3.369480 16.120453
v -23.250046 3.369480 16.120453
v -23.348137 3.366587 16.131247
v -22.995009 3.378503 16.153830
v -23.116712 3.386243 16.124945
v -23.250046 3.386243 16.124945
v -23.348137 3.383350 16.135739
v -23.014429 3.384260 16.200687
v -23.134487 3.384260 16.200687
v -23.267820 3.384260 16.200687
v -23.401153 3.384260 16.200687
v -22.992569 3.372724 16.243739
v -23.134487 3.368084 16.261058
v -23.267820 3.368084 16.261058
v -23.383440 3.368084 16.261058
v -22.992569 3.354190 16.238773
v -23.134487 3.349550 16.256091
v -23.267820 3.349550 16.256091
v -23.383440 3.356671 16.257999
v -23.401153 3.358564 16.193802
v -22.990944 3.361740 16.243160
v -23.019829 3.369480 16.364863
v -23.019829 3.369480 16.498196
v -23.009036 3.366587 16.596288
v -22.986452 3.378503 16.243160
v -23.015337 3.386243 16.364863
v -23.015337 3.386243 16.498196
v -23.004544 3.383350 16.596288
v -22.939595 3.384260 16.262579
v -22.939595 3.384260 16.382637
v -22.939595 3.384260 16.515971
v -22.939595 3.384260 16.649304
v -22.896543 3.372724 16.240720
v -22.879225 3.368084 16.382637
v -22.879225 3.368084 16.515971
v -22.879225 3.368084 16.631591
v -22.901509 3.354190 16.240720
v -22.884191 3.349550 16.382637
v -22.884191 3.349550 16.515971
v -22.882283 3.356671 16.631591
v -22.946481 3.358564 16.649304
v -22.897123 3.361740 16.239094
v -22.775420 3.369480 16.267980
v -22.642086 3.369480 16.267980
v -22.543995 3.366587 16.257186
v -22.897123 3.378503 16.234603
v -22.775420 3.386243 16.263488
v -22.642086 3.386243 16.263488
v -22.543995 3.383350 16.252695
v -22.877703 3.384260 16.187746
v -22.757645 3.384260 16.187746
v -22.624312 3.384260 16.187746
v -22.490979 3.384260 16.187746
v -22.899563 3.372724 16.144694
v -22.757645 3.368084 16.127376
v -22.624312 3.368084 16.127376
v -22.508692 3.368084 16.127376
v -22.899563 3.354190 16.149660
v -22.757645 3.349550 16.132342
v -22.624312 3.349550 16.132342
v -22.508692 3.356671 16.130434
v -22.490979 3.358564 16.194632
v -22.901188 3.361740 16.145274
v -22.872302 3.369480 16.023570
v -22.872302 3.369480 15.890237
v -22.883096 3.366587 15.792146
v -22.905680 3.378503 16.145274
v -22.876794 3.386243 16.023570
v -22.876794 3.386243 15.890237
v -22.887588 3.383350 15.792146
v -22.952537 3.384260 16.125854
v -22.952537 3.384260 16.005796
v -22.952537 3.384260 15.872463
v -22.952537 3.384260 15.739129
v -22.995589 3.372724 16.147714
v -23.012906 3.368084 16.005796
v -23.012906 3.368084 15.872463
v -23.012906 3.368084 15.756842
v -22.990622 3.354190 16.147714
v -23.007940 3.349550 16.005796
v -23.007940 3.349550 15.872463
v -23.009849 3.356671 15.756842
v -22.945651 3.358564 15.739129
vt 0.112164 0.242099
vt 0.019039 0.242601
vt 0.019328 0.296084
vt 0.112452 0.295582
vt 0.032343 0.242529
vt 0.121982 0.318241
vt 0.045646 0.242458
vt 0.045935 0.295940
vt 0.058950 0.242386
vt 0.099322 0.327771
vt 0.072254 0.242314
vt 0.072542 0.295797
vt 0.085557 0.242243
vt 0.089793 0.305111
vt 0.098860 0.242171
vt 0.099149 0.295653
vt 0.105887 0.311676
vt 0.933761 0.244592
vt 0.870848 0.197028
vt 0.878279 0.189183
vt 0.940510 0.236045
vt 0.813770 0.133472
vt 0.822595 0.127116
vt 0.778145 0.078106
vt 0.788467 0.075524
vt 0.906932 0.150186
vt 0.955961 0.207485
vt 0.853045 0.088411
vt 0.799070 0.028985
vt 0.936347 0.124199
vt 0.986112 0.199035
vt 0.881484 0.060250
vt 0.831163 0.011085
vt 0.945812 0.116792
vt 0.996057 0.192172
vt 0.889588 0.051452
vt 0.831901 0.003838
vt 0.785803 0.021193
vt 0.435638 0.833670
vt 0.476897 0.794324
vt 0.481631 0.800537
vt 0.440950 0.839481
vt 0.528893 0.760997
vt 0.532401 0.768034
vt 0.572555 0.742032
vt 0.573194 0.749698
vt 0.506118 0.825519
vt 0.459528 0.853828
vt 0.556469 0.794267
vt 0.605163 0.762695
vt 0.521231 0.849532
vt 0.462043 0.876323
vt 0.573243 0.817843
vt 0.614189 0.787681
vt 0.525412 0.857148
vt 0.465781 0.884218
vt 0.578573 0.824653
vt 0.619273 0.789054
vt 0.612271 0.754139
vt 0.241276 0.984969
vt 0.175529 0.996533
vt 0.174952 0.987406
vt 0.239870 0.975859
vt 0.103237 0.995262
vt 0.104386 0.986128
vt 0.048388 0.985417
vt 0.052739 0.977532
vt 0.167305 0.947166
vt 0.231080 0.949819
vt 0.097957 0.944944
vt 0.030012 0.944130
vt 0.168161 0.913956
vt 0.243227 0.926263
vt 0.096902 0.911085
vt 0.037423 0.913922
vt 0.169028 0.903820
vt 0.244708 0.916144
vt 0.096122 0.900990
vt 0.033358 0.909287
vt 0.017535 0.947859
vt 0.519108 0.967189
vt 0.447601 0.984427
vt 0.446339 0.974430
vt 0.516935 0.957266
vt 0.368015 0.988001
vt 0.368650 0.977878
vt 0.307021 0.980948
vt 0.311263 0.971978
vt 0.435162 0.930704
vt 0.505478 0.929235
vt 0.358747 0.933031
vt 0.283973 0.936809
vt 0.433819 0.894124
vt 0.517215 0.902495
vt 0.355258 0.895869
vt 0.290044 0.903080
vt 0.434075 0.882918
vt 0.518148 0.891265
vt 0.353706 0.884821
vt 0.285255 0.898262
vt 0.270508 0.941768
vt 0.005736 0.242673
vt 0.006024 0.296156
vt 0.089864 0.318415
vt 0.059238 0.295869
vt 0.112626 0.327699
vt 0.032631 0.296012
vt 0.121910 0.304938
vt 0.085845 0.295725
vn 0.382686 0.000000 -0.923878
vn 0.382686 0.000000 -0.923878
vn 0.382686 0.000000 -0.923878
vn 0.382686 0.000000 -0.923878
vn -0.382686 0.000000 -0.923878
vn -0.382686 0.000000 -0.923878
vn -0.382686 0.000000 -0.923878
vn -0.382686 0.000000 -0.923878
vn -0.923878 0.000000 -0.382686
vn -0.923878 0.000000 -0.382686
vn -0.923878 0.000000 -0.382686
vn -0.923878 0.000000 -0.382686
vn -0.923878 0.000000 0.382686
vn -0.923878 0.000000 0.382686
vn -0.923878 0.000000 0.382686
vn -0.923878 0.000000 0.382686
vn -0.382686 0.000000 0.923878
vn -0.382686 0.000000 0.923878
vn -0.382686 0.000000 0.923878
vn -0.382686 0.000000 0.923878
vn 0.382686 0.000000 0.923878
vn 0.382686 0.000000 0.923878
vn 0.382686 0.000000 0.923878
vn 0.382686 0.000000 0.923878
vn 0.923878 0.000000 0.382686
vn 0.923878 0.000000 0.382686
vn 0.923878 0.000000 0.382686
vn 0.923878 0.000000 0.382686
vn 0.923878 0.000000 -0.382686
vn 0.923878 0.000000 -0.382686
vn 0.923878 0.000000 -0.382686
vn 0.923878 0.000000 -0.382686
vn 0.000000 1.000000 0.000000
vn 0.000000 1.000000 0.000000
vn 0.000000 1.000000 0.000000
vn 0.000000 1.000000 0.000000
vn 0.000000 1.000000 0.000000
vn 0.000000 1.000000 0.000000
vn 0.000000 1.000000 0.000000
vn 0.000000 1.000000 0.000000
vn 0.000000 1.000000 0.000000
vn 0.238619 0.251339 -0.938024
vn 0.116458 0.257054 -0.959354
vn 0.116458 0.257054 -0.959354
vn 0.238619 0.251339 -0.938024
vn -0.048229 0.258514 -0.964803
vn -0.048229 0.258514 -0.964803
vn -0.113187 0.257152 -0.959719
vn -0.113187 0.257152 -0.959719
vn 0.034418 0.999201 -0.020326
vn 0.016205 0.999860 0.004285
vn 0.006775 0.992123 0.125087
vn 0.017772 0.992936 0.117310
vn -0.004346 0.999837 0.017497
vn -0.003374 0.991343 0.131253
vn -0.012433 0.999922 0.001367
vn -0.005160 0.988038 0.154122
vn 0.000000 0.965926 0.258820
vn 0.000000 0.965926 0.258819
vn 0.000000 0.965926 0.258820
vn 0.000000 0.965926 0.258820
vn 0.125339 -0.256779 0.958308
vn 0.065000 -0.258273 0.963883
vn 0.065000 -0.258273 0.963883
vn 0.125339 -0.256779 0.958308
vn -0.000000 -0.258821 0.965925
vn -0.000000 -0.258821 0.965925
vn -0.000000 -0.258822 0.965925
vn -0.000000 -0.258822 0.965925
vn -0.934502 0.092128 -0.343830
vn -0.962108 -0.070573 0.263379
vn -0.962108 -0.070573 0.263379
vn -0.963117 0.069644 -0.259916
vn -0.762594 0.167424 -0.624836
vn -0.762594 0.167424 -0.624836
vn -0.938022 0.251351 -0.238617
vn -0.959351 0.257067 -0.116457
vn -0.959351 0.257067 -0.116457
vn -0.938021 0.251351 -0.238617
vn -0.964799 0.258527 0.048229
vn -0.964799 0.258527 0.048229
vn -0.959716 0.257165 0.113187
vn -0.959716 0.257165 0.113187
vn -0.020326 0.999201 -0.034418
vn 0.004285 0.999860 -0.016205
vn 0.125087 0.992123 -0.006775
vn 0.117310 0.992936 -0.017772
vn 0.017498 0.999837 0.004346
vn 0.131253 0.991343 0.003374
vn 0.001367 0.999922 0.012433
vn 0.154123 0.988038 0.005160
vn 0.258821 0.965925 0.000000
vn 0.258821 0.965926 0.000000
vn 0.258821 0.965925 0.000000
vn 0.258821 0.965925 0.000000
vn 0.958309 -0.256779 -0.125336
vn 0.963883 -0.258273 -0.064998
vn 0.963883 -0.258273 -0.064998
vn 0.958309 -0.256779 -0.125336
vn 0.965926 -0.258818 -0.000000
vn 0.965926 -0.258818 -0.000000
vn 0.965927 -0.258814 -0.000001
vn 0.965927 -0.258814 -0.000001
vn -0.343833 0.092134 0.934500
vn 0.263379 -0.070573 0.962108
vn 0.263379 -0.070573 0.962108
vn -0.259916 0.069648 0.963116
vn -0.624836 0.167431 0.762592
vn -0.624836 0.167431 0.762592
vn -0.238619 0.251339 0.938024
vn -0.116458 0.257054 0.959354
vn -0.116458 0.257054 0.959354
vn -0.238619 0.251339 0.938024
vn 0.048229 0.258514 0.964803
vn 0.048229 0.258514 0.964803
vn 0.113187 0.257152 0.959719
vn 0.113187 0.257152 0.959719
vn -0.034418 0.999201 0.020326
vn -0.016205 0.999860 -0.004285
vn -0.006775 0.992123 -0.125087
vn -0.017772 0.992936 -0.117310
vn 0.004346 0.999838 -0.017497
vn 0.003374 0.991343 -0.131253
vn 0.012433 0.999922 -0.001367
vn 0.005160 0.988038 -0.154122
vn -0.000000 0.965926 -0.258820
vn -0.000000 0.965926 -0.258819
vn 0.000000 0.965926 -0.258820
vn 0.000000 0.965926 -0.258820
vn -0.125339 -0.256779 -0.958308
vn -0.065000 -0.258273 -0.963883
vn -0.065000 -0.258273 -0.963883
vn -0.125339 -0.256779 -0.958308
vn 0.000000 -0.258821 -0.965925
vn 0.000000 -0.258821 -0.965925
vn 0.000000 -0.258822 -0.965925
vn 0.000000 -0.258822 -0.965925
vn 0.934502 0.092129 0.343830
vn 0.962108 -0.070573 -0.263379
vn 0.962108 -0.070573 -0.263379
vn 0.963116 0.069644 0.259916
vn 0.762594 0.167425 0.624836
vn 0.762594 0.167425 0.624836
vn 0.938022 0.251351 0.238617
vn 0.959351 0.257067 0.116457
vn 0.959351 0.257067 0.116457
vn 0.938022 0.251351 0.238617
vn 0.964799 0.258527 -0.048229
vn 0.964800 0.258527 -0.048229
vn 0.959716 0.257165 -0.113187
vn 0.959716 0.257165 -0.113187
vn 0.020326 0.999201 0.034418
vn -0.004285 0.999860 0.016205
vn -0.125087 0.992123 0.006775
vn -0.117310 0.992936 0.017772
vn -0.017498 0.999837 -0.004346
vn -0.131253 0.991343 -0.003374
vn -0.001367 0.999922 -0.012433
vn -0.154123 0.988038 -0.005160
vn -0.258821 0.965925 -0.000000
vn -0.258821 0.965925 -0.000000
vn -0.258821 0.965925 0.000000
vn -0.258821 0.965925 0.000000
vn -0.958309 -0.256779 0.125336
vn -0.963883 -0.258273 0.064998
vn -0.963883 -0.258273 0.064998
vn -0.958309 -0.256779 0.125336
vn -0.965926 -0.258818 0.000000
vn -0.965926 -0.258818 0.000000
vn -0.965927 -0.258814 0.000001
vn -0.965927 -0.258814 0.000001
vn 0.343833 0.092134 -0.934500
vn -0.263380 -0.070573 -0.962107
vn -0.263380 -0.070573 -0.962107
vn 0.259915 0.069648 -0.963116
vn 0.624836 0.167431 -0.762592
vn 0.624836 0.167431 -0.762592
s off
g Fan
f 1/102/1 2/2/2 10/3/3 9/103/4
f 2/2/5 3/5/6 11/107/7 10/3/8
f 3/5/9 4/7/10 12/8/11 11/107/12
f 4/7/13 5/9/14 13/105/15 12/8/16
f 5/9/17 6/11/18 14/12/19 13/105/20
f 6/11/21 7/13/22 15/109/23 14/12/24
f 7/13/25 8/15/26 16/16/27 15/109/28
f 8/15/29 1/1/30 9/4/31 16/16/32
s 1
f 17/17/33 9/4/34 10/108/35 11/6/36
f 17/17/33 11/6/36 12/106/37 13/10/38
f 17/17/33 13/10/38 14/104/39 15/14/40
f 17/17/33 15/14/40 16/16/41 9/4/34
s 2
f 18/18/42 19/19/43 23/20/44 22/21/45
f 19/19/43 20/22/46 24/23/47 23/20/44
f 20/22/46 21/24/48 25/25/49 24/23/47
s 3
f 22/21/50 23/20/51 27/26/52 26/27/53
f 23/20/51 24/23/54 28/28/55 27/26/52
f 24/23/54 25/25/56 29/29/57 28/28/55
f 26/27/53 27/26/52 31/30/58 30/31/59
f 27/26/52 28/28/55 32/32/60 31/30/58
f 28/28/55 29/29/57 33/33/61 32/32/60
s 4
f 30/31/62 31/30/63 35/34/64 34/35/65
f 31/30/63 32/32/66 36/36/67 35/34/64
f 32/32/66 33/33/68 37/37/69 36/36/67
s 5
f 38/38/70 37/37/71 33/33/72 29/29/73
f 21/24/74 38/38/70 29/29/73 25/25/75
s 6
f 39/39/76 40/40/77 44/41/78 43/42/79
f 40/40/77 41/43/80 45/44/81 44/41/78
f 41/43/80 42/45/82 46/46/83 45/44/81
s 7
f 43/42/84 44/41/85 48/47/86 47/48/87
f 44/41/85 45/44/88 49/49/89 48/47/86
f 45/44/88 46/46/90 50/50/91 49/49/89
f 47/48/87 48/47/86 52/51/92 51/52/93
f 48/47/86 49/49/89 53/53/94 52/51/92
f 49/49/89 50/50/91 54/54/95 53/53/94
s 8
f 51/52/96 52/51/97 56/55/98 55/56/99
f 52/51/97 53/53/100 57/57/101 56/55/98
f 53/53/100 54/54/102 58/58/103 57/57/101
s 9
f 59/59/104 58/58/105 54/54/106 50/50/107
f 42/45/108 59/59/104 50/50/107 46/46/109
s 10
f 60/60/110 61/61/111 65/62/112 64/63/113
f 61/61/111 62/64/114 66/65/115 65/62/112
f 62/64/114 63/66/116 67/67/117 66/65/115
s 11
f 64/63/118 65/62/119 69/68/120 68/69/121
f 65/62/119 66/65/122 70/70/123 69/68/120
f 66/65/122 67/67/124 71/71/125 70/70/123
f 68/69/121 69/68/120 73/72/126 72/73/127
f 69/68/120 70/70/123 74/74/128 73/72/126
f 70/70/123 71/71/125 75/75/129 74/74/128
s 12
f 72/73/130 73/72/131 77/76/132 76/77/133
f 73/72/131 74/74/134 78/78/135 77/76/132
f 74/74/134 75/75/136 79/79/137 78/78/135
s 13
f 80/80/138 79/79/139 75/75/140 71/71/141
f 63/66/142 80/80/138 71/71/141 67/67/143
s 14
f 81/81/144 82/82/145 86/83/146 85/84/147
f 82/82/145 83/85/148 87/86/149 86/83/146
f 83/85/148 84/87/150 88/88/151 87/86/149
s 15
f 85/84/152 86/83/153 90/89/154 89/90/155
f 86/83/153 87/86/156 91/91/157 90/89/154
f 87/86/156 88/88/158 92/92/159 91/91/157
f 89/90/155 90/89/154 94/93/160 93/94/161
f 90/89/154 91/91/157 95/95/162 94/93/160
f 91/91/157 92/92/159 96/96/163 95/95/162
s 16
f 93/94/164 94/93/165 98/97/166 97/98/167
f 94/93/165 95/95/168 99/99/169 98/97/166
f 95/95/168 96/96/170 100/100/171 99/99/169
s 17
f 101/101/172 100/100/173 96/96/174 92/92/175
f 84/87/176 101/101/172 92/92/175 88/88/177
